SplineFontDB: 3.2
FontName: Reijima-Medium
FullName: Reijima Medium
FamilyName: Reijima Medium
Weight: Medium
Copyright: Copyright (c) 2019 by Coji Morishita. All rights reserved.
Version: 1.000
ItalicAngle: 0
UnderlinePosition: -100
UnderlineWidth: 50
Ascent: 860
Descent: 140
InvalidEm: 0
sfntRevision: 0x00010000
LayerCount: 2
Layer: 0 1 "Back" 1
Layer: 1 1 "Fore" 0
XUID: [1021 531 -1996577725 12253913]
StyleMap: 0x0040
FSType: 8
OS2Version: 4
OS2_WeightWidthSlopeOnly: 0
OS2_UseTypoMetrics: 1
CreationTime: 1575364793
ModificationTime: 1707313341
PfmFamily: 81
TTFWeight: 500
TTFWidth: 5
LineGap: 0
VLineGap: 1000
Panose: 0 0 6 0 0 0 0 0 0 0
OS2TypoAscent: 960
OS2TypoAOffset: 0
OS2TypoDescent: -230
OS2TypoDOffset: 0
OS2TypoLinegap: 200
OS2WinAscent: 1060
OS2WinAOffset: 0
OS2WinDescent: 330
OS2WinDOffset: 0
HheadAscent: 1060
HheadAOffset: 0
HheadDescent: -330
HheadDOffset: 0
OS2SubXSize: 650
OS2SubYSize: 600
OS2SubXOff: 0
OS2SubYOff: 75
OS2SupXSize: 650
OS2SupYSize: 600
OS2SupXOff: 0
OS2SupYOff: 350
OS2StrikeYSize: 50
OS2StrikeYPos: 312
OS2CapHeight: 730
OS2XHeight: 520
OS2Vendor: 'M+  '
OS2CodePages: 0000019f.00000000
OS2UnicodeRanges: a00002ff.4000204b.00000000.00000000
Lookup: 1 0 0 "'aalt' Access All Alternates in Latin lookup 0" { "'aalt' Access All Alternates in Latin lookup 0 subtable"  } ['aalt' ('DFLT' <'dflt' > 'latn' <'AZE ' 'CAT ' 'CRT ' 'KAZ ' 'MOL ' 'ROM ' 'TAT ' 'TRK ' 'dflt' > ) ]
Lookup: 3 0 0 "'aalt' Access All Alternates in Latin lookup 1" { "'aalt' Access All Alternates in Latin lookup 1 subtable"  } ['aalt' ('DFLT' <'dflt' > 'latn' <'AZE ' 'CAT ' 'CRT ' 'KAZ ' 'MOL ' 'ROM ' 'TAT ' 'TRK ' 'dflt' > ) ]
Lookup: 6 0 0 "'ccmp' Glyph Composition/Decomposition in Latin lookup 2" { "'ccmp' Glyph Composition/Decomposition in Latin lookup 2 contextual 0"  "'ccmp' Glyph Composition/Decomposition in Latin lookup 2 contextual 1"  } ['ccmp' ('DFLT' <'dflt' > 'latn' <'AZE ' 'CAT ' 'CRT ' 'KAZ ' 'MOL ' 'ROM ' 'TAT ' 'TRK ' 'dflt' > ) ]

StartChar: .notdef
Encoding: 1114112 -1 0
Width: 500
Flags: W
LayerCount: 2
Fore
SplineSet
410 -140 m 1,0,-1
 93 -140 l 1,1,-1
 93 860 l 1,2,-1
 410 860 l 1,3,-1
 410 -140 l 1,0,-1
168 793 m 1,4,-1
 168 760 l 1,5,-1
 233 760 l 1,6,-1
 233 723 l 1,7,-1
 167 723 l 1,8,-1
 167 690 l 1,9,-1
 333 690 l 1,10,-1
 333 723 l 1,11,-1
 267 723 l 1,12,-1
 267 760 l 1,13,-1
 333 760 l 1,14,-1
 333 793 l 1,15,-1
 168 793 l 1,4,-1
167 664 m 1,16,-1
 167 560 l 1,17,-1
 333 560 l 1,18,-1
 333 594 l 1,19,-1
 267 594 l 1,20,-1
 267 664 l 1,21,-1
 167 664 l 1,16,-1
233 594 m 1,22,-1
 200 594 l 1,23,-1
 200 630 l 1,24,-1
 233 630 l 1,25,-1
 233 594 l 1,22,-1
167 533 m 1,26,-1
 167 500 l 1,27,-1
 233 500 l 1,28,-1
 233 463 l 1,29,-1
 167 463 l 1,30,-1
 167 430 l 1,31,-1
 267 430 l 1,32,-1
 267 500 l 1,33,-1
 333 500 l 1,34,-1
 333 533 l 1,35,-1
 167 533 l 1,26,-1
300 473 m 1,36,-1
 300 407 l 1,37,-1
 167 407 l 1,38,-1
 167 373 l 1,39,-1
 333 373 l 1,40,-1
 333 473 l 1,41,-1
 300 473 l 1,36,-1
233 351 m 1,42,-1
 233 295 l 1,43,-1
 267 295 l 1,44,-1
 267 318 l 1,45,-1
 300 318 l 1,46,-1
 300 271 l 1,47,-1
 200 271 l 1,48,-1
 200 351 l 1,49,-1
 167 351 l 1,50,-1
 167 238 l 1,51,-1
 333 238 l 1,52,-1
 333 351 l 1,53,-1
 233 351 l 1,42,-1
167 178 m 1,54,-1
 167 65 l 1,55,-1
 333 65 l 1,56,-1
 333 178 l 1,57,-1
 167 178 l 1,54,-1
300 98 m 1,58,-1
 200 98 l 1,59,-1
 200 145 l 1,60,-1
 300 145 l 1,61,-1
 300 98 l 1,58,-1
167 42 m 1,62,-1
 167 9 l 1,63,-1
 237 9 l 1,64,-1
 167 -38 l 1,65,-1
 167 -71 l 1,66,-1
 333 -71 l 1,67,-1
 333 -38 l 1,68,-1
 231 -38 l 1,69,-1
 301 9 l 1,70,-1
 333 9 l 1,71,-1
 333 42 l 1,72,-1
 167 42 l 1,62,-1
EndSplineSet
EndChar

StartChar: A
Encoding: 65 65 2
Width: 674
GlyphClass: 2
Flags: W
AnchorPoint: "Anchor-6" 337 730 basechar 0
AnchorPoint: "Anchor-5" 662 0 basechar 0
AnchorPoint: "Anchor-4" 337 0 basechar 0
LayerCount: 2
Fore
SplineSet
541 0 m 1,0,-1
 483 183 l 1,1,-1
 191 183 l 1,2,-1
 133 0 l 1,3,-1
 12 0 l 1,4,-1
 262 730 l 1,5,-1
 412 730 l 1,6,-1
 662 0 l 1,7,-1
 541 0 l 1,0,-1
223 283 m 1,8,-1
 451 283 l 1,9,-1
 338 636 l 1,10,-1
 336 636 l 1,11,-1
 223 283 l 1,8,-1
EndSplineSet
Substitution2: "Single Substitution lookup 21 subtable" ordfeminine
Substitution2: "'aalt' Access All Alternates in Latin lookup 0 subtable" ordfeminine
EndChar

StartChar: uni1EAE
Encoding: 7854 7854 5
Width: 674
GlyphClass: 2
Flags: W
AnchorPoint: "Anchor-6" 337 730 basechar 0
AnchorPoint: "Anchor-5" 662 0 basechar 0
AnchorPoint: "Anchor-4" 337 0 basechar 0
LayerCount: 2
Fore
SplineSet
234.5 804.5 m 128,-1,1
 189 826 189 826 162 865 c 128,-1,2
 135 904 135 904 132 953 c 1,3,-1
 243 953 l 1,4,-1
 332 1150 l 1,5,-1
 472 1150 l 1,6,-1
 347 940 l 1,7,-1
 251 940 l 1,8,9
 266 869 266 869 337 869 c 0,10,11
 375 869 375 869 397.5 890.5 c 128,-1,12
 420 912 420 912 425 953 c 1,13,-1
 542 953 l 1,14,15
 539 904 539 904 512 865 c 128,-1,16
 485 826 485 826 439.5 804.5 c 128,-1,17
 394 783 394 783 337 783 c 256,18,0
 280 783 280 783 234.5 804.5 c 128,-1,1
541 0 m 1,19,-1
 483 183 l 1,20,-1
 191 183 l 1,21,-1
 133 0 l 1,22,-1
 12 0 l 1,23,-1
 262 730 l 1,24,-1
 412 730 l 1,25,-1
 662 0 l 1,26,-1
 541 0 l 1,19,-1
223 283 m 1,27,-1
 451 283 l 1,28,-1
 338 636 l 1,29,-1
 336 636 l 1,30,-1
 223 283 l 1,27,-1
EndSplineSet
EndChar

StartChar: uni1EB0
Encoding: 7856 7856 7
Width: 674
GlyphClass: 2
Flags: W
AnchorPoint: "Anchor-6" 337 730 basechar 0
AnchorPoint: "Anchor-5" 662 0 basechar 0
AnchorPoint: "Anchor-4" 337 0 basechar 0
LayerCount: 2
Fore
SplineSet
423 940 m 1,1,-1
 327 940 l 1,2,-1
 202 1150 l 1,3,-1
 342 1150 l 1,4,-1
 431 953 l 1,5,-1
 542 953 l 1,6,7
 539 904 539 904 512 865 c 128,-1,8
 485 826 485 826 439.5 804.5 c 128,-1,9
 394 783 394 783 337 783 c 256,10,11
 280 783 280 783 234.5 804.5 c 128,-1,12
 189 826 189 826 162 865 c 128,-1,13
 135 904 135 904 132 953 c 1,14,-1
 249 953 l 1,15,16
 254 912 254 912 276.5 890.5 c 128,-1,17
 299 869 299 869 337 869 c 0,18,0
 408 869 408 869 423 940 c 1,1,-1
541 0 m 1,19,-1
 483 183 l 1,20,-1
 191 183 l 1,21,-1
 133 0 l 1,22,-1
 12 0 l 1,23,-1
 262 730 l 1,24,-1
 412 730 l 1,25,-1
 662 0 l 1,26,-1
 541 0 l 1,19,-1
223 283 m 1,27,-1
 451 283 l 1,28,-1
 338 636 l 1,29,-1
 336 636 l 1,30,-1
 223 283 l 1,27,-1
EndSplineSet
EndChar

StartChar: uni1EB2
Encoding: 7858 7858 8
Width: 674
GlyphClass: 2
Flags: W
AnchorPoint: "Anchor-6" 338 1133 basechar 0
AnchorPoint: "Anchor-5" 662 0 basechar 0
AnchorPoint: "Anchor-4" 337 0 basechar 0
LayerCount: 2
Fore
SplineSet
423 943 m 1,1,-1
 367 943 l 1,2,3
 372 957 372 957 376 976.5 c 128,-1,4
 380 996 380 996 380 1009 c 0,5,6
 380 1031 380 1031 365.5 1038.5 c 128,-1,7
 351 1046 351 1046 312 1046 c 0,8,9
 248 1046 248 1046 188 1028 c 1,10,-1
 178 1115 l 1,11,12
 253 1133 253 1133 338 1133 c 0,13,14
 400 1133 400 1133 434 1125.5 c 128,-1,15
 468 1118 468 1118 482.5 1100.5 c 128,-1,16
 497 1083 497 1083 497 1050 c 0,17,18
 497 1029 497 1029 492.5 1002 c 128,-1,19
 488 975 488 975 481 953 c 1,20,-1
 542 953 l 1,21,22
 539 904 539 904 512 865 c 128,-1,23
 485 826 485 826 439.5 804.5 c 128,-1,24
 394 783 394 783 337 783 c 256,25,26
 280 783 280 783 234.5 804.5 c 128,-1,27
 189 826 189 826 162 865 c 128,-1,28
 135 904 135 904 132 953 c 1,29,-1
 249 953 l 1,30,31
 254 912 254 912 276.5 890.5 c 128,-1,32
 299 869 299 869 337 869 c 0,33,0
 409 869 409 869 423 943 c 1,1,-1
541 0 m 1,34,-1
 483 183 l 1,35,-1
 191 183 l 1,36,-1
 133 0 l 1,37,-1
 12 0 l 1,38,-1
 262 730 l 1,39,-1
 412 730 l 1,40,-1
 662 0 l 1,41,-1
 541 0 l 1,34,-1
223 283 m 1,42,-1
 451 283 l 1,43,-1
 338 636 l 1,44,-1
 336 636 l 1,45,-1
 223 283 l 1,42,-1
EndSplineSet
EndChar

StartChar: uni1EA4
Encoding: 7844 7844 11
Width: 674
GlyphClass: 2
Flags: W
AnchorPoint: "Anchor-6" 337 730 basechar 0
AnchorPoint: "Anchor-5" 662 0 basechar 0
AnchorPoint: "Anchor-4" 337 0 basechar 0
LayerCount: 2
Fore
SplineSet
336 930 m 1,0,-1
 246 770 l 1,1,-1
 116 770 l 1,2,-1
 240 980 l 1,3,-1
 430 980 l 1,4,-1
 511 1160 l 1,5,-1
 651 1160 l 1,6,-1
 526 950 l 1,7,-1
 451 950 l 1,8,-1
 558 770 l 1,9,-1
 428 770 l 1,10,-1
 338 930 l 1,11,-1
 336 930 l 1,0,-1
541 0 m 1,12,-1
 483 183 l 1,13,-1
 191 183 l 1,14,-1
 133 0 l 1,15,-1
 12 0 l 1,16,-1
 262 730 l 1,17,-1
 412 730 l 1,18,-1
 662 0 l 1,19,-1
 541 0 l 1,12,-1
223 283 m 1,20,-1
 451 283 l 1,21,-1
 338 636 l 1,22,-1
 336 636 l 1,23,-1
 223 283 l 1,20,-1
EndSplineSet
EndChar

StartChar: uni1EA6
Encoding: 7846 7846 13
Width: 674
GlyphClass: 2
Flags: W
AnchorPoint: "Anchor-6" 337 730 basechar 0
AnchorPoint: "Anchor-5" 662 0 basechar 0
AnchorPoint: "Anchor-4" 337 0 basechar 0
LayerCount: 2
Fore
SplineSet
222 950 m 1,0,-1
 148 950 l 1,1,-1
 23 1160 l 1,2,-1
 163 1160 l 1,3,-1
 244 980 l 1,4,-1
 433 980 l 1,5,-1
 558 770 l 1,6,-1
 428 770 l 1,7,-1
 338 930 l 1,8,-1
 336 930 l 1,9,-1
 246 770 l 1,10,-1
 116 770 l 1,11,-1
 222 950 l 1,0,-1
541 0 m 1,12,-1
 483 183 l 1,13,-1
 191 183 l 1,14,-1
 133 0 l 1,15,-1
 12 0 l 1,16,-1
 262 730 l 1,17,-1
 412 730 l 1,18,-1
 662 0 l 1,19,-1
 541 0 l 1,12,-1
223 283 m 1,20,-1
 451 283 l 1,21,-1
 338 636 l 1,22,-1
 336 636 l 1,23,-1
 223 283 l 1,20,-1
EndSplineSet
EndChar

StartChar: uni1EA8
Encoding: 7848 7848 14
Width: 674
GlyphClass: 2
Flags: W
AnchorPoint: "Anchor-6" 387 1138 basechar 0
AnchorPoint: "Anchor-5" 662 0 basechar 0
AnchorPoint: "Anchor-4" 337 0 basechar 0
LayerCount: 2
Fore
SplineSet
425 980 m 1,0,1
 429 1006 429 1006 429 1014 c 0,2,3
 429 1036 429 1036 414.5 1043.5 c 128,-1,4
 400 1051 400 1051 361 1051 c 0,5,6
 297 1051 297 1051 237 1033 c 1,7,-1
 227 1120 l 1,8,9
 302 1138 302 1138 387 1138 c 0,10,11
 449 1138 449 1138 483 1130.5 c 128,-1,12
 517 1123 517 1123 531.5 1105.5 c 128,-1,13
 546 1088 546 1088 546 1055 c 0,14,15
 546 1031 546 1031 540.5 1001 c 128,-1,16
 535 971 535 971 526 948 c 1,17,-1
 452 948 l 1,18,-1
 558 770 l 1,19,-1
 428 770 l 1,20,-1
 338 930 l 1,21,-1
 336 930 l 1,22,-1
 246 770 l 1,23,-1
 116 770 l 1,24,-1
 240 980 l 1,25,-1
 425 980 l 1,0,1
541 0 m 1,26,-1
 483 183 l 1,27,-1
 191 183 l 1,28,-1
 133 0 l 1,29,-1
 12 0 l 1,30,-1
 262 730 l 1,31,-1
 412 730 l 1,32,-1
 662 0 l 1,33,-1
 541 0 l 1,26,-1
223 283 m 1,34,-1
 451 283 l 1,35,-1
 338 636 l 1,36,-1
 336 636 l 1,37,-1
 223 283 l 1,34,-1
EndSplineSet
EndChar

StartChar: Aogonek
Encoding: 260 260 23
Width: 674
GlyphClass: 2
Flags: W
AnchorPoint: "Anchor-6" 337 730 basechar 0
AnchorPoint: "Anchor-5" 662 0 basechar 0
AnchorPoint: "Anchor-4" 337 0 basechar 0
LayerCount: 2
Fore
SplineSet
751 -196 m 1,0,1
 700 -217 700 -217 636 -217 c 0,2,3
 559 -217 559 -217 517 -189.5 c 128,-1,4
 475 -162 475 -162 475 -112 c 0,5,6
 475 -51 475 -51 539 5 c 1,7,-1
 483 183 l 1,8,-1
 191 183 l 1,9,-1
 133 0 l 1,10,-1
 12 0 l 1,11,-1
 262 730 l 1,12,-1
 412 730 l 1,13,-1
 662 0 l 1,14,15
 622 -24 622 -24 599.5 -48.5 c 128,-1,16
 577 -73 577 -73 577 -93 c 0,17,18
 577 -111 577 -111 594.5 -120.5 c 128,-1,19
 612 -130 612 -130 645 -130 c 0,20,21
 693 -130 693 -130 734 -111 c 1,22,-1
 751 -196 l 1,0,1
223 283 m 1,23,-1
 451 283 l 1,24,-1
 338 636 l 1,25,-1
 336 636 l 1,26,-1
 223 283 l 1,23,-1
EndSplineSet
EndChar

StartChar: Aring
Encoding: 197 197 24
Width: 674
GlyphClass: 2
Flags: W
AnchorPoint: "Anchor-6" 337 910 basechar 0
AnchorPoint: "Anchor-5" 662 0 basechar 0
AnchorPoint: "Anchor-4" 337 0 basechar 0
LayerCount: 2
Fore
SplineSet
483 183 m 1,0,-1
 191 183 l 1,1,-1
 133 0 l 1,2,-1
 12 0 l 1,3,-1
 258 718 l 1,4,5
 226 739 226 739 207 772 c 128,-1,6
 188 805 188 805 188 845 c 0,7,8
 188 886 188 886 208 920.5 c 128,-1,9
 228 955 228 955 262.5 975 c 128,-1,10
 297 995 297 995 338 995 c 256,11,12
 379 995 379 995 413.5 975 c 128,-1,13
 448 955 448 955 468 920.5 c 128,-1,14
 488 886 488 886 488 845 c 0,15,16
 488 805 488 805 468.5 771 c 128,-1,17
 449 737 449 737 416 717 c 1,18,-1
 662 0 l 1,19,-1
 541 0 l 1,20,-1
 483 183 l 1,0,-1
288.5 894.5 m 128,-1,22
 268 874 268 874 268 845 c 256,23,24
 268 816 268 816 288.5 795.5 c 128,-1,25
 309 775 309 775 338 775 c 256,26,27
 367 775 367 775 387.5 795.5 c 128,-1,28
 408 816 408 816 408 845 c 256,29,30
 408 874 408 874 387.5 894.5 c 128,-1,31
 367 915 367 915 338 915 c 256,32,21
 309 915 309 915 288.5 894.5 c 128,-1,22
223 283 m 1,33,-1
 451 283 l 1,34,-1
 338 636 l 1,35,-1
 336 636 l 1,36,-1
 223 283 l 1,33,-1
EndSplineSet
EndChar

StartChar: Aringacute
Encoding: 506 506 25
Width: 674
GlyphClass: 2
Flags: W
AnchorPoint: "Anchor-6" 337 910 basechar 0
AnchorPoint: "Anchor-5" 662 0 basechar 0
AnchorPoint: "Anchor-4" 337 0 basechar 0
LayerCount: 2
Fore
SplineSet
483 183 m 1,0,-1
 191 183 l 1,1,-1
 133 0 l 1,2,-1
 12 0 l 1,3,-1
 258 718 l 1,4,5
 226 739 226 739 207 772 c 128,-1,6
 188 805 188 805 188 845 c 0,7,8
 188 879 188 879 202.5 909 c 128,-1,9
 217 939 217 939 242 960 c 1,10,-1
 332 1160 l 1,11,-1
 472 1160 l 1,12,-1
 372 991 l 1,13,14
 422 980 422 980 455 939 c 128,-1,15
 488 898 488 898 488 845 c 0,16,17
 488 805 488 805 468.5 771 c 128,-1,18
 449 737 449 737 416 717 c 1,19,-1
 662 0 l 1,20,-1
 541 0 l 1,21,-1
 483 183 l 1,0,-1
387.5 894.5 m 128,-1,23
 367 915 367 915 338 915 c 256,24,25
 309 915 309 915 288.5 894.5 c 128,-1,26
 268 874 268 874 268 845 c 256,27,28
 268 816 268 816 288.5 795.5 c 128,-1,29
 309 775 309 775 338 775 c 256,30,31
 367 775 367 775 387.5 795.5 c 128,-1,32
 408 816 408 816 408 845 c 256,33,22
 408 874 408 874 387.5 894.5 c 128,-1,23
223 283 m 1,34,-1
 451 283 l 1,35,-1
 338 636 l 1,36,-1
 336 636 l 1,37,-1
 223 283 l 1,34,-1
EndSplineSet
EndChar

StartChar: AE
Encoding: 198 198 27
Width: 858
GlyphClass: 2
Flags: W
AnchorPoint: "Anchor-6" 460 730 basechar 0
AnchorPoint: "Anchor-4" 460 0 basechar 0
LayerCount: 2
Fore
SplineSet
794 632 m 1,0,-1
 519 632 l 1,1,-1
 519 430 l 1,2,-1
 774 430 l 1,3,-1
 774 335 l 1,4,-1
 519 335 l 1,5,-1
 519 98 l 1,6,-1
 794 98 l 1,7,-1
 794 0 l 1,8,-1
 409 0 l 1,9,-1
 409 183 l 1,10,-1
 205 183 l 1,11,-1
 133 0 l 1,12,-1
 12 0 l 1,13,-1
 313 730 l 1,14,-1
 794 730 l 1,15,-1
 794 632 l 1,0,-1
244 283 m 1,16,-1
 409 283 l 1,17,-1
 409 640 l 1,18,-1
 384 640 l 1,19,-1
 244 283 l 1,16,-1
EndSplineSet
EndChar

StartChar: B
Encoding: 66 66 29
Width: 646
Flags: W
LayerCount: 2
Fore
SplineSet
568 328 m 128,-1,1
 610 282 610 282 610 205 c 0,2,3
 610 102 610 102 533 51 c 128,-1,4
 456 0 456 0 300 0 c 2,5,-1
 80 0 l 1,6,-1
 80 730 l 1,7,-1
 295 730 l 2,8,9
 439 730 439 730 509.5 686 c 128,-1,10
 580 642 580 642 580 553 c 0,11,12
 580 488 580 488 544 445.5 c 128,-1,13
 508 403 508 403 443 389 c 1,14,-1
 443 387 l 1,15,0
 526 374 526 374 568 328 c 128,-1,1
190 632 m 1,16,-1
 190 430 l 1,17,-1
 300 430 l 2,18,19
 388 430 388 430 429 455.5 c 128,-1,20
 470 481 470 481 470 534 c 0,21,22
 470 586 470 586 430 609 c 128,-1,23
 390 632 390 632 300 632 c 2,24,-1
 190 632 l 1,16,-1
450.5 126.5 m 128,-1,26
 498 155 498 155 498 216 c 256,27,28
 498 277 498 277 450 306 c 128,-1,29
 402 335 402 335 300 335 c 2,30,-1
 190 335 l 1,31,-1
 190 98 l 1,32,-1
 300 98 l 2,33,25
 403 98 403 98 450.5 126.5 c 128,-1,26
EndSplineSet
EndChar

StartChar: C
Encoding: 67 67 30
Width: 691
GlyphClass: 2
Flags: W
AnchorPoint: "Anchor-6" 380 730 basechar 0
AnchorPoint: "Anchor-4" 380 0 basechar 0
LayerCount: 2
Fore
SplineSet
208.5 35 m 128,-1,1
 127 80 127 80 83.5 164.5 c 128,-1,2
 40 249 40 249 40 365 c 256,3,4
 40 481 40 481 83.5 565.5 c 128,-1,5
 127 650 127 650 208.5 695 c 128,-1,6
 290 740 290 740 403 740 c 0,7,8
 541 740 541 740 643 674 c 1,9,-1
 597 585 l 1,10,11
 508 640 508 640 408 640 c 0,12,13
 289 640 289 640 221 566.5 c 128,-1,14
 153 493 153 493 153 365 c 256,15,16
 153 237 153 237 221 163.5 c 128,-1,17
 289 90 289 90 408 90 c 0,18,19
 508 90 508 90 597 145 c 1,20,-1
 643 56 l 1,21,22
 541 -10 541 -10 403 -10 c 0,23,0
 290 -10 290 -10 208.5 35 c 128,-1,1
EndSplineSet
EndChar

StartChar: Ccedilla
Encoding: 199 199 33
Width: 691
GlyphClass: 2
Flags: W
AnchorPoint: "Anchor-6" 380 730 basechar 0
AnchorPoint: "Anchor-4" 380 0 basechar 0
LayerCount: 2
Fore
SplineSet
643 56 m 1,0,1
 567 6 567 6 466 -6 c 1,2,3
 518 -58 518 -58 518 -112 c 0,4,5
 518 -162 518 -162 476 -189.5 c 128,-1,6
 434 -217 434 -217 357 -217 c 0,7,8
 293 -217 293 -217 242 -196 c 1,9,-1
 259 -111 l 1,10,11
 300 -130 300 -130 348 -130 c 0,12,13
 381 -130 381 -130 398.5 -120.5 c 128,-1,14
 416 -111 416 -111 416 -93 c 0,15,16
 416 -74 416 -74 396.5 -51 c 128,-1,17
 377 -28 377 -28 341 -6 c 1,18,19
 199 11 199 11 119.5 108.5 c 128,-1,20
 40 206 40 206 40 365 c 0,21,22
 40 481 40 481 83.5 565.5 c 128,-1,23
 127 650 127 650 208.5 695 c 128,-1,24
 290 740 290 740 403 740 c 0,25,26
 541 740 541 740 643 674 c 1,27,-1
 597 585 l 1,28,29
 508 640 508 640 408 640 c 0,30,31
 289 640 289 640 221 566.5 c 128,-1,32
 153 493 153 493 153 365 c 256,33,34
 153 237 153 237 221 163.5 c 128,-1,35
 289 90 289 90 408 90 c 0,36,37
 508 90 508 90 597 145 c 1,38,-1
 643 56 l 1,0,1
EndSplineSet
EndChar

StartChar: D
Encoding: 68 68 36
Width: 685
GlyphClass: 2
Flags: W
AnchorPoint: "Anchor-6" 343 730 basechar 0
AnchorPoint: "Anchor-4" 343 0 basechar 0
LayerCount: 2
Fore
SplineSet
275 730 m 2,0,1
 463 730 463 730 554 640.5 c 128,-1,2
 645 551 645 551 645 365 c 256,3,4
 645 179 645 179 554 89.5 c 128,-1,5
 463 0 463 0 275 0 c 2,6,-1
 80 0 l 1,7,-1
 80 730 l 1,8,-1
 275 730 l 2,0,1
474 162.5 m 128,-1,10
 533 225 533 225 533 365 c 256,11,12
 533 505 533 505 474 567.5 c 128,-1,13
 415 630 415 630 282 630 c 2,14,-1
 190 630 l 1,15,-1
 190 100 l 1,16,-1
 282 100 l 2,17,9
 415 100 415 100 474 162.5 c 128,-1,10
EndSplineSet
EndChar

StartChar: Eth
Encoding: 208 208 38
Width: 739
GlyphClass: 2
Flags: W
AnchorPoint: "Anchor-6" 397 730 basechar 0
AnchorPoint: "Anchor-4" 397 0 basechar 0
LayerCount: 2
Fore
SplineSet
608 640.5 m 128,-1,1
 699 551 699 551 699 365 c 256,2,3
 699 179 699 179 608 89.5 c 128,-1,4
 517 0 517 0 329 0 c 2,5,-1
 134 0 l 1,6,-1
 134 320 l 1,7,-1
 26 320 l 1,8,-1
 26 410 l 1,9,-1
 134 410 l 1,10,-1
 134 730 l 1,11,-1
 329 730 l 2,12,0
 517 730 517 730 608 640.5 c 128,-1,1
528 162.5 m 128,-1,14
 587 225 587 225 587 365 c 256,15,16
 587 505 587 505 528 567.5 c 128,-1,17
 469 630 469 630 336 630 c 2,18,-1
 244 630 l 1,19,-1
 244 410 l 1,20,-1
 444 410 l 1,21,-1
 444 320 l 1,22,-1
 244 320 l 1,23,-1
 244 100 l 1,24,-1
 336 100 l 2,25,13
 469 100 469 100 528 162.5 c 128,-1,14
EndSplineSet
EndChar

StartChar: E
Encoding: 69 69 42
Width: 599
GlyphClass: 2
Flags: W
AnchorPoint: "Anchor-6" 310 730 basechar 0
AnchorPoint: "Anchor-5" 535 0 basechar 0
AnchorPoint: "Anchor-4" 310 0 basechar 0
LayerCount: 2
Fore
SplineSet
80 730 m 1,0,-1
 535 730 l 1,1,-1
 535 632 l 1,2,-1
 190 632 l 1,3,-1
 190 430 l 1,4,-1
 515 430 l 1,5,-1
 515 335 l 1,6,-1
 190 335 l 1,7,-1
 190 98 l 1,8,-1
 535 98 l 1,9,-1
 535 0 l 1,10,-1
 80 0 l 1,11,-1
 80 730 l 1,0,-1
EndSplineSet
EndChar

StartChar: uni1EBE
Encoding: 7870 7870 47
Width: 599
GlyphClass: 2
Flags: W
AnchorPoint: "Anchor-6" 310 730 basechar 0
AnchorPoint: "Anchor-5" 535 0 basechar 0
AnchorPoint: "Anchor-4" 310 0 basechar 0
LayerCount: 2
Fore
SplineSet
309 930 m 1,0,-1
 219 770 l 1,1,-1
 89 770 l 1,2,-1
 213 980 l 1,3,-1
 403 980 l 1,4,-1
 484 1160 l 1,5,-1
 624 1160 l 1,6,-1
 499 950 l 1,7,-1
 424 950 l 1,8,-1
 531 770 l 1,9,-1
 401 770 l 1,10,-1
 311 930 l 1,11,-1
 309 930 l 1,0,-1
80 0 m 1,12,-1
 80 730 l 1,13,-1
 535 730 l 1,14,-1
 535 632 l 1,15,-1
 190 632 l 1,16,-1
 190 430 l 1,17,-1
 515 430 l 1,18,-1
 515 335 l 1,19,-1
 190 335 l 1,20,-1
 190 98 l 1,21,-1
 535 98 l 1,22,-1
 535 0 l 1,23,-1
 80 0 l 1,12,-1
EndSplineSet
EndChar

StartChar: uni1EC0
Encoding: 7872 7872 49
Width: 599
GlyphClass: 2
Flags: W
AnchorPoint: "Anchor-6" 310 730 basechar 0
AnchorPoint: "Anchor-5" 535 0 basechar 0
AnchorPoint: "Anchor-4" 310 0 basechar 0
LayerCount: 2
Fore
SplineSet
195 950 m 1,0,-1
 121 950 l 1,1,-1
 -4 1160 l 1,2,-1
 136 1160 l 1,3,-1
 217 980 l 1,4,-1
 406 980 l 1,5,-1
 531 770 l 1,6,-1
 401 770 l 1,7,-1
 311 930 l 1,8,-1
 309 930 l 1,9,-1
 219 770 l 1,10,-1
 89 770 l 1,11,-1
 195 950 l 1,0,-1
535 632 m 1,12,-1
 190 632 l 1,13,-1
 190 430 l 1,14,-1
 515 430 l 1,15,-1
 515 335 l 1,16,-1
 190 335 l 1,17,-1
 190 98 l 1,18,-1
 535 98 l 1,19,-1
 535 0 l 1,20,-1
 80 0 l 1,21,-1
 80 730 l 1,22,-1
 535 730 l 1,23,-1
 535 632 l 1,12,-1
EndSplineSet
EndChar

StartChar: uni1EC2
Encoding: 7874 7874 50
Width: 599
GlyphClass: 2
Flags: W
AnchorPoint: "Anchor-6" 360 1138 basechar 0
AnchorPoint: "Anchor-5" 535 0 basechar 0
AnchorPoint: "Anchor-4" 310 0 basechar 0
LayerCount: 2
Fore
SplineSet
398 980 m 1,0,1
 402 1006 402 1006 402 1014 c 0,2,3
 402 1036 402 1036 387.5 1043.5 c 128,-1,4
 373 1051 373 1051 334 1051 c 0,5,6
 270 1051 270 1051 210 1033 c 1,7,-1
 200 1120 l 1,8,9
 275 1138 275 1138 360 1138 c 0,10,11
 422 1138 422 1138 456 1130.5 c 128,-1,12
 490 1123 490 1123 504.5 1105.5 c 128,-1,13
 519 1088 519 1088 519 1055 c 0,14,15
 519 1031 519 1031 513.5 1001 c 128,-1,16
 508 971 508 971 499 948 c 1,17,-1
 425 948 l 1,18,-1
 531 770 l 1,19,-1
 401 770 l 1,20,-1
 311 930 l 1,21,-1
 309 930 l 1,22,-1
 219 770 l 1,23,-1
 89 770 l 1,24,-1
 213 980 l 1,25,-1
 398 980 l 1,0,1
535 632 m 1,26,-1
 190 632 l 1,27,-1
 190 430 l 1,28,-1
 515 430 l 1,29,-1
 515 335 l 1,30,-1
 190 335 l 1,31,-1
 190 98 l 1,32,-1
 535 98 l 1,33,-1
 535 0 l 1,34,-1
 80 0 l 1,35,-1
 80 730 l 1,36,-1
 535 730 l 1,37,-1
 535 632 l 1,26,-1
EndSplineSet
EndChar

StartChar: Eogonek
Encoding: 280 280 60
Width: 599
GlyphClass: 2
Flags: W
AnchorPoint: "Anchor-6" 310 730 basechar 0
AnchorPoint: "Anchor-5" 535 0 basechar 0
AnchorPoint: "Anchor-4" 310 0 basechar 0
LayerCount: 2
Fore
SplineSet
624 -196 m 1,0,1
 573 -217 573 -217 509 -217 c 0,2,3
 432 -217 432 -217 390 -189.5 c 128,-1,4
 348 -162 348 -162 348 -112 c 0,5,6
 348 -53 348 -53 407 0 c 1,7,-1
 80 0 l 1,8,-1
 80 730 l 1,9,-1
 535 730 l 1,10,-1
 535 632 l 1,11,-1
 190 632 l 1,12,-1
 190 430 l 1,13,-1
 515 430 l 1,14,-1
 515 335 l 1,15,-1
 190 335 l 1,16,-1
 190 98 l 1,17,-1
 535 98 l 1,18,-1
 535 0 l 1,19,20
 495 -24 495 -24 472.5 -48.5 c 128,-1,21
 450 -73 450 -73 450 -93 c 0,22,23
 450 -111 450 -111 467.5 -120.5 c 128,-1,24
 485 -130 485 -130 518 -130 c 0,25,26
 566 -130 566 -130 607 -111 c 1,27,-1
 624 -196 l 1,0,1
EndSplineSet
EndChar

StartChar: F
Encoding: 70 70 62
Width: 587
Flags: W
LayerCount: 2
Fore
SplineSet
80 730 m 1,0,-1
 535 730 l 1,1,-1
 535 630 l 1,2,-1
 190 630 l 1,3,-1
 190 415 l 1,4,-1
 515 415 l 1,5,-1
 515 317 l 1,6,-1
 190 317 l 1,7,-1
 190 0 l 1,8,-1
 80 0 l 1,9,-1
 80 730 l 1,0,-1
EndSplineSet
EndChar

StartChar: G
Encoding: 71 71 63
Width: 773
GlyphClass: 2
Flags: W
AnchorPoint: "Anchor-6" 405 730 basechar 0
AnchorPoint: "Anchor-4" 405 0 basechar 0
LayerCount: 2
Fore
SplineSet
705 427 m 1,0,-1
 705 47 l 1,1,2
 650 20 650 20 578 5 c 128,-1,3
 506 -10 506 -10 432 -10 c 0,4,5
 310 -10 310 -10 222 34.5 c 128,-1,6
 134 79 134 79 87 163.5 c 128,-1,7
 40 248 40 248 40 365 c 256,8,9
 40 482 40 482 87 566.5 c 128,-1,10
 134 651 134 651 222 695.5 c 128,-1,11
 310 740 310 740 432 740 c 0,12,13
 580 740 580 740 679 677 c 1,14,-1
 635 591 l 1,15,16
 544 642 544 642 432 642 c 0,17,18
 298 642 298 642 225.5 570 c 128,-1,19
 153 498 153 498 153 365 c 256,20,21
 153 232 153 232 225.5 160 c 128,-1,22
 298 88 298 88 432 88 c 0,23,24
 522 88 522 88 595 116 c 1,25,-1
 595 332 l 1,26,-1
 365 332 l 1,27,-1
 365 427 l 1,28,-1
 705 427 l 1,0,-1
EndSplineSet
EndChar

StartChar: H
Encoding: 72 72 69
Width: 715
GlyphClass: 2
Flags: W
AnchorPoint: "Anchor-6" 358 730 basechar 0
AnchorPoint: "Anchor-4" 358 0 basechar 0
LayerCount: 2
Fore
SplineSet
525 730 m 1,0,-1
 635 730 l 1,1,-1
 635 0 l 1,2,-1
 525 0 l 1,3,-1
 525 335 l 1,4,-1
 190 335 l 1,5,-1
 190 0 l 1,6,-1
 80 0 l 1,7,-1
 80 730 l 1,8,-1
 190 730 l 1,9,-1
 190 435 l 1,10,-1
 525 435 l 1,11,-1
 525 730 l 1,0,-1
EndSplineSet
EndChar

StartChar: Hbar
Encoding: 294 294 70
Width: 796
GlyphClass: 2
Flags: W
AnchorPoint: "Anchor-6" 398 730 basechar 0
AnchorPoint: "Anchor-4" 398 0 basechar 0
LayerCount: 2
Fore
SplineSet
768 641 m 1,0,-1
 768 551 l 1,1,-1
 675 551 l 1,2,-1
 675 0 l 1,3,-1
 565 0 l 1,4,-1
 565 335 l 1,5,-1
 230 335 l 1,6,-1
 230 0 l 1,7,-1
 120 0 l 1,8,-1
 120 551 l 1,9,-1
 28 551 l 1,10,-1
 28 641 l 1,11,-1
 120 641 l 1,12,-1
 120 730 l 1,13,-1
 230 730 l 1,14,-1
 230 641 l 1,15,-1
 565 641 l 1,16,-1
 565 730 l 1,17,-1
 675 730 l 1,18,-1
 675 641 l 1,19,-1
 768 641 l 1,0,-1
565 435 m 1,20,-1
 565 551 l 1,21,-1
 230 551 l 1,22,-1
 230 435 l 1,23,-1
 565 435 l 1,20,-1
EndSplineSet
EndChar

StartChar: I
Encoding: 73 73 72
Width: 290
GlyphClass: 2
Flags: W
AnchorPoint: "Anchor-6" 145 730 basechar 0
AnchorPoint: "Anchor-5" 202 0 basechar 0
AnchorPoint: "Anchor-4" 145 0 basechar 0
LayerCount: 2
Fore
SplineSet
88 730 m 1,0,-1
 202 730 l 1,1,-1
 202 0 l 1,2,-1
 88 0 l 1,3,-1
 88 730 l 1,0,-1
EndSplineSet
EndChar

StartChar: Iogonek
Encoding: 302 302 84
Width: 290
GlyphClass: 2
Flags: W
AnchorPoint: "Anchor-6" 145 730 basechar 0
AnchorPoint: "Anchor-5" 202 0 basechar 0
AnchorPoint: "Anchor-4" 145 0 basechar 0
LayerCount: 2
Fore
SplineSet
291 -196 m 1,0,1
 240 -217 240 -217 176 -217 c 0,2,3
 99 -217 99 -217 57 -189.5 c 128,-1,4
 15 -162 15 -162 15 -112 c 0,5,6
 15 -47 15 -47 88 12 c 1,7,-1
 88 730 l 1,8,-1
 202 730 l 1,9,-1
 202 0 l 1,10,11
 162 -24 162 -24 139.5 -48.5 c 128,-1,12
 117 -73 117 -73 117 -93 c 0,13,14
 117 -111 117 -111 134.5 -120.5 c 128,-1,15
 152 -130 152 -130 185 -130 c 0,16,17
 233 -130 233 -130 274 -111 c 1,18,-1
 291 -196 l 1,0,1
EndSplineSet
EndChar

StartChar: J
Encoding: 74 74 86
Width: 567
GlyphClass: 2
Flags: W
AnchorPoint: "Anchor-6" 284 730 basechar 0
AnchorPoint: "Anchor-4" 284 0 basechar 0
LayerCount: 2
Fore
SplineSet
8 45 m 1,1,-1
 46 138 l 1,2,3
 134 90 134 90 222 90 c 0,4,5
 304 90 304 90 343 136.5 c 128,-1,6
 382 183 382 183 382 280 c 2,7,-1
 382 730 l 1,8,-1
 495 730 l 1,9,-1
 495 280 l 2,10,11
 495 131 495 131 431 60.5 c 128,-1,12
 367 -10 367 -10 232 -10 c 0,13,0
 106 -10 106 -10 8 45 c 1,1,-1
EndSplineSet
EndChar

StartChar: K
Encoding: 75 75 88
Width: 655
GlyphClass: 2
Flags: W
AnchorPoint: "Anchor-6" 310 730 basechar 0
AnchorPoint: "Anchor-4" 310 0 basechar 0
LayerCount: 2
Fore
SplineSet
80 730 m 1,0,-1
 190 730 l 1,1,-1
 190 421 l 1,2,-1
 192 421 l 1,3,-1
 489 730 l 1,4,-1
 625 730 l 1,5,-1
 293 385 l 1,6,-1
 635 0 l 1,7,-1
 499 0 l 1,8,-1
 192 350 l 1,9,-1
 190 350 l 1,10,-1
 190 0 l 1,11,-1
 80 0 l 1,12,-1
 80 730 l 1,0,-1
EndSplineSet
EndChar

StartChar: L
Encoding: 76 76 90
Width: 586
GlyphClass: 2
Flags: W
AnchorPoint: "Anchor-7" 566 730 basechar 0
AnchorPoint: "Anchor-6" 293 730 basechar 0
AnchorPoint: "Anchor-4" 293 0 basechar 0
LayerCount: 2
Fore
SplineSet
80 730 m 1,0,-1
 193 730 l 1,1,-1
 193 100 l 1,2,-1
 550 100 l 1,3,-1
 550 0 l 1,4,-1
 80 0 l 1,5,-1
 80 730 l 1,0,-1
EndSplineSet
EndChar

StartChar: Lslash
Encoding: 321 321 97
Width: 675
GlyphClass: 2
Flags: W
AnchorPoint: "Anchor-7" 655 730 basechar 0
AnchorPoint: "Anchor-6" 382 730 basechar 0
AnchorPoint: "Anchor-4" 382 0 basechar 0
LayerCount: 2
Fore
SplineSet
282 100 m 1,0,-1
 639 100 l 1,1,-1
 639 0 l 1,2,-1
 169 0 l 1,3,-1
 169 291 l 1,4,-1
 45 239 l 1,5,-1
 9 323 l 1,6,-1
 169 390 l 1,7,-1
 169 730 l 1,8,-1
 282 730 l 1,9,-1
 282 438 l 1,10,-1
 409 491 l 1,11,-1
 445 407 l 1,12,-1
 282 339 l 1,13,-1
 282 100 l 1,0,-1
EndSplineSet
EndChar

StartChar: M
Encoding: 77 77 98
Width: 870
Flags: W
LayerCount: 2
Fore
SplineSet
80 730 m 1,0,-1
 220 730 l 1,1,-1
 434 283 l 1,2,-1
 436 283 l 1,3,-1
 650 730 l 1,4,-1
 790 730 l 1,5,-1
 790 0 l 1,6,-1
 680 0 l 1,7,-1
 680 555 l 1,8,-1
 678 555 l 1,9,-1
 487 155 l 1,10,-1
 383 155 l 1,11,-1
 192 555 l 1,12,-1
 190 555 l 1,13,-1
 190 0 l 1,14,-1
 80 0 l 1,15,-1
 80 730 l 1,0,-1
EndSplineSet
EndChar

StartChar: N
Encoding: 78 78 99
Width: 725
GlyphClass: 2
Flags: W
AnchorPoint: "Anchor-6" 363 730 basechar 0
AnchorPoint: "Anchor-4" 363 0 basechar 0
LayerCount: 2
Fore
SplineSet
80 730 m 1,0,-1
 201 730 l 1,1,-1
 533 180 l 1,2,-1
 535 180 l 1,3,-1
 535 730 l 1,4,-1
 645 730 l 1,5,-1
 645 0 l 1,6,-1
 524 0 l 1,7,-1
 192 550 l 1,8,-1
 190 550 l 1,9,-1
 190 0 l 1,10,-1
 80 0 l 1,11,-1
 80 730 l 1,0,-1
EndSplineSet
EndChar

StartChar: Eng
Encoding: 330 330 104
Width: 725
GlyphClass: 2
Flags: W
AnchorPoint: "Anchor-6" 363 730 basechar 0
AnchorPoint: "Anchor-4" 363 0 basechar 0
LayerCount: 2
Fore
SplineSet
645 730 m 1,0,-1
 645 -26 l 2,1,2
 645 -129 645 -129 603.5 -175 c 128,-1,3
 562 -221 562 -221 469 -221 c 0,4,5
 410 -221 410 -221 355 -205 c 1,6,-1
 372 -114 l 1,7,8
 408 -126 408 -126 447 -126 c 0,9,10
 495 -126 495 -126 516 -102.5 c 128,-1,11
 537 -79 537 -79 537 -26 c 2,12,-1
 537 -20 l 1,13,-1
 192 540 l 1,14,-1
 190 540 l 1,15,-1
 190 0 l 1,16,-1
 80 0 l 1,17,-1
 80 730 l 1,18,-1
 201 730 l 1,19,-1
 533 190 l 1,20,-1
 535 190 l 1,21,-1
 535 730 l 1,22,-1
 645 730 l 1,0,-1
EndSplineSet
EndChar

StartChar: O
Encoding: 79 79 107
Width: 806
GlyphClass: 2
Flags: W
AnchorPoint: "Anchor-7" 594 690 basechar 0
AnchorPoint: "Anchor-6" 403 730 basechar 0
AnchorPoint: "Anchor-5" 463 0 basechar 0
AnchorPoint: "Anchor-4" 403 0 basechar 0
LayerCount: 2
Fore
SplineSet
210 35.5 m 128,-1,1
 128 81 128 81 84 166 c 128,-1,2
 40 251 40 251 40 365 c 256,3,4
 40 479 40 479 84 564 c 128,-1,5
 128 649 128 649 210 694.5 c 128,-1,6
 292 740 292 740 403 740 c 256,7,8
 514 740 514 740 596 694.5 c 128,-1,9
 678 649 678 649 722 564 c 128,-1,10
 766 479 766 479 766 365 c 256,11,12
 766 251 766 251 722 166 c 128,-1,13
 678 81 678 81 596 35.5 c 128,-1,14
 514 -10 514 -10 403 -10 c 256,15,0
 292 -10 292 -10 210 35.5 c 128,-1,1
586.5 163 m 128,-1,17
 653 236 653 236 653 365 c 256,18,19
 653 494 653 494 586.5 567 c 128,-1,20
 520 640 520 640 403 640 c 256,21,22
 286 640 286 640 219.5 567 c 128,-1,23
 153 494 153 494 153 365 c 256,24,25
 153 236 153 236 219.5 163 c 128,-1,26
 286 90 286 90 403 90 c 256,27,16
 520 90 520 90 586.5 163 c 128,-1,17
EndSplineSet
Substitution2: "Single Substitution lookup 21 subtable" ordmasculine
Substitution2: "'aalt' Access All Alternates in Latin lookup 0 subtable" ordmasculine
EndChar

StartChar: uni1ED0
Encoding: 7888 7888 111
Width: 806
GlyphClass: 2
Flags: W
AnchorPoint: "Anchor-7" 594 690 basechar 0
AnchorPoint: "Anchor-6" 403 730 basechar 0
AnchorPoint: "Anchor-5" 463 0 basechar 0
AnchorPoint: "Anchor-4" 403 0 basechar 0
LayerCount: 2
Fore
SplineSet
402 930 m 1,0,-1
 312 770 l 1,1,-1
 182 770 l 1,2,-1
 306 980 l 1,3,-1
 496 980 l 1,4,-1
 577 1160 l 1,5,-1
 717 1160 l 1,6,-1
 592 950 l 1,7,-1
 517 950 l 1,8,-1
 624 770 l 1,9,-1
 494 770 l 1,10,-1
 404 930 l 1,11,-1
 402 930 l 1,0,-1
596 694.5 m 128,-1,13
 678 649 678 649 722 564 c 128,-1,14
 766 479 766 479 766 365 c 256,15,16
 766 251 766 251 722 166 c 128,-1,17
 678 81 678 81 596 35.5 c 128,-1,18
 514 -10 514 -10 403 -10 c 256,19,20
 292 -10 292 -10 210 35.5 c 128,-1,21
 128 81 128 81 84 166 c 128,-1,22
 40 251 40 251 40 365 c 256,23,24
 40 479 40 479 84 564 c 128,-1,25
 128 649 128 649 210 694.5 c 128,-1,26
 292 740 292 740 403 740 c 256,27,12
 514 740 514 740 596 694.5 c 128,-1,13
586.5 163 m 128,-1,29
 653 236 653 236 653 365 c 256,30,31
 653 494 653 494 586.5 567 c 128,-1,32
 520 640 520 640 403 640 c 256,33,34
 286 640 286 640 219.5 567 c 128,-1,35
 153 494 153 494 153 365 c 256,36,37
 153 236 153 236 219.5 163 c 128,-1,38
 286 90 286 90 403 90 c 256,39,28
 520 90 520 90 586.5 163 c 128,-1,29
EndSplineSet
EndChar

StartChar: uni1ED2
Encoding: 7890 7890 113
Width: 806
GlyphClass: 2
Flags: W
AnchorPoint: "Anchor-7" 594 690 basechar 0
AnchorPoint: "Anchor-6" 403 730 basechar 0
AnchorPoint: "Anchor-5" 463 0 basechar 0
AnchorPoint: "Anchor-4" 403 0 basechar 0
LayerCount: 2
Fore
SplineSet
288 950 m 1,0,-1
 214 950 l 1,1,-1
 89 1160 l 1,2,-1
 229 1160 l 1,3,-1
 310 980 l 1,4,-1
 499 980 l 1,5,-1
 624 770 l 1,6,-1
 494 770 l 1,7,-1
 404 930 l 1,8,-1
 402 930 l 1,9,-1
 312 770 l 1,10,-1
 182 770 l 1,11,-1
 288 950 l 1,0,-1
596 694.5 m 128,-1,13
 678 649 678 649 722 564 c 128,-1,14
 766 479 766 479 766 365 c 256,15,16
 766 251 766 251 722 166 c 128,-1,17
 678 81 678 81 596 35.5 c 128,-1,18
 514 -10 514 -10 403 -10 c 256,19,20
 292 -10 292 -10 210 35.5 c 128,-1,21
 128 81 128 81 84 166 c 128,-1,22
 40 251 40 251 40 365 c 256,23,24
 40 479 40 479 84 564 c 128,-1,25
 128 649 128 649 210 694.5 c 128,-1,26
 292 740 292 740 403 740 c 256,27,12
 514 740 514 740 596 694.5 c 128,-1,13
586.5 163 m 128,-1,29
 653 236 653 236 653 365 c 256,30,31
 653 494 653 494 586.5 567 c 128,-1,32
 520 640 520 640 403 640 c 256,33,34
 286 640 286 640 219.5 567 c 128,-1,35
 153 494 153 494 153 365 c 256,36,37
 153 236 153 236 219.5 163 c 128,-1,38
 286 90 286 90 403 90 c 256,39,28
 520 90 520 90 586.5 163 c 128,-1,29
EndSplineSet
EndChar

StartChar: uni1ED4
Encoding: 7892 7892 114
Width: 806
GlyphClass: 2
Flags: W
AnchorPoint: "Anchor-7" 594 690 basechar 0
AnchorPoint: "Anchor-6" 453 1138 basechar 0
AnchorPoint: "Anchor-5" 463 0 basechar 0
AnchorPoint: "Anchor-4" 403 0 basechar 0
LayerCount: 2
Fore
SplineSet
491 980 m 1,0,1
 495 1006 495 1006 495 1014 c 0,2,3
 495 1036 495 1036 480.5 1043.5 c 128,-1,4
 466 1051 466 1051 427 1051 c 0,5,6
 363 1051 363 1051 303 1033 c 1,7,-1
 293 1120 l 1,8,9
 368 1138 368 1138 453 1138 c 0,10,11
 515 1138 515 1138 549 1130.5 c 128,-1,12
 583 1123 583 1123 597.5 1105.5 c 128,-1,13
 612 1088 612 1088 612 1055 c 0,14,15
 612 1031 612 1031 606.5 1001 c 128,-1,16
 601 971 601 971 592 948 c 1,17,-1
 518 948 l 1,18,-1
 624 770 l 1,19,-1
 494 770 l 1,20,-1
 404 930 l 1,21,-1
 402 930 l 1,22,-1
 312 770 l 1,23,-1
 182 770 l 1,24,-1
 306 980 l 1,25,-1
 491 980 l 1,0,1
596 694.5 m 128,-1,27
 678 649 678 649 722 564 c 128,-1,28
 766 479 766 479 766 365 c 256,29,30
 766 251 766 251 722 166 c 128,-1,31
 678 81 678 81 596 35.5 c 128,-1,32
 514 -10 514 -10 403 -10 c 256,33,34
 292 -10 292 -10 210 35.5 c 128,-1,35
 128 81 128 81 84 166 c 128,-1,36
 40 251 40 251 40 365 c 256,37,38
 40 479 40 479 84 564 c 128,-1,39
 128 649 128 649 210 694.5 c 128,-1,40
 292 740 292 740 403 740 c 256,41,26
 514 740 514 740 596 694.5 c 128,-1,27
586.5 163 m 128,-1,43
 653 236 653 236 653 365 c 256,44,45
 653 494 653 494 586.5 567 c 128,-1,46
 520 640 520 640 403 640 c 256,47,48
 286 640 286 640 219.5 567 c 128,-1,49
 153 494 153 494 153 365 c 256,50,51
 153 236 153 236 219.5 163 c 128,-1,52
 286 90 286 90 403 90 c 256,53,42
 520 90 520 90 586.5 163 c 128,-1,43
EndSplineSet
EndChar

StartChar: Ohorn
Encoding: 416 416 123
Width: 826
GlyphClass: 2
Flags: W
AnchorPoint: "Anchor-7" 832 840 basechar 0
AnchorPoint: "Anchor-6" 403 730 basechar 0
AnchorPoint: "Anchor-5" 463 0 basechar 0
AnchorPoint: "Anchor-4" 403 0 basechar 0
LayerCount: 2
Fore
SplineSet
786 624 m 128,-1,1
 761 587 761 587 714 578 c 1,2,3
 766 489 766 489 766 365 c 0,4,5
 766 251 766 251 722 166 c 128,-1,6
 678 81 678 81 596 35.5 c 128,-1,7
 514 -10 514 -10 403 -10 c 256,8,9
 292 -10 292 -10 210 35.5 c 128,-1,10
 128 81 128 81 84 166 c 128,-1,11
 40 251 40 251 40 365 c 256,12,13
 40 479 40 479 84 564 c 128,-1,14
 128 649 128 649 210 694.5 c 128,-1,15
 292 740 292 740 403 740 c 0,16,17
 542 740 542 740 635 669 c 0,18,19
 638 668 638 668 644 668 c 0,20,21
 670 668 670 668 684.5 685.5 c 128,-1,22
 699 703 699 703 699 734 c 0,23,24
 699 757 699 757 692.5 789 c 128,-1,25
 686 821 686 821 678 840 c 1,26,-1
 791 840 l 1,27,28
 811 778 811 778 811 720 c 0,29,0
 811 661 811 661 786 624 c 128,-1,1
586.5 163 m 128,-1,31
 653 236 653 236 653 365 c 256,32,33
 653 494 653 494 586.5 567 c 128,-1,34
 520 640 520 640 403 640 c 256,35,36
 286 640 286 640 219.5 567 c 128,-1,37
 153 494 153 494 153 365 c 256,38,39
 153 236 153 236 219.5 163 c 128,-1,40
 286 90 286 90 403 90 c 256,41,30
 520 90 520 90 586.5 163 c 128,-1,31
EndSplineSet
EndChar

StartChar: uni01EA
Encoding: 490 490 132
Width: 806
GlyphClass: 2
Flags: W
AnchorPoint: "Anchor-7" 594 690 basechar 0
AnchorPoint: "Anchor-6" 403 730 basechar 0
AnchorPoint: "Anchor-5" 463 0 basechar 0
AnchorPoint: "Anchor-4" 403 0 basechar 0
LayerCount: 2
Fore
SplineSet
397 -52 m 128,-1,1
 378 -74 378 -74 378 -93 c 0,2,3
 378 -111 378 -111 395.5 -120.5 c 128,-1,4
 413 -130 413 -130 446 -130 c 0,5,6
 494 -130 494 -130 535 -111 c 1,7,-1
 552 -196 l 1,8,9
 501 -217 501 -217 437 -217 c 0,10,11
 360 -217 360 -217 318 -189.5 c 128,-1,12
 276 -162 276 -162 276 -112 c 0,13,14
 276 -55 276 -55 330 -4 c 1,15,16
 195 17 195 17 117.5 115 c 128,-1,17
 40 213 40 213 40 365 c 0,18,19
 40 479 40 479 84 564 c 128,-1,20
 128 649 128 649 210 694.5 c 128,-1,21
 292 740 292 740 403 740 c 256,22,23
 514 740 514 740 596 694.5 c 128,-1,24
 678 649 678 649 722 564 c 128,-1,25
 766 479 766 479 766 365 c 0,26,27
 766 259 766 259 728 178.5 c 128,-1,28
 690 98 690 98 619 50 c 128,-1,29
 548 2 548 2 451 -8 c 1,30,0
 416 -30 416 -30 397 -52 c 128,-1,1
219.5 163 m 128,-1,32
 286 90 286 90 403 90 c 256,33,34
 520 90 520 90 586.5 163 c 128,-1,35
 653 236 653 236 653 365 c 256,36,37
 653 494 653 494 586.5 567 c 128,-1,38
 520 640 520 640 403 640 c 256,39,40
 286 640 286 640 219.5 567 c 128,-1,41
 153 494 153 494 153 365 c 256,42,31
 153 236 153 236 219.5 163 c 128,-1,32
EndSplineSet
EndChar

StartChar: Oslash
Encoding: 216 216 133
Width: 806
GlyphClass: 2
Flags: W
AnchorPoint: "Anchor-7" 594 690 basechar 0
AnchorPoint: "Anchor-6" 403 730 basechar 0
AnchorPoint: "Anchor-5" 463 0 basechar 0
AnchorPoint: "Anchor-4" 403 0 basechar 0
LayerCount: 2
Fore
SplineSet
740.5 522 m 128,-1,1
 766 452 766 452 766 365 c 0,2,3
 766 251 766 251 722 166 c 128,-1,4
 678 81 678 81 596 35.5 c 128,-1,5
 514 -10 514 -10 403 -10 c 0,6,7
 296 -10 296 -10 212 35 c 1,8,-1
 159 -37 l 1,9,-1
 87 17 l 1,10,-1
 140 89 l 1,11,12
 91 138 91 138 65.5 208 c 128,-1,13
 40 278 40 278 40 365 c 0,14,15
 40 479 40 479 84 564 c 128,-1,16
 128 649 128 649 210 694.5 c 128,-1,17
 292 740 292 740 403 740 c 0,18,19
 510 740 510 740 594 695 c 1,20,-1
 647 767 l 1,21,-1
 719 713 l 1,22,-1
 666 641 l 1,23,0
 715 592 715 592 740.5 522 c 128,-1,1
207 178 m 1,25,-1
 530 611 l 1,26,27
 477 640 477 640 403 640 c 0,28,29
 286 640 286 640 219.5 567 c 128,-1,30
 153 494 153 494 153 365 c 0,31,24
 153 249 153 249 207 178 c 1,25,-1
586.5 163 m 128,-1,33
 653 236 653 236 653 365 c 0,34,35
 653 481 653 481 599 552 c 1,36,-1
 276 119 l 1,37,38
 329 90 329 90 403 90 c 0,39,32
 520 90 520 90 586.5 163 c 128,-1,33
EndSplineSet
EndChar

StartChar: OE
Encoding: 338 338 137
Width: 1018
GlyphClass: 2
Flags: W
AnchorPoint: "Anchor-6" 729 730 basechar 0
AnchorPoint: "Anchor-5" 954 0 basechar 0
AnchorPoint: "Anchor-4" 729 0 basechar 0
LayerCount: 2
Fore
SplineSet
609 632 m 1,0,-1
 609 430 l 1,1,-1
 934 430 l 1,2,-1
 934 335 l 1,3,-1
 609 335 l 1,4,-1
 609 98 l 1,5,-1
 954 98 l 1,6,-1
 954 0 l 1,7,-1
 500 0 l 1,8,9
 457 -10 457 -10 403 -10 c 0,10,11
 292 -10 292 -10 210 35.5 c 128,-1,12
 128 81 128 81 84 166 c 128,-1,13
 40 251 40 251 40 365 c 256,14,15
 40 479 40 479 84 564 c 128,-1,16
 128 649 128 649 210 694.5 c 128,-1,17
 292 740 292 740 403 740 c 0,18,19
 457 740 457 740 500 730 c 1,20,-1
 954 730 l 1,21,-1
 954 632 l 1,22,-1
 609 632 l 1,0,-1
219.5 163 m 128,-1,24
 286 90 286 90 403 90 c 0,25,26
 457 90 457 90 499 106 c 1,27,-1
 499 624 l 1,28,29
 457 640 457 640 403 640 c 0,30,31
 286 640 286 640 219.5 567 c 128,-1,32
 153 494 153 494 153 365 c 256,33,23
 153 236 153 236 219.5 163 c 128,-1,24
EndSplineSet
EndChar

StartChar: P
Encoding: 80 80 138
Width: 613
Flags: W
LayerCount: 2
Fore
SplineSet
508 673 m 128,-1,1
 585 616 585 616 585 497 c 0,2,3
 585 379 585 379 512 321.5 c 128,-1,4
 439 264 439 264 290 264 c 2,5,-1
 190 264 l 1,6,-1
 190 0 l 1,7,-1
 80 0 l 1,8,-1
 80 730 l 1,9,-1
 270 730 l 2,10,0
 431 730 431 730 508 673 c 128,-1,1
425.5 394 m 128,-1,12
 473 426 473 426 473 496 c 256,13,14
 473 566 473 566 425.5 598 c 128,-1,15
 378 630 378 630 275 630 c 2,16,-1
 190 630 l 1,17,-1
 190 362 l 1,18,-1
 275 362 l 2,19,11
 378 362 378 362 425.5 394 c 128,-1,12
EndSplineSet
EndChar

StartChar: Thorn
Encoding: 222 222 139
Width: 613
Flags: W
LayerCount: 2
Fore
SplineSet
508 551 m 128,-1,1
 585 494 585 494 585 375 c 0,2,3
 585 257 585 257 512 199.5 c 128,-1,4
 439 142 439 142 290 142 c 2,5,-1
 190 142 l 1,6,-1
 190 0 l 1,7,-1
 80 0 l 1,8,-1
 80 730 l 1,9,-1
 190 730 l 1,10,-1
 190 608 l 1,11,-1
 270 608 l 2,12,0
 431 608 431 608 508 551 c 128,-1,1
425.5 272 m 128,-1,14
 473 304 473 304 473 374 c 256,15,16
 473 444 473 444 425.5 476 c 128,-1,17
 378 508 378 508 275 508 c 2,18,-1
 190 508 l 1,19,-1
 190 240 l 1,20,-1
 275 240 l 2,21,13
 378 240 378 240 425.5 272 c 128,-1,14
EndSplineSet
EndChar

StartChar: Q
Encoding: 81 81 140
Width: 809
Flags: W
LayerCount: 2
Fore
SplineSet
780 -71 m 1,1,-1
 693 -133 l 1,2,3
 647 -74 647 -74 571.5 -42 c 128,-1,4
 496 -10 496 -10 403 -10 c 0,5,6
 292 -10 292 -10 210 35.5 c 128,-1,7
 128 81 128 81 84 166 c 128,-1,8
 40 251 40 251 40 365 c 256,9,10
 40 479 40 479 84 564 c 128,-1,11
 128 649 128 649 210 694.5 c 128,-1,12
 292 740 292 740 403 740 c 256,13,14
 514 740 514 740 596 694.5 c 128,-1,15
 678 649 678 649 722 564 c 128,-1,16
 766 479 766 479 766 365 c 0,17,18
 766 252 766 252 720 169 c 128,-1,19
 674 86 674 86 590 42 c 1,20,0
 711 4 711 4 780 -71 c 1,1,-1
219.5 163 m 128,-1,22
 286 90 286 90 403 90 c 256,23,24
 520 90 520 90 586.5 163 c 128,-1,25
 653 236 653 236 653 365 c 256,26,27
 653 494 653 494 586.5 567 c 128,-1,28
 520 640 520 640 403 640 c 256,29,30
 286 640 286 640 219.5 567 c 128,-1,31
 153 494 153 494 153 365 c 256,32,21
 153 236 153 236 219.5 163 c 128,-1,22
EndSplineSet
EndChar

StartChar: R
Encoding: 82 82 141
Width: 642
GlyphClass: 2
Flags: W
AnchorPoint: "Anchor-6" 310 730 basechar 0
AnchorPoint: "Anchor-4" 310 0 basechar 0
LayerCount: 2
Fore
SplineSet
245 302 m 1,0,-1
 190 302 l 1,1,-1
 190 0 l 1,2,-1
 80 0 l 1,3,-1
 80 730 l 1,4,-1
 280 730 l 2,5,6
 438 730 438 730 511.5 678.5 c 128,-1,7
 585 627 585 627 585 518 c 0,8,9
 585 423 585 423 532 370.5 c 128,-1,10
 479 318 479 318 371 306 c 1,11,-1
 610 0 l 1,12,-1
 480 0 l 1,13,-1
 245 302 l 1,0,-1
190 398 m 1,14,-1
 285 398 l 2,15,16
 384 398 384 398 428.5 425 c 128,-1,17
 473 452 473 452 473 513 c 0,18,19
 473 575 473 575 428.5 602.5 c 128,-1,20
 384 630 384 630 285 630 c 2,21,-1
 190 630 l 1,22,-1
 190 398 l 1,14,-1
EndSplineSet
EndChar

StartChar: S
Encoding: 83 83 147
Width: 616
GlyphClass: 2
Flags: W
AnchorPoint: "Anchor-6" 306 730 basechar 0
AnchorPoint: "Anchor-4" 306 0 basechar 0
LayerCount: 2
Fore
SplineSet
163 5.5 m 128,-1,1
 100 21 100 21 52 51 c 1,2,-1
 90 145 l 1,3,4
 136 119 136 119 190.5 104.5 c 128,-1,5
 245 90 245 90 298 90 c 0,6,7
 371 90 371 90 410.5 117.5 c 128,-1,8
 450 145 450 145 450 197 c 0,9,10
 450 232 450 232 431.5 254 c 128,-1,11
 413 276 413 276 383 289 c 128,-1,12
 353 302 353 302 300 319 c 0,13,14
 216 345 216 345 164 373 c 128,-1,15
 112 401 112 401 83.5 442 c 128,-1,16
 55 483 55 483 55 543 c 0,17,18
 55 637 55 637 122 688.5 c 128,-1,19
 189 740 189 740 313 740 c 0,20,21
 376 740 376 740 440 726.5 c 128,-1,22
 504 713 504 713 547 691 c 1,23,-1
 509 597 l 1,24,25
 471 617 471 617 419 628.5 c 128,-1,26
 367 640 367 640 318 640 c 0,27,28
 246 640 246 640 207.5 615.5 c 128,-1,29
 169 591 169 591 169 543 c 0,30,31
 169 511 169 511 187 490 c 128,-1,32
 205 469 205 469 235.5 455.5 c 128,-1,33
 266 442 266 442 318 426 c 0,34,35
 402 398 402 398 454 370 c 128,-1,36
 506 342 506 342 535 300.5 c 128,-1,37
 564 259 564 259 564 197 c 0,38,39
 565 99 565 99 495 44.5 c 128,-1,40
 425 -10 425 -10 298 -10 c 0,41,0
 226 -10 226 -10 163 5.5 c 128,-1,1
EndSplineSet
EndChar

StartChar: Scedilla
Encoding: 350 350 150
Width: 616
GlyphClass: 2
Flags: W
AnchorPoint: "Anchor-6" 306 730 basechar 0
AnchorPoint: "Anchor-4" 306 0 basechar 0
LayerCount: 2
Fore
SplineSet
519.5 67.5 m 128,-1,1
 474 16 474 16 390 -1 c 1,2,3
 448 -53 448 -53 448 -112 c 0,4,5
 448 -162 448 -162 406 -189.5 c 128,-1,6
 364 -217 364 -217 287 -217 c 0,7,8
 223 -217 223 -217 172 -196 c 1,9,-1
 189 -111 l 1,10,11
 230 -130 230 -130 278 -130 c 0,12,13
 311 -130 311 -130 328.5 -120.5 c 128,-1,14
 346 -111 346 -111 346 -93 c 256,15,16
 346 -75 346 -75 328 -53.5 c 128,-1,17
 310 -32 310 -32 276 -10 c 1,18,19
 211 -8 211 -8 153.5 7.5 c 128,-1,20
 96 23 96 23 52 51 c 1,21,-1
 90 145 l 1,22,23
 136 119 136 119 190.5 104.5 c 128,-1,24
 245 90 245 90 298 90 c 0,25,26
 371 90 371 90 410.5 117.5 c 128,-1,27
 450 145 450 145 450 197 c 0,28,29
 450 232 450 232 431.5 254 c 128,-1,30
 413 276 413 276 383 289 c 128,-1,31
 353 302 353 302 300 319 c 0,32,33
 216 345 216 345 164 373 c 128,-1,34
 112 401 112 401 83.5 442 c 128,-1,35
 55 483 55 483 55 543 c 0,36,37
 55 637 55 637 122 688.5 c 128,-1,38
 189 740 189 740 313 740 c 0,39,40
 376 740 376 740 440 726.5 c 128,-1,41
 504 713 504 713 547 691 c 1,42,-1
 509 597 l 1,43,44
 471 617 471 617 419 628.5 c 128,-1,45
 367 640 367 640 318 640 c 0,46,47
 246 640 246 640 207.5 615.5 c 128,-1,48
 169 591 169 591 169 543 c 0,49,50
 169 511 169 511 187 490 c 128,-1,51
 205 469 205 469 235.5 455.5 c 128,-1,52
 266 442 266 442 318 426 c 0,53,54
 402 398 402 398 454 370 c 128,-1,55
 506 342 506 342 535 300.5 c 128,-1,56
 564 259 564 259 564 197 c 0,57,0
 565 119 565 119 519.5 67.5 c 128,-1,1
EndSplineSet
Substitution2: "'locl' Localized Forms in Latin lookup 4 subtable" uni0218
Substitution2: "'aalt' Access All Alternates in Latin lookup 0 subtable" uni0218
EndChar

StartChar: uni1E9E
Encoding: 7838 7838 153
Width: 680
Flags: W
LayerCount: 2
Fore
SplineSet
278 11 m 1,1,-1
 294 108 l 1,2,3
 347 90 347 90 396 90 c 0,4,5
 466 90 466 90 504.5 117.5 c 128,-1,6
 543 145 543 145 543 195 c 0,7,8
 543 249 543 249 500 274.5 c 128,-1,9
 457 300 457 300 365 300 c 2,10,-1
 355 300 l 1,11,-1
 355 400 l 1,12,-1
 472 561 l 1,13,14
 470 600 470 600 436 620 c 128,-1,15
 402 640 402 640 337 640 c 0,16,17
 257 640 257 640 223.5 608.5 c 128,-1,18
 190 577 190 577 190 503 c 2,19,-1
 190 0 l 1,20,-1
 80 0 l 1,21,-1
 80 503 l 2,22,23
 80 622 80 622 143.5 681 c 128,-1,24
 207 740 207 740 337 740 c 0,25,26
 582 740 582 740 582 533 c 1,27,-1
 474 385 l 1,28,-1
 474 383 l 1,29,30
 562 376 562 376 608.5 327.5 c 128,-1,31
 655 279 655 279 655 195 c 0,32,33
 655 96 655 96 592 43 c 128,-1,34
 529 -10 529 -10 411 -10 c 0,35,0
 343 -10 343 -10 278 11 c 1,1,-1
EndSplineSet
EndChar

StartChar: uni018F
Encoding: 399 399 154
Width: 758
Flags: W
LayerCount: 2
Fore
SplineSet
618.5 643 m 128,-1,1
 718 546 718 546 718 365 c 0,2,3
 718 248 718 248 677 163.5 c 128,-1,4
 636 79 636 79 559 34.5 c 128,-1,5
 482 -10 482 -10 375 -10 c 0,6,7
 270 -10 270 -10 194 33.5 c 128,-1,8
 118 77 118 77 78 160 c 128,-1,9
 38 243 38 243 38 358 c 0,10,11
 38 398 38 398 41 413 c 1,12,-1
 608 413 l 1,13,14
 603 527 603 527 537 583.5 c 128,-1,15
 471 640 471 640 340 640 c 0,16,17
 215 640 215 640 101 593 c 1,18,-1
 79 688 l 1,19,20
 131 712 131 712 198 726 c 128,-1,21
 265 740 265 740 333 740 c 0,22,0
 519 740 519 740 618.5 643 c 128,-1,1
540 146.5 m 128,-1,24
 598 203 598 203 606 314 c 1,25,-1
 150 314 l 1,26,27
 158 203 158 203 216 146.5 c 128,-1,28
 274 90 274 90 378 90 c 256,29,23
 482 90 482 90 540 146.5 c 128,-1,24
EndSplineSet
EndChar

StartChar: T
Encoding: 84 84 155
Width: 635
GlyphClass: 2
Flags: W
AnchorPoint: "Anchor-8" 261 0 basechar 0
AnchorPoint: "Anchor-6" 318 730 basechar 0
AnchorPoint: "Anchor-4" 318 0 basechar 0
LayerCount: 2
Fore
SplineSet
261 630 m 1,0,-1
 28 630 l 1,1,-1
 28 730 l 1,2,-1
 607 730 l 1,3,-1
 607 630 l 1,4,-1
 374 630 l 1,5,-1
 374 0 l 1,6,-1
 261 0 l 1,7,-1
 261 630 l 1,0,-1
EndSplineSet
EndChar

StartChar: Tbar
Encoding: 358 358 156
Width: 691
GlyphClass: 2
Flags: W
AnchorPoint: "Anchor-8" 289 0 basechar 0
AnchorPoint: "Anchor-6" 346 730 basechar 0
AnchorPoint: "Anchor-4" 346 0 basechar 0
LayerCount: 2
Fore
SplineSet
635 630 m 1,0,-1
 402 630 l 1,1,-1
 402 360 l 1,2,-1
 576 360 l 1,3,-1
 576 270 l 1,4,-1
 402 270 l 1,5,-1
 402 0 l 1,6,-1
 289 0 l 1,7,-1
 289 270 l 1,8,-1
 116 270 l 1,9,-1
 116 360 l 1,10,-1
 289 360 l 1,11,-1
 289 630 l 1,12,-1
 56 630 l 1,13,-1
 56 730 l 1,14,-1
 635 730 l 1,15,-1
 635 630 l 1,0,-1
EndSplineSet
EndChar

StartChar: uni0162
Encoding: 354 354 158
Width: 635
GlyphClass: 2
Flags: W
AnchorPoint: "Anchor-8" 261 0 basechar 0
AnchorPoint: "Anchor-6" 318 730 basechar 0
AnchorPoint: "Anchor-4" 318 0 basechar 0
LayerCount: 2
Fore
SplineSet
374 630 m 1,0,-1
 374 13 l 1,1,2
 448 -46 448 -46 448 -112 c 0,3,4
 448 -162 448 -162 406 -189.5 c 128,-1,5
 364 -217 364 -217 287 -217 c 0,6,7
 223 -217 223 -217 172 -196 c 1,8,-1
 189 -111 l 1,9,10
 230 -130 230 -130 278 -130 c 0,11,12
 311 -130 311 -130 328.5 -120.5 c 128,-1,13
 346 -111 346 -111 346 -93 c 0,14,15
 346 -73 346 -73 323.5 -48.5 c 128,-1,16
 301 -24 301 -24 261 0 c 1,17,-1
 261 630 l 1,18,-1
 28 630 l 1,19,-1
 28 730 l 1,20,-1
 607 730 l 1,21,-1
 607 630 l 1,22,-1
 374 630 l 1,0,-1
EndSplineSet
Substitution2: "'locl' Localized Forms in Latin lookup 4 subtable" uni021A
Substitution2: "'aalt' Access All Alternates in Latin lookup 0 subtable" uni021A
EndChar

StartChar: U
Encoding: 85 85 160
Width: 704
GlyphClass: 2
Flags: W
AnchorPoint: "Anchor-7" 617 690 basechar 0
AnchorPoint: "Anchor-6" 352 730 basechar 0
AnchorPoint: "Anchor-5" 478 10 basechar 0
AnchorPoint: "Anchor-4" 352 0 basechar 0
LayerCount: 2
Fore
SplineSet
143.5 61.5 m 128,-1,1
 72 133 72 133 72 270 c 2,2,-1
 72 730 l 1,3,-1
 182 730 l 1,4,-1
 182 283 l 2,5,6
 182 183 182 183 222.5 136.5 c 128,-1,7
 263 90 263 90 352 90 c 256,8,9
 441 90 441 90 481.5 136.5 c 128,-1,10
 522 183 522 183 522 283 c 2,11,-1
 522 730 l 1,12,-1
 632 730 l 1,13,-1
 632 270 l 2,14,15
 632 133 632 133 560.5 61.5 c 128,-1,16
 489 -10 489 -10 352 -10 c 256,17,0
 215 -10 215 -10 143.5 61.5 c 128,-1,1
EndSplineSet
EndChar

StartChar: Uhorn
Encoding: 431 431 169
Width: 804
GlyphClass: 2
Flags: W
AnchorPoint: "Anchor-7" 855 840 basechar 0
AnchorPoint: "Anchor-6" 352 730 basechar 0
AnchorPoint: "Anchor-5" 478 10 basechar 0
AnchorPoint: "Anchor-4" 352 0 basechar 0
LayerCount: 2
Fore
SplineSet
834 720 m 0,1,2
 834 652 834 652 800.5 613.5 c 128,-1,3
 767 575 767 575 706 575 c 0,4,5
 671 575 671 575 632 589 c 1,6,-1
 632 270 l 2,7,8
 632 133 632 133 560.5 61.5 c 128,-1,9
 489 -10 489 -10 352 -10 c 256,10,11
 215 -10 215 -10 143.5 61.5 c 128,-1,12
 72 133 72 133 72 270 c 2,13,-1
 72 730 l 1,14,-1
 182 730 l 1,15,-1
 182 283 l 2,16,17
 182 183 182 183 222.5 136.5 c 128,-1,18
 263 90 263 90 352 90 c 256,19,20
 441 90 441 90 481.5 136.5 c 128,-1,21
 522 183 522 183 522 283 c 2,22,-1
 522 730 l 1,23,-1
 632 730 l 1,24,-1
 632 677 l 1,25,26
 647 668 647 668 667 668 c 0,27,28
 693 668 693 668 707.5 685.5 c 128,-1,29
 722 703 722 703 722 734 c 0,30,31
 722 757 722 757 715.5 789 c 128,-1,32
 709 821 709 821 701 840 c 1,33,-1
 814 840 l 1,34,0
 834 778 834 778 834 720 c 0,1,2
EndSplineSet
EndChar

StartChar: Uogonek
Encoding: 370 370 178
Width: 704
GlyphClass: 2
Flags: W
AnchorPoint: "Anchor-7" 617 690 basechar 0
AnchorPoint: "Anchor-6" 352 730 basechar 0
AnchorPoint: "Anchor-5" 478 10 basechar 0
AnchorPoint: "Anchor-4" 352 0 basechar 0
LayerCount: 2
Fore
SplineSet
415 -38.5 m 128,-1,1
 393 -63 393 -63 393 -83 c 0,2,3
 393 -101 393 -101 410.5 -110.5 c 128,-1,4
 428 -120 428 -120 461 -120 c 0,5,6
 509 -120 509 -120 550 -101 c 1,7,-1
 567 -186 l 1,8,9
 516 -207 516 -207 452 -207 c 0,10,11
 375 -207 375 -207 333 -179.5 c 128,-1,12
 291 -152 291 -152 291 -102 c 0,13,14
 291 -54 291 -54 330 -10 c 1,15,16
 203 -4 203 -4 137.5 67 c 128,-1,17
 72 138 72 138 72 270 c 2,18,-1
 72 730 l 1,19,-1
 182 730 l 1,20,-1
 182 283 l 2,21,22
 182 183 182 183 222.5 136.5 c 128,-1,23
 263 90 263 90 352 90 c 256,24,25
 441 90 441 90 481.5 136.5 c 128,-1,26
 522 183 522 183 522 283 c 2,27,-1
 522 730 l 1,28,-1
 632 730 l 1,29,-1
 632 270 l 2,30,31
 632 169 632 169 593 103 c 128,-1,32
 554 37 554 37 477 9 c 1,33,0
 437 -14 437 -14 415 -38.5 c 128,-1,1
EndSplineSet
EndChar

StartChar: V
Encoding: 86 86 181
Width: 674
Flags: W
LayerCount: 2
Fore
SplineSet
12 730 m 1,0,-1
 133 730 l 1,1,-1
 336 110 l 1,2,-1
 338 110 l 1,3,-1
 541 730 l 1,4,-1
 662 730 l 1,5,-1
 410 0 l 1,6,-1
 265 0 l 1,7,-1
 12 730 l 1,0,-1
EndSplineSet
EndChar

StartChar: W
Encoding: 87 87 182
Width: 931
GlyphClass: 2
Flags: W
AnchorPoint: "Anchor-6" 465 730 basechar 0
AnchorPoint: "Anchor-4" 465 0 basechar 0
LayerCount: 2
Fore
SplineSet
139 730 m 1,0,-1
 268 120 l 1,1,-1
 270 120 l 1,2,-1
 399 730 l 1,3,-1
 539 730 l 1,4,-1
 668 120 l 1,5,-1
 670 120 l 1,6,-1
 799 730 l 1,7,-1
 907 730 l 1,8,-1
 732 0 l 1,9,-1
 597 0 l 1,10,-1
 468 610 l 1,11,-1
 466 610 l 1,12,-1
 337 0 l 1,13,-1
 202 0 l 1,14,-1
 27 730 l 1,15,-1
 139 730 l 1,0,-1
EndSplineSet
EndChar

StartChar: X
Encoding: 88 88 187
Width: 688
Flags: W
LayerCount: 2
Fore
SplineSet
263 367 m 1,0,-1
 47 730 l 1,1,-1
 172 730 l 1,2,-1
 343 431 l 1,3,-1
 345 431 l 1,4,-1
 516 730 l 1,5,-1
 641 730 l 1,6,-1
 425 367 l 1,7,-1
 644 0 l 1,8,-1
 519 0 l 1,9,-1
 345 304 l 1,10,-1
 343 304 l 1,11,-1
 169 0 l 1,12,-1
 44 0 l 1,13,-1
 263 367 l 1,0,-1
EndSplineSet
EndChar

StartChar: Y
Encoding: 89 89 188
Width: 654
GlyphClass: 2
Flags: W
AnchorPoint: "Anchor-6" 327 730 basechar 0
AnchorPoint: "Anchor-4" 327 0 basechar 0
LayerCount: 2
Fore
SplineSet
270 294 m 1,0,-1
 7 730 l 1,1,-1
 133 730 l 1,2,-1
 326 396 l 1,3,-1
 328 396 l 1,4,-1
 521 730 l 1,5,-1
 647 730 l 1,6,-1
 384 294 l 1,7,-1
 384 0 l 1,8,-1
 270 0 l 1,9,-1
 270 294 l 1,0,-1
EndSplineSet
EndChar

StartChar: Z
Encoding: 90 90 197
Width: 638
GlyphClass: 2
Flags: W
AnchorPoint: "Anchor-6" 319 730 basechar 0
AnchorPoint: "Anchor-4" 319 0 basechar 0
LayerCount: 2
Fore
SplineSet
64 100 m 1,0,-1
 439 628 l 1,1,-1
 439 630 l 1,2,-1
 64 630 l 1,3,-1
 64 730 l 1,4,-1
 574 730 l 1,5,-1
 574 630 l 1,6,-1
 199 102 l 1,7,-1
 199 100 l 1,8,-1
 574 100 l 1,9,-1
 574 0 l 1,10,-1
 64 0 l 1,11,-1
 64 100 l 1,0,-1
EndSplineSet
EndChar

StartChar: a
Encoding: 97 97 201
Width: 547
GlyphClass: 2
Flags: W
AnchorPoint: "Anchor-6" 260 520 basechar 0
AnchorPoint: "Anchor-5" 482 0 basechar 0
AnchorPoint: "Anchor-4" 260 0 basechar 0
LayerCount: 2
Fore
SplineSet
396 509.5 m 128,-1,1
 441 489 441 489 461.5 444.5 c 128,-1,2
 482 400 482 400 482 325 c 2,3,-1
 482 0 l 1,4,-1
 379 0 l 1,5,-1
 378 69 l 1,6,-1
 376 69 l 1,7,8
 348 32 348 32 301.5 11 c 128,-1,9
 255 -10 255 -10 199 -10 c 0,10,11
 120 -10 120 -10 74.5 32 c 128,-1,12
 29 74 29 74 29 145 c 0,13,14
 29 238 29 238 108 288 c 128,-1,15
 187 338 187 338 333 338 c 2,16,-1
 374 338 l 1,17,18
 373 397 373 397 350 418.5 c 128,-1,19
 327 440 327 440 267 440 c 0,20,21
 167 440 167 440 75 397 c 1,22,-1
 47 481 l 1,23,24
 148 530 148 530 275 530 c 0,25,0
 351 530 351 530 396 509.5 c 128,-1,1
298 95.5 m 128,-1,27
 332 113 332 113 353 142 c 128,-1,28
 374 171 374 171 374 203 c 2,29,-1
 374 253 l 1,30,-1
 333 253 l 2,31,32
 237 253 237 253 187 227.5 c 128,-1,33
 137 202 137 202 137 154 c 0,34,35
 137 120 137 120 161.5 99 c 128,-1,36
 186 78 186 78 227 78 c 0,37,26
 264 78 264 78 298 95.5 c 128,-1,27
EndSplineSet
Substitution2: "Single Substitution lookup 21 subtable" ordfeminine
Substitution2: "'aalt' Access All Alternates in Latin lookup 0 subtable" ordfeminine
EndChar

StartChar: uni1EAF
Encoding: 7855 7855 204
Width: 547
GlyphClass: 2
Flags: W
AnchorPoint: "Anchor-6" 260 520 basechar 0
AnchorPoint: "Anchor-5" 482 0 basechar 0
AnchorPoint: "Anchor-4" 260 0 basechar 0
LayerCount: 2
Fore
SplineSet
157.5 594.5 m 128,-1,1
 112 616 112 616 85 655 c 128,-1,2
 58 694 58 694 55 743 c 1,3,-1
 166 743 l 1,4,-1
 255 940 l 1,5,-1
 395 940 l 1,6,-1
 270 730 l 1,7,-1
 174 730 l 1,8,9
 189 659 189 659 260 659 c 0,10,11
 298 659 298 659 320.5 680.5 c 128,-1,12
 343 702 343 702 348 743 c 1,13,-1
 465 743 l 1,14,15
 462 694 462 694 435 655 c 128,-1,16
 408 616 408 616 362.5 594.5 c 128,-1,17
 317 573 317 573 260 573 c 256,18,0
 203 573 203 573 157.5 594.5 c 128,-1,1
396 509.5 m 128,-1,20
 441 489 441 489 461.5 444.5 c 128,-1,21
 482 400 482 400 482 325 c 2,22,-1
 482 0 l 1,23,-1
 379 0 l 1,24,-1
 378 69 l 1,25,-1
 376 69 l 1,26,27
 348 32 348 32 301.5 11 c 128,-1,28
 255 -10 255 -10 199 -10 c 0,29,30
 120 -10 120 -10 74.5 32 c 128,-1,31
 29 74 29 74 29 145 c 0,32,33
 29 238 29 238 108 288 c 128,-1,34
 187 338 187 338 333 338 c 2,35,-1
 374 338 l 1,36,37
 373 397 373 397 350 418.5 c 128,-1,38
 327 440 327 440 267 440 c 0,39,40
 167 440 167 440 75 397 c 1,41,-1
 47 481 l 1,42,43
 148 530 148 530 275 530 c 0,44,19
 351 530 351 530 396 509.5 c 128,-1,20
298 95.5 m 128,-1,46
 332 113 332 113 353 142 c 128,-1,47
 374 171 374 171 374 203 c 2,48,-1
 374 253 l 1,49,-1
 333 253 l 2,50,51
 237 253 237 253 187 227.5 c 128,-1,52
 137 202 137 202 137 154 c 0,53,54
 137 120 137 120 161.5 99 c 128,-1,55
 186 78 186 78 227 78 c 0,56,45
 264 78 264 78 298 95.5 c 128,-1,46
EndSplineSet
EndChar

StartChar: uni1EB1
Encoding: 7857 7857 206
Width: 547
GlyphClass: 2
Flags: W
AnchorPoint: "Anchor-6" 260 520 basechar 0
AnchorPoint: "Anchor-5" 482 0 basechar 0
AnchorPoint: "Anchor-4" 260 0 basechar 0
LayerCount: 2
Fore
SplineSet
346 730 m 1,1,-1
 250 730 l 1,2,-1
 125 940 l 1,3,-1
 265 940 l 1,4,-1
 354 743 l 1,5,-1
 465 743 l 1,6,7
 462 694 462 694 435 655 c 128,-1,8
 408 616 408 616 362.5 594.5 c 128,-1,9
 317 573 317 573 260 573 c 256,10,11
 203 573 203 573 157.5 594.5 c 128,-1,12
 112 616 112 616 85 655 c 128,-1,13
 58 694 58 694 55 743 c 1,14,-1
 172 743 l 1,15,16
 177 702 177 702 199.5 680.5 c 128,-1,17
 222 659 222 659 260 659 c 0,18,0
 331 659 331 659 346 730 c 1,1,-1
396 509.5 m 128,-1,20
 441 489 441 489 461.5 444.5 c 128,-1,21
 482 400 482 400 482 325 c 2,22,-1
 482 0 l 1,23,-1
 379 0 l 1,24,-1
 378 69 l 1,25,-1
 376 69 l 1,26,27
 348 32 348 32 301.5 11 c 128,-1,28
 255 -10 255 -10 199 -10 c 0,29,30
 120 -10 120 -10 74.5 32 c 128,-1,31
 29 74 29 74 29 145 c 0,32,33
 29 238 29 238 108 288 c 128,-1,34
 187 338 187 338 333 338 c 2,35,-1
 374 338 l 1,36,37
 373 397 373 397 350 418.5 c 128,-1,38
 327 440 327 440 267 440 c 0,39,40
 167 440 167 440 75 397 c 1,41,-1
 47 481 l 1,42,43
 148 530 148 530 275 530 c 0,44,19
 351 530 351 530 396 509.5 c 128,-1,20
298 95.5 m 128,-1,46
 332 113 332 113 353 142 c 128,-1,47
 374 171 374 171 374 203 c 2,48,-1
 374 253 l 1,49,-1
 333 253 l 2,50,51
 237 253 237 253 187 227.5 c 128,-1,52
 137 202 137 202 137 154 c 0,53,54
 137 120 137 120 161.5 99 c 128,-1,55
 186 78 186 78 227 78 c 0,56,45
 264 78 264 78 298 95.5 c 128,-1,46
EndSplineSet
EndChar

StartChar: uni1EB3
Encoding: 7859 7859 207
Width: 547
GlyphClass: 2
Flags: W
AnchorPoint: "Anchor-6" 261 923 basechar 0
AnchorPoint: "Anchor-5" 482 0 basechar 0
AnchorPoint: "Anchor-4" 260 0 basechar 0
LayerCount: 2
Fore
SplineSet
346 733 m 1,1,-1
 290 733 l 1,2,3
 295 747 295 747 299 766.5 c 128,-1,4
 303 786 303 786 303 799 c 0,5,6
 303 821 303 821 288.5 828.5 c 128,-1,7
 274 836 274 836 235 836 c 0,8,9
 171 836 171 836 111 818 c 1,10,-1
 101 905 l 1,11,12
 176 923 176 923 261 923 c 0,13,14
 323 923 323 923 357 915.5 c 128,-1,15
 391 908 391 908 405.5 890.5 c 128,-1,16
 420 873 420 873 420 840 c 0,17,18
 420 819 420 819 415.5 792 c 128,-1,19
 411 765 411 765 404 743 c 1,20,-1
 465 743 l 1,21,22
 462 694 462 694 435 655 c 128,-1,23
 408 616 408 616 362.5 594.5 c 128,-1,24
 317 573 317 573 260 573 c 256,25,26
 203 573 203 573 157.5 594.5 c 128,-1,27
 112 616 112 616 85 655 c 128,-1,28
 58 694 58 694 55 743 c 1,29,-1
 172 743 l 1,30,31
 177 702 177 702 199.5 680.5 c 128,-1,32
 222 659 222 659 260 659 c 0,33,0
 332 659 332 659 346 733 c 1,1,-1
396 509.5 m 128,-1,35
 441 489 441 489 461.5 444.5 c 128,-1,36
 482 400 482 400 482 325 c 2,37,-1
 482 0 l 1,38,-1
 379 0 l 1,39,-1
 378 69 l 1,40,-1
 376 69 l 1,41,42
 348 32 348 32 301.5 11 c 128,-1,43
 255 -10 255 -10 199 -10 c 0,44,45
 120 -10 120 -10 74.5 32 c 128,-1,46
 29 74 29 74 29 145 c 0,47,48
 29 238 29 238 108 288 c 128,-1,49
 187 338 187 338 333 338 c 2,50,-1
 374 338 l 1,51,52
 373 397 373 397 350 418.5 c 128,-1,53
 327 440 327 440 267 440 c 0,54,55
 167 440 167 440 75 397 c 1,56,-1
 47 481 l 1,57,58
 148 530 148 530 275 530 c 0,59,34
 351 530 351 530 396 509.5 c 128,-1,35
298 95.5 m 128,-1,61
 332 113 332 113 353 142 c 128,-1,62
 374 171 374 171 374 203 c 2,63,-1
 374 253 l 1,64,-1
 333 253 l 2,65,66
 237 253 237 253 187 227.5 c 128,-1,67
 137 202 137 202 137 154 c 0,68,69
 137 120 137 120 161.5 99 c 128,-1,70
 186 78 186 78 227 78 c 0,71,60
 264 78 264 78 298 95.5 c 128,-1,61
EndSplineSet
EndChar

StartChar: uni1EA5
Encoding: 7845 7845 210
Width: 547
GlyphClass: 2
Flags: W
AnchorPoint: "Anchor-6" 260 520 basechar 0
AnchorPoint: "Anchor-5" 482 0 basechar 0
AnchorPoint: "Anchor-4" 260 0 basechar 0
LayerCount: 2
Fore
SplineSet
259 720 m 1,0,-1
 169 560 l 1,1,-1
 39 560 l 1,2,-1
 163 770 l 1,3,-1
 353 770 l 1,4,-1
 434 950 l 1,5,-1
 574 950 l 1,6,-1
 449 740 l 1,7,-1
 374 740 l 1,8,-1
 481 560 l 1,9,-1
 351 560 l 1,10,-1
 261 720 l 1,11,-1
 259 720 l 1,0,-1
396 509.5 m 128,-1,13
 441 489 441 489 461.5 444.5 c 128,-1,14
 482 400 482 400 482 325 c 2,15,-1
 482 0 l 1,16,-1
 379 0 l 1,17,-1
 378 69 l 1,18,-1
 376 69 l 1,19,20
 348 32 348 32 301.5 11 c 128,-1,21
 255 -10 255 -10 199 -10 c 0,22,23
 120 -10 120 -10 74.5 32 c 128,-1,24
 29 74 29 74 29 145 c 0,25,26
 29 238 29 238 108 288 c 128,-1,27
 187 338 187 338 333 338 c 2,28,-1
 374 338 l 1,29,30
 373 397 373 397 350 418.5 c 128,-1,31
 327 440 327 440 267 440 c 0,32,33
 167 440 167 440 75 397 c 1,34,-1
 47 481 l 1,35,36
 148 530 148 530 275 530 c 0,37,12
 351 530 351 530 396 509.5 c 128,-1,13
298 95.5 m 128,-1,39
 332 113 332 113 353 142 c 128,-1,40
 374 171 374 171 374 203 c 2,41,-1
 374 253 l 1,42,-1
 333 253 l 2,43,44
 237 253 237 253 187 227.5 c 128,-1,45
 137 202 137 202 137 154 c 0,46,47
 137 120 137 120 161.5 99 c 128,-1,48
 186 78 186 78 227 78 c 0,49,38
 264 78 264 78 298 95.5 c 128,-1,39
EndSplineSet
EndChar

StartChar: uni1EA7
Encoding: 7847 7847 212
Width: 547
GlyphClass: 2
Flags: W
AnchorPoint: "Anchor-6" 260 520 basechar 0
AnchorPoint: "Anchor-5" 482 0 basechar 0
AnchorPoint: "Anchor-4" 260 0 basechar 0
LayerCount: 2
Fore
SplineSet
145 740 m 1,0,-1
 71 740 l 1,1,-1
 -54 950 l 1,2,-1
 86 950 l 1,3,-1
 167 770 l 1,4,-1
 356 770 l 1,5,-1
 481 560 l 1,6,-1
 351 560 l 1,7,-1
 261 720 l 1,8,-1
 259 720 l 1,9,-1
 169 560 l 1,10,-1
 39 560 l 1,11,-1
 145 740 l 1,0,-1
396 509.5 m 128,-1,13
 441 489 441 489 461.5 444.5 c 128,-1,14
 482 400 482 400 482 325 c 2,15,-1
 482 0 l 1,16,-1
 379 0 l 1,17,-1
 378 69 l 1,18,-1
 376 69 l 1,19,20
 348 32 348 32 301.5 11 c 128,-1,21
 255 -10 255 -10 199 -10 c 0,22,23
 120 -10 120 -10 74.5 32 c 128,-1,24
 29 74 29 74 29 145 c 0,25,26
 29 238 29 238 108 288 c 128,-1,27
 187 338 187 338 333 338 c 2,28,-1
 374 338 l 1,29,30
 373 397 373 397 350 418.5 c 128,-1,31
 327 440 327 440 267 440 c 0,32,33
 167 440 167 440 75 397 c 1,34,-1
 47 481 l 1,35,36
 148 530 148 530 275 530 c 0,37,12
 351 530 351 530 396 509.5 c 128,-1,13
298 95.5 m 128,-1,39
 332 113 332 113 353 142 c 128,-1,40
 374 171 374 171 374 203 c 2,41,-1
 374 253 l 1,42,-1
 333 253 l 2,43,44
 237 253 237 253 187 227.5 c 128,-1,45
 137 202 137 202 137 154 c 0,46,47
 137 120 137 120 161.5 99 c 128,-1,48
 186 78 186 78 227 78 c 0,49,38
 264 78 264 78 298 95.5 c 128,-1,39
EndSplineSet
EndChar

StartChar: uni1EA9
Encoding: 7849 7849 213
Width: 547
GlyphClass: 2
Flags: W
AnchorPoint: "Anchor-6" 310 928 basechar 0
AnchorPoint: "Anchor-5" 482 0 basechar 0
AnchorPoint: "Anchor-4" 260 0 basechar 0
LayerCount: 2
Fore
SplineSet
348 770 m 1,0,1
 352 796 352 796 352 804 c 0,2,3
 352 826 352 826 337.5 833.5 c 128,-1,4
 323 841 323 841 284 841 c 0,5,6
 220 841 220 841 160 823 c 1,7,-1
 150 910 l 1,8,9
 225 928 225 928 310 928 c 0,10,11
 372 928 372 928 406 920.5 c 128,-1,12
 440 913 440 913 454.5 895.5 c 128,-1,13
 469 878 469 878 469 845 c 0,14,15
 469 821 469 821 463.5 791 c 128,-1,16
 458 761 458 761 449 738 c 1,17,-1
 375 738 l 1,18,-1
 481 560 l 1,19,-1
 351 560 l 1,20,-1
 261 720 l 1,21,-1
 259 720 l 1,22,-1
 169 560 l 1,23,-1
 39 560 l 1,24,-1
 163 770 l 1,25,-1
 348 770 l 1,0,1
396 509.5 m 128,-1,27
 441 489 441 489 461.5 444.5 c 128,-1,28
 482 400 482 400 482 325 c 2,29,-1
 482 0 l 1,30,-1
 379 0 l 1,31,-1
 378 69 l 1,32,-1
 376 69 l 1,33,34
 348 32 348 32 301.5 11 c 128,-1,35
 255 -10 255 -10 199 -10 c 0,36,37
 120 -10 120 -10 74.5 32 c 128,-1,38
 29 74 29 74 29 145 c 0,39,40
 29 238 29 238 108 288 c 128,-1,41
 187 338 187 338 333 338 c 2,42,-1
 374 338 l 1,43,44
 373 397 373 397 350 418.5 c 128,-1,45
 327 440 327 440 267 440 c 0,46,47
 167 440 167 440 75 397 c 1,48,-1
 47 481 l 1,49,50
 148 530 148 530 275 530 c 0,51,26
 351 530 351 530 396 509.5 c 128,-1,27
298 95.5 m 128,-1,53
 332 113 332 113 353 142 c 128,-1,54
 374 171 374 171 374 203 c 2,55,-1
 374 253 l 1,56,-1
 333 253 l 2,57,58
 237 253 237 253 187 227.5 c 128,-1,59
 137 202 137 202 137 154 c 0,60,61
 137 120 137 120 161.5 99 c 128,-1,62
 186 78 186 78 227 78 c 0,63,52
 264 78 264 78 298 95.5 c 128,-1,53
EndSplineSet
EndChar

StartChar: aogonek
Encoding: 261 261 222
Width: 547
GlyphClass: 2
Flags: W
AnchorPoint: "Anchor-6" 260 520 basechar 0
AnchorPoint: "Anchor-5" 482 0 basechar 0
AnchorPoint: "Anchor-4" 260 0 basechar 0
LayerCount: 2
Fore
SplineSet
571 -196 m 1,0,1
 520 -217 520 -217 456 -217 c 0,2,3
 379 -217 379 -217 337 -189.5 c 128,-1,4
 295 -162 295 -162 295 -112 c 0,5,6
 295 -42 295 -42 379 20 c 1,7,-1
 378 69 l 1,8,-1
 376 69 l 1,9,10
 348 32 348 32 301.5 11 c 128,-1,11
 255 -10 255 -10 199 -10 c 0,12,13
 120 -10 120 -10 74.5 32 c 128,-1,14
 29 74 29 74 29 145 c 0,15,16
 29 238 29 238 108 288 c 128,-1,17
 187 338 187 338 333 338 c 2,18,-1
 374 338 l 1,19,20
 373 397 373 397 350 418.5 c 128,-1,21
 327 440 327 440 267 440 c 0,22,23
 167 440 167 440 75 397 c 1,24,-1
 47 481 l 1,25,26
 148 530 148 530 275 530 c 0,27,28
 351 530 351 530 396 509.5 c 128,-1,29
 441 489 441 489 461.5 444.5 c 128,-1,30
 482 400 482 400 482 325 c 2,31,-1
 482 0 l 1,32,33
 442 -24 442 -24 419.5 -48.5 c 128,-1,34
 397 -73 397 -73 397 -93 c 0,35,36
 397 -111 397 -111 414.5 -120.5 c 128,-1,37
 432 -130 432 -130 465 -130 c 0,38,39
 513 -130 513 -130 554 -111 c 1,40,-1
 571 -196 l 1,0,1
298 95.5 m 128,-1,42
 332 113 332 113 353 142 c 128,-1,43
 374 171 374 171 374 203 c 2,44,-1
 374 253 l 1,45,-1
 333 253 l 2,46,47
 237 253 237 253 187 227.5 c 128,-1,48
 137 202 137 202 137 154 c 0,49,50
 137 120 137 120 161.5 99 c 128,-1,51
 186 78 186 78 227 78 c 0,52,41
 264 78 264 78 298 95.5 c 128,-1,42
EndSplineSet
EndChar

StartChar: aring
Encoding: 229 229 223
Width: 547
GlyphClass: 2
Flags: W
AnchorPoint: "Anchor-6" 260 730 basechar 0
AnchorPoint: "Anchor-5" 482 0 basechar 0
AnchorPoint: "Anchor-4" 260 0 basechar 0
LayerCount: 2
Fore
SplineSet
445 471.5 m 128,-1,1
 482 424 482 424 482 325 c 2,2,-1
 482 0 l 1,3,-1
 379 0 l 1,4,-1
 378 69 l 1,5,-1
 376 69 l 1,6,7
 348 32 348 32 301.5 11 c 128,-1,8
 255 -10 255 -10 199 -10 c 0,9,10
 120 -10 120 -10 74.5 32 c 128,-1,11
 29 74 29 74 29 145 c 0,12,13
 29 238 29 238 108 288 c 128,-1,14
 187 338 187 338 333 338 c 2,15,-1
 374 338 l 1,16,17
 373 397 373 397 350 418.5 c 128,-1,18
 327 440 327 440 267 440 c 0,19,20
 167 440 167 440 75 397 c 1,21,-1
 47 481 l 1,22,23
 117 515 117 515 205 526 c 1,24,25
 163 543 163 543 137 580.5 c 128,-1,26
 111 618 111 618 111 665 c 0,27,28
 111 706 111 706 131 740.5 c 128,-1,29
 151 775 151 775 185.5 795 c 128,-1,30
 220 815 220 815 261 815 c 256,31,32
 302 815 302 815 336.5 795 c 128,-1,33
 371 775 371 775 391 740.5 c 128,-1,34
 411 706 411 706 411 665 c 0,35,36
 411 620 411 620 386.5 583 c 128,-1,37
 362 546 362 546 322 528 c 1,38,0
 408 519 408 519 445 471.5 c 128,-1,1
211.5 714.5 m 128,-1,40
 191 694 191 694 191 665 c 256,41,42
 191 636 191 636 211.5 615.5 c 128,-1,43
 232 595 232 595 261 595 c 256,44,45
 290 595 290 595 310.5 615.5 c 128,-1,46
 331 636 331 636 331 665 c 256,47,48
 331 694 331 694 310.5 714.5 c 128,-1,49
 290 735 290 735 261 735 c 256,50,39
 232 735 232 735 211.5 714.5 c 128,-1,40
298 95.5 m 128,-1,52
 332 113 332 113 353 142 c 128,-1,53
 374 171 374 171 374 203 c 2,54,-1
 374 253 l 1,55,-1
 333 253 l 2,56,57
 237 253 237 253 187 227.5 c 128,-1,58
 137 202 137 202 137 154 c 0,59,60
 137 120 137 120 161.5 99 c 128,-1,61
 186 78 186 78 227 78 c 0,62,51
 264 78 264 78 298 95.5 c 128,-1,52
EndSplineSet
EndChar

StartChar: aringacute
Encoding: 507 507 224
Width: 547
GlyphClass: 2
Flags: W
AnchorPoint: "Anchor-6" 260 730 basechar 0
AnchorPoint: "Anchor-5" 482 0 basechar 0
AnchorPoint: "Anchor-4" 260 0 basechar 0
LayerCount: 2
Fore
SplineSet
445 471.5 m 128,-1,1
 482 424 482 424 482 325 c 2,2,-1
 482 0 l 1,3,-1
 379 0 l 1,4,-1
 378 69 l 1,5,-1
 376 69 l 1,6,7
 348 32 348 32 301.5 11 c 128,-1,8
 255 -10 255 -10 199 -10 c 0,9,10
 120 -10 120 -10 74.5 32 c 128,-1,11
 29 74 29 74 29 145 c 0,12,13
 29 238 29 238 108 288 c 128,-1,14
 187 338 187 338 333 338 c 2,15,-1
 374 338 l 1,16,17
 373 397 373 397 350 418.5 c 128,-1,18
 327 440 327 440 267 440 c 0,19,20
 167 440 167 440 75 397 c 1,21,-1
 47 481 l 1,22,23
 117 515 117 515 205 526 c 1,24,25
 163 543 163 543 137 580.5 c 128,-1,26
 111 618 111 618 111 665 c 0,27,28
 111 699 111 699 125.5 729 c 128,-1,29
 140 759 140 759 165 780 c 1,30,-1
 255 980 l 1,31,-1
 395 980 l 1,32,-1
 295 811 l 1,33,34
 345 800 345 800 378 759 c 128,-1,35
 411 718 411 718 411 665 c 0,36,37
 411 620 411 620 386.5 583 c 128,-1,38
 362 546 362 546 322 528 c 1,39,0
 408 519 408 519 445 471.5 c 128,-1,1
211.5 714.5 m 128,-1,41
 191 694 191 694 191 665 c 256,42,43
 191 636 191 636 211.5 615.5 c 128,-1,44
 232 595 232 595 261 595 c 256,45,46
 290 595 290 595 310.5 615.5 c 128,-1,47
 331 636 331 636 331 665 c 256,48,49
 331 694 331 694 310.5 714.5 c 128,-1,50
 290 735 290 735 261 735 c 256,51,40
 232 735 232 735 211.5 714.5 c 128,-1,41
298 95.5 m 128,-1,53
 332 113 332 113 353 142 c 128,-1,54
 374 171 374 171 374 203 c 2,55,-1
 374 253 l 1,56,-1
 333 253 l 2,57,58
 237 253 237 253 187 227.5 c 128,-1,59
 137 202 137 202 137 154 c 0,60,61
 137 120 137 120 161.5 99 c 128,-1,62
 186 78 186 78 227 78 c 0,63,52
 264 78 264 78 298 95.5 c 128,-1,53
EndSplineSet
EndChar

StartChar: ae
Encoding: 230 230 226
Width: 893
GlyphClass: 2
Flags: W
AnchorPoint: "Anchor-6" 447 520 basechar 0
AnchorPoint: "Anchor-4" 447 0 basechar 0
LayerCount: 2
Fore
SplineSet
857 215 m 1,1,-1
 480 215 l 1,2,3
 492 80 492 80 643 80 c 0,4,5
 684 80 684 80 726.5 89.5 c 128,-1,6
 769 99 769 99 800 115 c 1,7,-1
 824 32 l 1,8,9
 784 12 784 12 735.5 1 c 128,-1,10
 687 -10 687 -10 637 -10 c 0,11,12
 496 -10 496 -10 428 76 c 1,13,14
 360 -10 360 -10 222 -10 c 0,15,16
 130 -10 130 -10 79.5 31 c 128,-1,17
 29 72 29 72 29 145 c 0,18,19
 29 238 29 238 108 288 c 128,-1,20
 187 338 187 338 333 338 c 2,21,-1
 374 338 l 1,22,23
 373 397 373 397 350 418.5 c 128,-1,24
 327 440 327 440 267 440 c 0,25,26
 167 440 167 440 75 397 c 1,27,-1
 47 481 l 1,28,29
 148 530 148 530 275 530 c 0,30,31
 340 530 340 530 381.5 515 c 128,-1,32
 423 500 423 500 446 467 c 1,33,34
 511 530 511 530 621 530 c 0,35,36
 737 530 737 530 798 460.5 c 128,-1,37
 859 391 859 391 859 260 c 0,38,0
 859 239 859 239 857 215 c 1,1,-1
520 407 m 128,-1,40
 485 372 485 372 480 300 c 1,41,-1
 757 300 l 1,42,43
 752 374 752 374 719 408 c 128,-1,44
 686 442 686 442 621 442 c 0,45,39
 555 442 555 442 520 407 c 128,-1,40
298 95.5 m 128,-1,47
 332 113 332 113 353 142 c 128,-1,48
 374 171 374 171 374 203 c 2,49,-1
 374 253 l 1,50,-1
 333 253 l 2,51,52
 237 253 237 253 187 227.5 c 128,-1,53
 137 202 137 202 137 154 c 0,54,55
 137 120 137 120 161.5 99 c 128,-1,56
 186 78 186 78 227 78 c 0,57,46
 264 78 264 78 298 95.5 c 128,-1,47
EndSplineSet
EndChar

StartChar: b
Encoding: 98 98 228
Width: 595
Flags: W
LayerCount: 2
Fore
SplineSet
503 460 m 128,-1,1
 555 390 555 390 555 260 c 256,2,3
 555 130 555 130 503 60 c 128,-1,4
 451 -10 451 -10 353 -10 c 0,5,6
 299 -10 299 -10 253 11.5 c 128,-1,7
 207 33 207 33 178 71 c 1,8,-1
 176 71 l 1,9,-1
 175 0 l 1,10,-1
 72 0 l 1,11,-1
 72 750 l 1,12,-1
 180 750 l 1,13,-1
 180 449 l 1,14,-1
 182 449 l 1,15,16
 210 488 210 488 255 509 c 128,-1,17
 300 530 300 530 353 530 c 0,18,0
 451 530 451 530 503 460 c 128,-1,1
413.5 128.5 m 128,-1,20
 447 177 447 177 447 260 c 256,21,22
 447 343 447 343 413.5 391.5 c 128,-1,23
 380 440 380 440 322 440 c 0,24,25
 284 440 284 440 251 419 c 128,-1,26
 218 398 218 398 199 362 c 128,-1,27
 180 326 180 326 180 283 c 2,28,-1
 180 237 l 2,29,30
 180 194 180 194 199 158 c 128,-1,31
 218 122 218 122 251 101 c 128,-1,32
 284 80 284 80 322 80 c 0,33,19
 380 80 380 80 413.5 128.5 c 128,-1,20
EndSplineSet
EndChar

StartChar: c
Encoding: 99 99 229
Width: 530
GlyphClass: 2
Flags: W
AnchorPoint: "Anchor-6" 280 520 basechar 0
AnchorPoint: "Anchor-4" 280 0 basechar 0
LayerCount: 2
Fore
SplineSet
107 60.5 m 128,-1,1
 36 131 36 131 36 260 c 256,2,3
 36 389 36 389 107 459.5 c 128,-1,4
 178 530 178 530 307 530 c 0,5,6
 398 530 398 530 471 492 c 1,7,-1
 440 410 l 1,8,9
 377 440 377 440 312 440 c 0,10,11
 231 440 231 440 187.5 393.5 c 128,-1,12
 144 347 144 347 144 260 c 256,13,14
 144 173 144 173 187.5 126.5 c 128,-1,15
 231 80 231 80 312 80 c 0,16,17
 377 80 377 80 440 110 c 1,18,-1
 471 28 l 1,19,20
 398 -10 398 -10 307 -10 c 0,21,0
 178 -10 178 -10 107 60.5 c 128,-1,1
EndSplineSet
EndChar

StartChar: ccedilla
Encoding: 231 231 232
Width: 530
GlyphClass: 2
Flags: W
AnchorPoint: "Anchor-6" 280 520 basechar 0
AnchorPoint: "Anchor-4" 280 0 basechar 0
LayerCount: 2
Fore
SplineSet
471 28 m 1,0,1
 424 4 424 4 374 -5 c 1,2,3
 428 -56 428 -56 428 -112 c 0,4,5
 428 -162 428 -162 386 -189.5 c 128,-1,6
 344 -217 344 -217 267 -217 c 0,7,8
 203 -217 203 -217 152 -196 c 1,9,-1
 169 -111 l 1,10,11
 210 -130 210 -130 258 -130 c 0,12,13
 291 -130 291 -130 308.5 -120.5 c 128,-1,14
 326 -111 326 -111 326 -93 c 0,15,16
 326 -74 326 -74 306.5 -51 c 128,-1,17
 287 -28 287 -28 251 -6 c 1,18,19
 148 8 148 8 92 77 c 128,-1,20
 36 146 36 146 36 260 c 0,21,22
 36 389 36 389 107 459.5 c 128,-1,23
 178 530 178 530 307 530 c 0,24,25
 398 530 398 530 471 492 c 1,26,-1
 440 410 l 1,27,28
 377 440 377 440 312 440 c 0,29,30
 231 440 231 440 187.5 393.5 c 128,-1,31
 144 347 144 347 144 260 c 256,32,33
 144 173 144 173 187.5 126.5 c 128,-1,34
 231 80 231 80 312 80 c 0,35,36
 377 80 377 80 440 110 c 1,37,-1
 471 28 l 1,0,1
EndSplineSet
EndChar

StartChar: d
Encoding: 100 100 235
Width: 595
Flags: W
LayerCount: 2
Fore
SplineSet
523 750 m 1,0,-1
 523 0 l 1,1,-1
 420 0 l 1,2,-1
 419 71 l 1,3,-1
 417 71 l 1,4,5
 388 33 388 33 342 11.5 c 128,-1,6
 296 -10 296 -10 242 -10 c 0,7,8
 144 -10 144 -10 92 60 c 128,-1,9
 40 130 40 130 40 260 c 256,10,11
 40 390 40 390 92 460 c 128,-1,12
 144 530 144 530 242 530 c 0,13,14
 295 530 295 530 340 509 c 128,-1,15
 385 488 385 488 413 449 c 1,16,-1
 415 449 l 1,17,-1
 415 750 l 1,18,-1
 523 750 l 1,0,-1
344 101 m 128,-1,20
 377 122 377 122 396 158 c 128,-1,21
 415 194 415 194 415 237 c 2,22,-1
 415 283 l 2,23,24
 415 326 415 326 396 362 c 128,-1,25
 377 398 377 398 344 419 c 128,-1,26
 311 440 311 440 273 440 c 0,27,28
 215 440 215 440 181.5 391.5 c 128,-1,29
 148 343 148 343 148 260 c 256,30,31
 148 177 148 177 181.5 128.5 c 128,-1,32
 215 80 215 80 273 80 c 0,33,19
 311 80 311 80 344 101 c 128,-1,20
EndSplineSet
EndChar

StartChar: eth
Encoding: 240 240 236
Width: 592
Flags: W
LayerCount: 2
Fore
SplineSet
436 617 m 1,0,1
 489 547 489 547 517.5 456.5 c 128,-1,2
 546 366 546 366 546 263 c 0,3,4
 546 132 546 132 480 61 c 128,-1,5
 414 -10 414 -10 291 -10 c 0,6,7
 171 -10 171 -10 103.5 57 c 128,-1,8
 36 124 36 124 36 243 c 0,9,10
 36 354 36 354 100 417 c 128,-1,11
 164 480 164 480 276 480 c 0,12,13
 364 480 364 480 413 434 c 1,14,-1
 415 435 l 1,15,16
 392 515 392 515 338 578 c 1,17,-1
 116 490 l 1,18,-1
 80 574 l 1,19,-1
 262 646 l 1,20,21
 197 690 197 690 121 700 c 1,22,-1
 141 790 l 1,23,24
 271 772 271 772 368 689 c 1,25,-1
 520 749 l 1,26,-1
 556 665 l 1,27,-1
 436 617 l 1,0,1
399.5 123 m 128,-1,29
 438 166 438 166 438 243 c 0,30,31
 438 390 438 390 291 390 c 256,32,33
 144 390 144 390 144 243 c 0,34,35
 144 166 144 166 182.5 123 c 128,-1,36
 221 80 221 80 291 80 c 256,37,28
 361 80 361 80 399.5 123 c 128,-1,29
EndSplineSet
EndChar

StartChar: dcroat
Encoding: 273 273 238
Width: 661
Flags: W
LayerCount: 2
Fore
SplineSet
633 580 m 1,0,-1
 523 580 l 1,1,-1
 523 0 l 1,2,-1
 420 0 l 1,3,-1
 419 71 l 1,4,-1
 417 71 l 1,5,6
 388 33 388 33 342 11.5 c 128,-1,7
 296 -10 296 -10 242 -10 c 0,8,9
 144 -10 144 -10 92 60 c 128,-1,10
 40 130 40 130 40 260 c 256,11,12
 40 390 40 390 92 460 c 128,-1,13
 144 530 144 530 242 530 c 0,14,15
 295 530 295 530 340 509 c 128,-1,16
 385 488 385 488 413 449 c 1,17,-1
 415 449 l 1,18,-1
 415 580 l 1,19,-1
 213 580 l 1,20,-1
 213 670 l 1,21,-1
 415 670 l 1,22,-1
 415 750 l 1,23,-1
 523 750 l 1,24,-1
 523 670 l 1,25,-1
 633 670 l 1,26,-1
 633 580 l 1,0,-1
344 101 m 128,-1,28
 377 122 377 122 396 158 c 128,-1,29
 415 194 415 194 415 237 c 2,30,-1
 415 283 l 2,31,32
 415 326 415 326 396 362 c 128,-1,33
 377 398 377 398 344 419 c 128,-1,34
 311 440 311 440 273 440 c 0,35,36
 215 440 215 440 181.5 391.5 c 128,-1,37
 148 343 148 343 148 260 c 256,38,39
 148 177 148 177 181.5 128.5 c 128,-1,40
 215 80 215 80 273 80 c 0,41,27
 311 80 311 80 344 101 c 128,-1,28
EndSplineSet
EndChar

StartChar: e
Encoding: 101 101 240
Width: 556
GlyphClass: 2
Flags: W
AnchorPoint: "Anchor-6" 282 520 basechar 0
AnchorPoint: "Anchor-5" 492 27 basechar 0
AnchorPoint: "Anchor-4" 282 0 basechar 0
LayerCount: 2
Fore
SplineSet
520 215 m 1,1,-1
 143 215 l 1,2,3
 150 147 150 147 193.5 113.5 c 128,-1,4
 237 80 237 80 319 80 c 0,5,6
 397 80 397 80 466 109 c 1,7,-1
 491 24 l 1,8,9
 453 8 453 8 406.5 -1 c 128,-1,10
 360 -10 360 -10 313 -10 c 0,11,12
 180 -10 180 -10 108 60 c 128,-1,13
 36 130 36 130 36 260 c 0,14,15
 36 388 36 388 101 459 c 128,-1,16
 166 530 166 530 284 530 c 0,17,18
 400 530 400 530 461 460.5 c 128,-1,19
 522 391 522 391 522 260 c 0,20,0
 522 239 522 239 520 215 c 1,1,-1
183 407 m 128,-1,22
 148 372 148 372 143 300 c 1,23,-1
 420 300 l 1,24,25
 415 374 415 374 382 408 c 128,-1,26
 349 442 349 442 284 442 c 0,27,21
 218 442 218 442 183 407 c 128,-1,22
EndSplineSet
EndChar

StartChar: uni1EBF
Encoding: 7871 7871 245
Width: 556
GlyphClass: 2
Flags: W
AnchorPoint: "Anchor-6" 282 520 basechar 0
AnchorPoint: "Anchor-5" 492 27 basechar 0
AnchorPoint: "Anchor-4" 282 0 basechar 0
LayerCount: 2
Fore
SplineSet
281 720 m 1,0,-1
 191 560 l 1,1,-1
 61 560 l 1,2,-1
 185 770 l 1,3,-1
 375 770 l 1,4,-1
 456 950 l 1,5,-1
 596 950 l 1,6,-1
 471 740 l 1,7,-1
 396 740 l 1,8,-1
 503 560 l 1,9,-1
 373 560 l 1,10,-1
 283 720 l 1,11,-1
 281 720 l 1,0,-1
461 460.5 m 128,-1,13
 522 391 522 391 522 260 c 0,14,15
 522 239 522 239 520 215 c 1,16,-1
 143 215 l 1,17,18
 150 147 150 147 193.5 113.5 c 128,-1,19
 237 80 237 80 319 80 c 0,20,21
 397 80 397 80 466 109 c 1,22,-1
 491 24 l 1,23,24
 453 8 453 8 406.5 -1 c 128,-1,25
 360 -10 360 -10 313 -10 c 0,26,27
 180 -10 180 -10 108 60 c 128,-1,28
 36 130 36 130 36 260 c 0,29,30
 36 388 36 388 101 459 c 128,-1,31
 166 530 166 530 284 530 c 0,32,12
 400 530 400 530 461 460.5 c 128,-1,13
183 407 m 128,-1,34
 148 372 148 372 143 300 c 1,35,-1
 420 300 l 1,36,37
 415 374 415 374 382 408 c 128,-1,38
 349 442 349 442 284 442 c 0,39,33
 218 442 218 442 183 407 c 128,-1,34
EndSplineSet
EndChar

StartChar: uni1EC1
Encoding: 7873 7873 247
Width: 556
GlyphClass: 2
Flags: W
AnchorPoint: "Anchor-6" 282 520 basechar 0
AnchorPoint: "Anchor-5" 492 27 basechar 0
AnchorPoint: "Anchor-4" 282 0 basechar 0
LayerCount: 2
Fore
SplineSet
167 740 m 1,0,-1
 93 740 l 1,1,-1
 -32 950 l 1,2,-1
 108 950 l 1,3,-1
 189 770 l 1,4,-1
 378 770 l 1,5,-1
 503 560 l 1,6,-1
 373 560 l 1,7,-1
 283 720 l 1,8,-1
 281 720 l 1,9,-1
 191 560 l 1,10,-1
 61 560 l 1,11,-1
 167 740 l 1,0,-1
520 215 m 1,13,-1
 143 215 l 1,14,15
 150 147 150 147 193.5 113.5 c 128,-1,16
 237 80 237 80 319 80 c 0,17,18
 397 80 397 80 466 109 c 1,19,-1
 491 24 l 1,20,21
 453 8 453 8 406.5 -1 c 128,-1,22
 360 -10 360 -10 313 -10 c 0,23,24
 180 -10 180 -10 108 60 c 128,-1,25
 36 130 36 130 36 260 c 0,26,27
 36 388 36 388 101 459 c 128,-1,28
 166 530 166 530 284 530 c 0,29,30
 400 530 400 530 461 460.5 c 128,-1,31
 522 391 522 391 522 260 c 0,32,12
 522 239 522 239 520 215 c 1,13,-1
183 407 m 128,-1,34
 148 372 148 372 143 300 c 1,35,-1
 420 300 l 1,36,37
 415 374 415 374 382 408 c 128,-1,38
 349 442 349 442 284 442 c 0,39,33
 218 442 218 442 183 407 c 128,-1,34
EndSplineSet
EndChar

StartChar: uni1EC3
Encoding: 7875 7875 248
Width: 556
GlyphClass: 2
Flags: W
AnchorPoint: "Anchor-6" 332 928 basechar 0
AnchorPoint: "Anchor-5" 492 27 basechar 0
AnchorPoint: "Anchor-4" 282 0 basechar 0
LayerCount: 2
Fore
SplineSet
370 770 m 1,0,1
 374 796 374 796 374 804 c 0,2,3
 374 826 374 826 359.5 833.5 c 128,-1,4
 345 841 345 841 306 841 c 0,5,6
 242 841 242 841 182 823 c 1,7,-1
 172 910 l 1,8,9
 247 928 247 928 332 928 c 0,10,11
 394 928 394 928 428 920.5 c 128,-1,12
 462 913 462 913 476.5 895.5 c 128,-1,13
 491 878 491 878 491 845 c 0,14,15
 491 821 491 821 485.5 791 c 128,-1,16
 480 761 480 761 471 738 c 1,17,-1
 397 738 l 1,18,-1
 503 560 l 1,19,-1
 373 560 l 1,20,-1
 283 720 l 1,21,-1
 281 720 l 1,22,-1
 191 560 l 1,23,-1
 61 560 l 1,24,-1
 185 770 l 1,25,-1
 370 770 l 1,0,1
520 215 m 1,27,-1
 143 215 l 1,28,29
 150 147 150 147 193.5 113.5 c 128,-1,30
 237 80 237 80 319 80 c 0,31,32
 397 80 397 80 466 109 c 1,33,-1
 491 24 l 1,34,35
 453 8 453 8 406.5 -1 c 128,-1,36
 360 -10 360 -10 313 -10 c 0,37,38
 180 -10 180 -10 108 60 c 128,-1,39
 36 130 36 130 36 260 c 0,40,41
 36 388 36 388 101 459 c 128,-1,42
 166 530 166 530 284 530 c 0,43,44
 400 530 400 530 461 460.5 c 128,-1,45
 522 391 522 391 522 260 c 0,46,26
 522 239 522 239 520 215 c 1,27,-1
183 407 m 128,-1,48
 148 372 148 372 143 300 c 1,49,-1
 420 300 l 1,50,51
 415 374 415 374 382 408 c 128,-1,52
 349 442 349 442 284 442 c 0,53,47
 218 442 218 442 183 407 c 128,-1,48
EndSplineSet
EndChar

StartChar: eogonek
Encoding: 281 281 258
Width: 556
GlyphClass: 2
Flags: W
AnchorPoint: "Anchor-6" 282 520 basechar 0
AnchorPoint: "Anchor-5" 492 27 basechar 0
AnchorPoint: "Anchor-4" 282 0 basechar 0
LayerCount: 2
Fore
SplineSet
581 -169 m 1,0,1
 530 -190 530 -190 466 -190 c 0,2,3
 389 -190 389 -190 347 -162.5 c 128,-1,4
 305 -135 305 -135 305 -85 c 0,5,6
 305 -47 305 -47 331 -10 c 1,7,-1
 313 -10 l 2,8,9
 180 -10 180 -10 108 60 c 128,-1,10
 36 130 36 130 36 260 c 0,11,12
 36 388 36 388 101 459 c 128,-1,13
 166 530 166 530 284 530 c 0,14,15
 400 530 400 530 461 460.5 c 128,-1,16
 522 391 522 391 522 260 c 0,17,18
 522 239 522 239 520 215 c 1,19,-1
 143 215 l 1,20,21
 150 147 150 147 193.5 113.5 c 128,-1,22
 237 80 237 80 319 80 c 0,23,24
 397 80 397 80 466 109 c 1,25,-1
 490 27 l 1,26,-1
 492 27 l 1,27,-1
 490 26 l 1,28,-1
 491 24 l 1,29,30
 486 22 486 22 480 20 c 0,31,32
 445 -2 445 -2 426 -24.5 c 128,-1,33
 407 -47 407 -47 407 -66 c 0,34,35
 407 -84 407 -84 424.5 -93.5 c 128,-1,36
 442 -103 442 -103 475 -103 c 0,37,38
 523 -103 523 -103 564 -84 c 1,39,-1
 581 -169 l 1,0,1
183 407 m 128,-1,41
 148 372 148 372 143 300 c 1,42,-1
 420 300 l 1,43,44
 415 374 415 374 382 408 c 128,-1,45
 349 442 349 442 284 442 c 0,46,40
 218 442 218 442 183 407 c 128,-1,41
EndSplineSet
EndChar

StartChar: uni0259
Encoding: 601 601 260
Width: 556
GlyphClass: 2
Flags: W
AnchorPoint: "Anchor-6" 274 520 basechar 0
AnchorPoint: "Anchor-5" 64 493 basechar 0
AnchorPoint: "Anchor-4" 274 0 basechar 0
LayerCount: 2
Fore
SplineSet
448 460 m 128,-1,1
 520 390 520 390 520 260 c 0,2,3
 520 132 520 132 455 61 c 128,-1,4
 390 -10 390 -10 272 -10 c 0,5,6
 156 -10 156 -10 95 59.5 c 128,-1,7
 34 129 34 129 34 260 c 0,8,9
 34 281 34 281 36 305 c 1,10,-1
 413 305 l 1,11,12
 406 373 406 373 362.5 406.5 c 128,-1,13
 319 440 319 440 237 440 c 0,14,15
 159 440 159 440 90 411 c 1,16,-1
 65 496 l 1,17,18
 103 512 103 512 149.5 521 c 128,-1,19
 196 530 196 530 243 530 c 0,20,0
 376 530 376 530 448 460 c 128,-1,1
373 113 m 128,-1,22
 408 148 408 148 413 220 c 1,23,-1
 136 220 l 1,24,25
 141 146 141 146 174 112 c 128,-1,26
 207 78 207 78 272 78 c 0,27,21
 338 78 338 78 373 113 c 128,-1,22
EndSplineSet
EndChar

StartChar: f
Encoding: 102 102 261
Width: 460
Flags: W
LayerCount: 2
Fore
SplineSet
22 430 m 1,0,-1
 22 520 l 1,1,-1
 159 520 l 1,2,-1
 159 575 l 2,3,4
 159 760 159 760 326 760 c 0,5,6
 378 760 378 760 438 745 c 1,7,-1
 422 657 l 1,8,9
 380 670 380 670 343 670 c 0,10,11
 301 670 301 670 285 649.5 c 128,-1,12
 269 629 269 629 269 575 c 2,13,-1
 269 520 l 1,14,-1
 431 520 l 1,15,-1
 431 430 l 1,16,-1
 269 430 l 1,17,-1
 269 0 l 1,18,-1
 159 0 l 1,19,-1
 159 430 l 1,20,-1
 22 430 l 1,0,-1
EndSplineSet
EndChar

StartChar: g
Encoding: 103 103 262
Width: 595
GlyphClass: 2
Flags: W
AnchorPoint: "Anchor-6" 295 520 basechar 0
AnchorPoint: "Anchor-4" 295 -140 basechar 0
LayerCount: 2
Fore
SplineSet
523 520 m 1,0,-1
 523 45 l 2,1,2
 523 -91 523 -91 456 -160.5 c 128,-1,3
 389 -230 389 -230 258 -230 c 0,4,5
 157 -230 157 -230 55 -189 c 1,6,-1
 80 -106 l 1,7,8
 169 -140 169 -140 243 -140 c 0,9,10
 331 -140 331 -140 373 -94.5 c 128,-1,11
 415 -49 415 -49 415 45 c 2,12,-1
 415 71 l 1,13,-1
 413 71 l 1,14,15
 385 32 385 32 341 11 c 128,-1,16
 297 -10 297 -10 243 -10 c 0,17,18
 145 -10 145 -10 92.5 59.5 c 128,-1,19
 40 129 40 129 40 260 c 256,20,21
 40 391 40 391 92.5 460.5 c 128,-1,22
 145 530 145 530 243 530 c 0,23,24
 297 530 297 530 342 509 c 128,-1,25
 387 488 387 488 417 449 c 1,26,-1
 419 449 l 1,27,-1
 420 520 l 1,28,-1
 523 520 l 1,0,-1
344 101 m 128,-1,30
 377 122 377 122 396 158 c 128,-1,31
 415 194 415 194 415 237 c 2,32,-1
 415 283 l 2,33,34
 415 326 415 326 396 362 c 128,-1,35
 377 398 377 398 344 419 c 128,-1,36
 311 440 311 440 273 440 c 0,37,38
 215 440 215 440 181.5 391.5 c 128,-1,39
 148 343 148 343 148 260 c 256,40,41
 148 177 148 177 181.5 128.5 c 128,-1,42
 215 80 215 80 273 80 c 0,43,29
 311 80 311 80 344 101 c 128,-1,30
EndSplineSet
EndChar

StartChar: h
Encoding: 104 104 268
Width: 597
GlyphClass: 2
Flags: W
AnchorPoint: "Anchor-6" 290 750 basechar 0
AnchorPoint: "Anchor-4" 290 0 basechar 0
LayerCount: 2
Fore
SplineSet
492 479 m 128,-1,1
 532 428 532 428 532 320 c 2,2,-1
 532 0 l 1,3,-1
 424 0 l 1,4,-1
 424 300 l 2,5,6
 424 371 424 371 402.5 405.5 c 128,-1,7
 381 440 381 440 337 440 c 0,8,9
 297 440 297 440 261 415 c 128,-1,10
 225 390 225 390 202.5 349.5 c 128,-1,11
 180 309 180 309 180 265 c 2,12,-1
 180 0 l 1,13,-1
 72 0 l 1,14,-1
 72 750 l 1,15,-1
 180 750 l 1,16,-1
 180 444 l 1,17,-1
 182 444 l 1,18,19
 213 485 213 485 261 507.5 c 128,-1,20
 309 530 309 530 367 530 c 0,21,0
 452 530 452 530 492 479 c 128,-1,1
EndSplineSet
EndChar

StartChar: hbar
Encoding: 295 295 269
Width: 663
GlyphClass: 2
Flags: W
AnchorPoint: "Anchor-6" 356 750 basechar 0
AnchorPoint: "Anchor-4" 356 0 basechar 0
LayerCount: 2
Fore
SplineSet
558 479 m 128,-1,1
 598 428 598 428 598 320 c 2,2,-1
 598 0 l 1,3,-1
 490 0 l 1,4,-1
 490 300 l 2,5,6
 490 371 490 371 468.5 405.5 c 128,-1,7
 447 440 447 440 403 440 c 0,8,9
 363 440 363 440 327 415 c 128,-1,10
 291 390 291 390 268.5 349.5 c 128,-1,11
 246 309 246 309 246 265 c 2,12,-1
 246 0 l 1,13,-1
 138 0 l 1,14,-1
 138 580 l 1,15,-1
 28 580 l 1,16,-1
 28 670 l 1,17,-1
 138 670 l 1,18,-1
 138 750 l 1,19,-1
 246 750 l 1,20,-1
 246 670 l 1,21,-1
 448 670 l 1,22,-1
 448 580 l 1,23,-1
 246 580 l 1,24,-1
 246 444 l 1,25,-1
 248 444 l 1,26,27
 279 485 279 485 327 507.5 c 128,-1,28
 375 530 375 530 433 530 c 0,29,0
 518 530 518 530 558 479 c 128,-1,1
EndSplineSet
EndChar

StartChar: i
Encoding: 105 105 271
Width: 268
GlyphClass: 2
Flags: W
AnchorPoint: "Anchor-6" 134 520 basechar 0
AnchorPoint: "Anchor-5" 189 0 basechar 0
AnchorPoint: "Anchor-4" 134 0 basechar 0
LayerCount: 2
Fore
SplineSet
79 740 m 1,0,-1
 189 740 l 1,1,-1
 189 630 l 1,2,-1
 79 630 l 1,3,-1
 79 740 l 1,0,-1
79 520 m 1,4,-1
 189 520 l 1,5,-1
 189 0 l 1,6,-1
 79 0 l 1,7,-1
 79 520 l 1,4,-1
EndSplineSet
Substitution2: "Single Substitution lookup 19 subtable" dotlessi
Substitution2: "'locl' Localized Forms in Latin lookup 3 subtable" i.loclTRK
Substitution2: "'aalt' Access All Alternates in Latin lookup 0 subtable" i.loclTRK
EndChar

StartChar: dotlessi
Encoding: 305 305 272
Width: 268
GlyphClass: 2
Flags: W
AnchorPoint: "Anchor-6" 134 520 basechar 0
AnchorPoint: "Anchor-5" 189 0 basechar 0
AnchorPoint: "Anchor-4" 134 0 basechar 0
LayerCount: 2
Fore
SplineSet
79 520 m 1,0,-1
 189 520 l 1,1,-1
 189 0 l 1,2,-1
 79 0 l 1,3,-1
 79 520 l 1,0,-1
EndSplineSet
EndChar

StartChar: iogonek
Encoding: 303 303 284
Width: 268
GlyphClass: 2
Flags: W
AnchorPoint: "Anchor-6" 134 728 basechar 0
AnchorPoint: "Anchor-5" 189 0 basechar 0
AnchorPoint: "Anchor-4" 134 0 basechar 0
LayerCount: 2
Fore
SplineSet
197 728 m 1,0,-1
 197 602 l 1,1,-1
 71 602 l 1,2,-1
 71 728 l 1,3,-1
 197 728 l 1,0,-1
278 -196 m 1,4,5
 227 -217 227 -217 163 -217 c 0,6,7
 86 -217 86 -217 44 -189.5 c 128,-1,8
 2 -162 2 -162 2 -112 c 0,9,10
 2 -44 2 -44 79 15 c 1,11,-1
 79 520 l 1,12,-1
 189 520 l 1,13,-1
 189 0 l 1,14,15
 149 -24 149 -24 126.5 -48.5 c 128,-1,16
 104 -73 104 -73 104 -93 c 0,17,18
 104 -111 104 -111 121.5 -120.5 c 128,-1,19
 139 -130 139 -130 172 -130 c 0,20,21
 220 -130 220 -130 261 -111 c 1,22,-1
 278 -196 l 1,4,5
EndSplineSet
EndChar

StartChar: j
Encoding: 106 106 286
Width: 326
GlyphClass: 2
Flags: W
AnchorPoint: "Anchor-6" 163 520 basechar 0
AnchorPoint: "Anchor-4" 163 -140 basechar 0
LayerCount: 2
Fore
SplineSet
137 740 m 1,0,-1
 247 740 l 1,1,-1
 247 630 l 1,2,-1
 137 630 l 1,3,-1
 137 740 l 1,0,-1
65.5 -128 m 128,-1,5
 107 -116 107 -116 122 -83.5 c 128,-1,6
 137 -51 137 -51 137 20 c 2,7,-1
 137 520 l 1,8,-1
 247 520 l 1,9,-1
 247 20 l 2,10,11
 247 -80 247 -80 220 -133 c 128,-1,12
 193 -186 193 -186 127.5 -208 c 128,-1,13
 62 -230 62 -230 -61 -230 c 1,14,-1
 -66 -140 l 1,15,4
 24 -140 24 -140 65.5 -128 c 128,-1,5
EndSplineSet
Substitution2: "Single Substitution lookup 19 subtable" uni0237
EndChar

StartChar: uni0237
Encoding: 567 567 287
Width: 326
GlyphClass: 2
Flags: W
AnchorPoint: "Anchor-6" 163 520 basechar 0
AnchorPoint: "Anchor-4" 163 -140 basechar 0
LayerCount: 2
Fore
SplineSet
65.5 -128 m 128,-1,1
 107 -116 107 -116 122 -83.5 c 128,-1,2
 137 -51 137 -51 137 20 c 2,3,-1
 137 520 l 1,4,-1
 247 520 l 1,5,-1
 247 20 l 2,6,7
 247 -80 247 -80 220 -133 c 128,-1,8
 193 -186 193 -186 127.5 -208 c 128,-1,9
 62 -230 62 -230 -61 -230 c 1,10,-1
 -66 -140 l 1,11,0
 24 -140 24 -140 65.5 -128 c 128,-1,1
EndSplineSet
EndChar

StartChar: k
Encoding: 107 107 289
Width: 572
GlyphClass: 2
Flags: W
AnchorPoint: "Anchor-6" 260 750 basechar 0
AnchorPoint: "Anchor-4" 260 0 basechar 0
LayerCount: 2
Fore
SplineSet
72 750 m 1,0,-1
 180 750 l 1,1,-1
 180 305 l 1,2,-1
 182 305 l 1,3,-1
 398 520 l 1,4,-1
 537 520 l 1,5,-1
 274 270 l 1,6,-1
 547 0 l 1,7,-1
 408 0 l 1,8,-1
 182 234 l 1,9,-1
 180 234 l 1,10,-1
 180 0 l 1,11,-1
 72 0 l 1,12,-1
 72 750 l 1,0,-1
EndSplineSet
EndChar

StartChar: kgreenlandic
Encoding: 312 312 291
Width: 572
GlyphClass: 2
Flags: W
AnchorPoint: "Anchor-6" 260 520 basechar 0
AnchorPoint: "Anchor-4" 260 0 basechar 0
LayerCount: 2
Fore
SplineSet
72 520 m 1,0,-1
 180 520 l 1,1,-1
 180 305 l 1,2,-1
 182 305 l 1,3,-1
 398 520 l 1,4,-1
 537 520 l 1,5,-1
 274 270 l 1,6,-1
 547 0 l 1,7,-1
 408 0 l 1,8,-1
 182 234 l 1,9,-1
 180 234 l 1,10,-1
 180 0 l 1,11,-1
 72 0 l 1,12,-1
 72 520 l 1,0,-1
EndSplineSet
EndChar

StartChar: l
Encoding: 108 108 292
Width: 268
GlyphClass: 2
Flags: W
AnchorPoint: "Anchor-7" 248 750 basechar 0
AnchorPoint: "Anchor-6" 134 750 basechar 0
AnchorPoint: "Anchor-4" 134 0 basechar 0
LayerCount: 2
Fore
SplineSet
79 750 m 1,0,-1
 189 750 l 1,1,-1
 189 0 l 1,2,-1
 79 0 l 1,3,-1
 79 750 l 1,0,-1
EndSplineSet
EndChar

StartChar: lslash
Encoding: 322 322 298
Width: 454
GlyphClass: 2
Flags: W
AnchorPoint: "Anchor-7" 341 750 basechar 0
AnchorPoint: "Anchor-6" 227 750 basechar 0
AnchorPoint: "Anchor-4" 227 0 basechar 0
LayerCount: 2
Fore
SplineSet
445 407 m 1,0,-1
 282 339 l 1,1,-1
 282 0 l 1,2,-1
 172 0 l 1,3,-1
 172 292 l 1,4,-1
 45 239 l 1,5,-1
 9 323 l 1,6,-1
 172 391 l 1,7,-1
 172 750 l 1,8,-1
 282 750 l 1,9,-1
 282 438 l 1,10,-1
 409 491 l 1,11,-1
 445 407 l 1,0,-1
EndSplineSet
EndChar

StartChar: m
Encoding: 109 109 299
Width: 831
Flags: W
LayerCount: 2
Fore
SplineSet
731.5 479.5 m 128,-1,1
 766 429 766 429 766 320 c 2,2,-1
 766 0 l 1,3,-1
 660 0 l 1,4,-1
 660 300 l 2,5,6
 660 369 660 369 641.5 404.5 c 128,-1,7
 623 440 623 440 586 440 c 0,8,9
 556 440 556 440 529.5 416.5 c 128,-1,10
 503 393 503 393 487.5 354 c 128,-1,11
 472 315 472 315 472 269 c 2,12,-1
 472 0 l 1,13,-1
 366 0 l 1,14,-1
 366 300 l 2,15,16
 366 369 366 369 347.5 404.5 c 128,-1,17
 329 440 329 440 292 440 c 0,18,19
 261 440 261 440 235 415.5 c 128,-1,20
 209 391 209 391 193.5 348.5 c 128,-1,21
 178 306 178 306 178 255 c 2,22,-1
 178 0 l 1,23,-1
 72 0 l 1,24,-1
 72 520 l 1,25,-1
 173 520 l 1,26,-1
 174 449 l 1,27,-1
 176 449 l 1,28,29
 231 530 231 530 328 530 c 0,30,31
 420 530 420 530 452 449 c 1,32,-1
 454 449 l 1,33,34
 485 488 485 488 528.5 509 c 128,-1,35
 572 530 572 530 622 530 c 0,36,0
 697 530 697 530 731.5 479.5 c 128,-1,1
EndSplineSet
EndChar

StartChar: n
Encoding: 110 110 300
Width: 597
GlyphClass: 2
Flags: W
AnchorPoint: "Anchor-6" 299 520 basechar 0
AnchorPoint: "Anchor-4" 299 0 basechar 0
LayerCount: 2
Fore
SplineSet
490 478 m 128,-1,1
 532 426 532 426 532 320 c 2,2,-1
 532 0 l 1,3,-1
 424 0 l 1,4,-1
 424 300 l 2,5,6
 424 369 424 369 401 404.5 c 128,-1,7
 378 440 378 440 332 440 c 0,8,9
 293 440 293 440 258 415.5 c 128,-1,10
 223 391 223 391 201.5 350.5 c 128,-1,11
 180 310 180 310 180 265 c 2,12,-1
 180 0 l 1,13,-1
 72 0 l 1,14,-1
 72 520 l 1,15,-1
 175 520 l 1,16,-1
 176 444 l 1,17,-1
 178 444 l 1,18,19
 210 485 210 485 257.5 507.5 c 128,-1,20
 305 530 305 530 362 530 c 0,21,0
 448 530 448 530 490 478 c 128,-1,1
EndSplineSet
EndChar

StartChar: eng
Encoding: 331 331 304
Width: 597
GlyphClass: 2
Flags: W
AnchorPoint: "Anchor-6" 299 520 basechar 0
AnchorPoint: "Anchor-4" 299 0 basechar 0
LayerCount: 2
Fore
SplineSet
490 478 m 128,-1,1
 532 426 532 426 532 320 c 2,2,-1
 532 -26 l 2,3,4
 532 -129 532 -129 490.5 -175 c 128,-1,5
 449 -221 449 -221 356 -221 c 0,6,7
 297 -221 297 -221 242 -205 c 1,8,-1
 259 -114 l 1,9,10
 295 -126 295 -126 334 -126 c 0,11,12
 382 -126 382 -126 403 -102.5 c 128,-1,13
 424 -79 424 -79 424 -26 c 2,14,-1
 424 300 l 2,15,16
 424 369 424 369 401 404.5 c 128,-1,17
 378 440 378 440 332 440 c 0,18,19
 293 440 293 440 258 415.5 c 128,-1,20
 223 391 223 391 201.5 350.5 c 128,-1,21
 180 310 180 310 180 265 c 2,22,-1
 180 0 l 1,23,-1
 72 0 l 1,24,-1
 72 520 l 1,25,-1
 175 520 l 1,26,-1
 176 444 l 1,27,-1
 178 444 l 1,28,29
 210 485 210 485 257.5 507.5 c 128,-1,30
 305 530 305 530 362 530 c 0,31,0
 448 530 448 530 490 478 c 128,-1,1
EndSplineSet
EndChar

StartChar: o
Encoding: 111 111 307
Width: 578
GlyphClass: 2
Flags: W
AnchorPoint: "Anchor-7" 452 480 basechar 0
AnchorPoint: "Anchor-6" 289 520 basechar 0
AnchorPoint: "Anchor-5" 355 0 basechar 0
AnchorPoint: "Anchor-4" 289 0 basechar 0
LayerCount: 2
Fore
SplineSet
102.5 61 m 128,-1,1
 36 132 36 132 36 260 c 256,2,3
 36 388 36 388 102.5 459 c 128,-1,4
 169 530 169 530 289 530 c 256,5,6
 409 530 409 530 475.5 459 c 128,-1,7
 542 388 542 388 542 260 c 256,8,9
 542 132 542 132 475.5 61 c 128,-1,10
 409 -10 409 -10 289 -10 c 256,11,0
 169 -10 169 -10 102.5 61 c 128,-1,1
397 126 m 128,-1,13
 434 172 434 172 434 260 c 256,14,15
 434 348 434 348 397 394 c 128,-1,16
 360 440 360 440 289 440 c 256,17,18
 218 440 218 440 181 394 c 128,-1,19
 144 348 144 348 144 260 c 256,20,21
 144 172 144 172 181 126 c 128,-1,22
 218 80 218 80 289 80 c 256,23,12
 360 80 360 80 397 126 c 128,-1,13
EndSplineSet
Substitution2: "Single Substitution lookup 21 subtable" ordmasculine
Substitution2: "'aalt' Access All Alternates in Latin lookup 0 subtable" ordmasculine
EndChar

StartChar: uni1ED1
Encoding: 7889 7889 311
Width: 578
GlyphClass: 2
Flags: W
AnchorPoint: "Anchor-7" 452 480 basechar 0
AnchorPoint: "Anchor-6" 289 520 basechar 0
AnchorPoint: "Anchor-5" 355 0 basechar 0
AnchorPoint: "Anchor-4" 289 0 basechar 0
LayerCount: 2
Fore
SplineSet
288 720 m 1,0,-1
 198 560 l 1,1,-1
 68 560 l 1,2,-1
 192 770 l 1,3,-1
 382 770 l 1,4,-1
 463 950 l 1,5,-1
 603 950 l 1,6,-1
 478 740 l 1,7,-1
 403 740 l 1,8,-1
 510 560 l 1,9,-1
 380 560 l 1,10,-1
 290 720 l 1,11,-1
 288 720 l 1,0,-1
475.5 459 m 128,-1,13
 542 388 542 388 542 260 c 256,14,15
 542 132 542 132 475.5 61 c 128,-1,16
 409 -10 409 -10 289 -10 c 256,17,18
 169 -10 169 -10 102.5 61 c 128,-1,19
 36 132 36 132 36 260 c 256,20,21
 36 388 36 388 102.5 459 c 128,-1,22
 169 530 169 530 289 530 c 256,23,12
 409 530 409 530 475.5 459 c 128,-1,13
397 126 m 128,-1,25
 434 172 434 172 434 260 c 256,26,27
 434 348 434 348 397 394 c 128,-1,28
 360 440 360 440 289 440 c 256,29,30
 218 440 218 440 181 394 c 128,-1,31
 144 348 144 348 144 260 c 256,32,33
 144 172 144 172 181 126 c 128,-1,34
 218 80 218 80 289 80 c 256,35,24
 360 80 360 80 397 126 c 128,-1,25
EndSplineSet
EndChar

StartChar: uni1ED3
Encoding: 7891 7891 313
Width: 578
GlyphClass: 2
Flags: W
AnchorPoint: "Anchor-7" 452 480 basechar 0
AnchorPoint: "Anchor-6" 289 520 basechar 0
AnchorPoint: "Anchor-5" 355 0 basechar 0
AnchorPoint: "Anchor-4" 289 0 basechar 0
LayerCount: 2
Fore
SplineSet
174 740 m 1,0,-1
 100 740 l 1,1,-1
 -25 950 l 1,2,-1
 115 950 l 1,3,-1
 196 770 l 1,4,-1
 385 770 l 1,5,-1
 510 560 l 1,6,-1
 380 560 l 1,7,-1
 290 720 l 1,8,-1
 288 720 l 1,9,-1
 198 560 l 1,10,-1
 68 560 l 1,11,-1
 174 740 l 1,0,-1
475.5 459 m 128,-1,13
 542 388 542 388 542 260 c 256,14,15
 542 132 542 132 475.5 61 c 128,-1,16
 409 -10 409 -10 289 -10 c 256,17,18
 169 -10 169 -10 102.5 61 c 128,-1,19
 36 132 36 132 36 260 c 256,20,21
 36 388 36 388 102.5 459 c 128,-1,22
 169 530 169 530 289 530 c 256,23,12
 409 530 409 530 475.5 459 c 128,-1,13
397 126 m 128,-1,25
 434 172 434 172 434 260 c 256,26,27
 434 348 434 348 397 394 c 128,-1,28
 360 440 360 440 289 440 c 256,29,30
 218 440 218 440 181 394 c 128,-1,31
 144 348 144 348 144 260 c 256,32,33
 144 172 144 172 181 126 c 128,-1,34
 218 80 218 80 289 80 c 256,35,24
 360 80 360 80 397 126 c 128,-1,25
EndSplineSet
EndChar

StartChar: uni1ED5
Encoding: 7893 7893 314
Width: 578
GlyphClass: 2
Flags: W
AnchorPoint: "Anchor-7" 452 480 basechar 0
AnchorPoint: "Anchor-6" 339 928 basechar 0
AnchorPoint: "Anchor-5" 355 0 basechar 0
AnchorPoint: "Anchor-4" 289 0 basechar 0
LayerCount: 2
Fore
SplineSet
377 770 m 1,0,1
 381 796 381 796 381 804 c 0,2,3
 381 826 381 826 366.5 833.5 c 128,-1,4
 352 841 352 841 313 841 c 0,5,6
 249 841 249 841 189 823 c 1,7,-1
 179 910 l 1,8,9
 254 928 254 928 339 928 c 0,10,11
 401 928 401 928 435 920.5 c 128,-1,12
 469 913 469 913 483.5 895.5 c 128,-1,13
 498 878 498 878 498 845 c 0,14,15
 498 821 498 821 492.5 791 c 128,-1,16
 487 761 487 761 478 738 c 1,17,-1
 404 738 l 1,18,-1
 510 560 l 1,19,-1
 380 560 l 1,20,-1
 290 720 l 1,21,-1
 288 720 l 1,22,-1
 198 560 l 1,23,-1
 68 560 l 1,24,-1
 192 770 l 1,25,-1
 377 770 l 1,0,1
475.5 459 m 128,-1,27
 542 388 542 388 542 260 c 256,28,29
 542 132 542 132 475.5 61 c 128,-1,30
 409 -10 409 -10 289 -10 c 256,31,32
 169 -10 169 -10 102.5 61 c 128,-1,33
 36 132 36 132 36 260 c 256,34,35
 36 388 36 388 102.5 459 c 128,-1,36
 169 530 169 530 289 530 c 256,37,26
 409 530 409 530 475.5 459 c 128,-1,27
397 126 m 128,-1,39
 434 172 434 172 434 260 c 256,40,41
 434 348 434 348 397 394 c 128,-1,42
 360 440 360 440 289 440 c 256,43,44
 218 440 218 440 181 394 c 128,-1,45
 144 348 144 348 144 260 c 256,46,47
 144 172 144 172 181 126 c 128,-1,48
 218 80 218 80 289 80 c 256,49,38
 360 80 360 80 397 126 c 128,-1,39
EndSplineSet
EndChar

StartChar: ohorn
Encoding: 417 417 323
Width: 638
GlyphClass: 2
Flags: W
AnchorPoint: "Anchor-7" 690 630 basechar 0
AnchorPoint: "Anchor-6" 289 520 basechar 0
AnchorPoint: "Anchor-5" 355 0 basechar 0
AnchorPoint: "Anchor-4" 289 0 basechar 0
LayerCount: 2
Fore
SplineSet
635.5 403.5 m 128,-1,1
 602 365 602 365 541 365 c 2,2,-1
 528 365 l 1,3,4
 542 317 542 317 542 260 c 0,5,6
 542 132 542 132 475.5 61 c 128,-1,7
 409 -10 409 -10 289 -10 c 256,8,9
 169 -10 169 -10 102.5 61 c 128,-1,10
 36 132 36 132 36 260 c 256,11,12
 36 388 36 388 102.5 459 c 128,-1,13
 169 530 169 530 289 530 c 0,14,15
 403 530 403 530 469 466 c 1,16,17
 483 458 483 458 502 458 c 0,18,19
 528 458 528 458 542.5 475.5 c 128,-1,20
 557 493 557 493 557 524 c 0,21,22
 557 547 557 547 550.5 579 c 128,-1,23
 544 611 544 611 536 630 c 1,24,-1
 649 630 l 1,25,26
 669 568 669 568 669 510 c 0,27,0
 669 442 669 442 635.5 403.5 c 128,-1,1
397 126 m 128,-1,29
 434 172 434 172 434 260 c 256,30,31
 434 348 434 348 397 394 c 128,-1,32
 360 440 360 440 289 440 c 256,33,34
 218 440 218 440 181 394 c 128,-1,35
 144 348 144 348 144 260 c 256,36,37
 144 172 144 172 181 126 c 128,-1,38
 218 80 218 80 289 80 c 256,39,28
 360 80 360 80 397 126 c 128,-1,29
EndSplineSet
EndChar

StartChar: uni01EB
Encoding: 491 491 332
Width: 578
GlyphClass: 2
Flags: W
AnchorPoint: "Anchor-7" 452 480 basechar 0
AnchorPoint: "Anchor-6" 289 520 basechar 0
AnchorPoint: "Anchor-5" 355 0 basechar 0
AnchorPoint: "Anchor-4" 289 0 basechar 0
LayerCount: 2
Fore
SplineSet
270 -93 m 0,1,2
 270 -111 270 -111 287.5 -120.5 c 128,-1,3
 305 -130 305 -130 338 -130 c 0,4,5
 386 -130 386 -130 427 -111 c 1,6,-1
 444 -196 l 1,7,8
 393 -217 393 -217 329 -217 c 0,9,10
 252 -217 252 -217 210 -189.5 c 128,-1,11
 168 -162 168 -162 168 -112 c 0,12,13
 168 -55 168 -55 223 -4 c 1,14,15
 133 15 133 15 84.5 83 c 128,-1,16
 36 151 36 151 36 260 c 0,17,18
 36 388 36 388 102.5 459 c 128,-1,19
 169 530 169 530 289 530 c 256,20,21
 409 530 409 530 475.5 459 c 128,-1,22
 542 388 542 388 542 260 c 0,23,24
 542 148 542 148 491 79.5 c 128,-1,25
 440 11 440 11 346 -5 c 1,26,0
 270 -54 270 -54 270 -93 c 0,1,2
181 126 m 128,-1,28
 218 80 218 80 289 80 c 256,29,30
 360 80 360 80 397 126 c 128,-1,31
 434 172 434 172 434 260 c 256,32,33
 434 348 434 348 397 394 c 128,-1,34
 360 440 360 440 289 440 c 256,35,36
 218 440 218 440 181 394 c 128,-1,37
 144 348 144 348 144 260 c 256,38,27
 144 172 144 172 181 126 c 128,-1,28
EndSplineSet
EndChar

StartChar: oslash
Encoding: 248 248 333
Width: 578
GlyphClass: 2
Flags: W
AnchorPoint: "Anchor-7" 452 480 basechar 0
AnchorPoint: "Anchor-6" 289 520 basechar 0
AnchorPoint: "Anchor-5" 355 0 basechar 0
AnchorPoint: "Anchor-4" 289 0 basechar 0
LayerCount: 2
Fore
SplineSet
542 260 m 0,1,2
 542 132 542 132 475.5 61 c 128,-1,3
 409 -10 409 -10 289 -10 c 0,4,5
 216 -10 216 -10 160 18 c 1,6,-1
 121 -34 l 1,7,-1
 57 14 l 1,8,-1
 97 67 l 1,9,10
 36 137 36 137 36 260 c 0,11,12
 36 388 36 388 102.5 459 c 128,-1,13
 169 530 169 530 289 530 c 0,14,15
 362 530 362 530 418 502 c 1,16,-1
 457 554 l 1,17,-1
 521 506 l 1,18,-1
 481 453 l 1,19,0
 542 383 542 383 542 260 c 0,1,2
162 156 m 1,21,-1
 361 424 l 1,22,23
 332 440 332 440 289 440 c 0,24,25
 218 440 218 440 181 394 c 128,-1,26
 144 348 144 348 144 260 c 0,27,20
 144 198 144 198 162 156 c 1,21,-1
397 126 m 128,-1,29
 434 172 434 172 434 260 c 0,30,31
 434 322 434 322 416 364 c 1,32,-1
 217 96 l 1,33,34
 246 80 246 80 289 80 c 0,35,28
 360 80 360 80 397 126 c 128,-1,29
EndSplineSet
EndChar

StartChar: oe
Encoding: 339 339 337
Width: 954
Flags: W
LayerCount: 2
Fore
SplineSet
918 215 m 1,1,-1
 541 215 l 1,2,3
 553 80 553 80 704 80 c 0,4,5
 745 80 745 80 787.5 89.5 c 128,-1,6
 830 99 830 99 861 115 c 1,7,-1
 885 32 l 1,8,9
 845 12 845 12 796.5 1 c 128,-1,10
 748 -10 748 -10 698 -10 c 0,11,12
 556 -10 556 -10 487 77 c 1,13,14
 455 34 455 34 405 12 c 128,-1,15
 355 -10 355 -10 289 -10 c 0,16,17
 169 -10 169 -10 102.5 61 c 128,-1,18
 36 132 36 132 36 260 c 256,19,20
 36 388 36 388 102.5 459 c 128,-1,21
 169 530 169 530 289 530 c 0,22,23
 421 530 421 530 487 444 c 1,24,25
 552 530 552 530 682 530 c 0,26,27
 798 530 798 530 859 460.5 c 128,-1,28
 920 391 920 391 920 260 c 0,29,0
 920 239 920 239 918 215 c 1,1,-1
581 407 m 128,-1,31
 546 372 546 372 541 300 c 1,32,-1
 818 300 l 1,33,34
 813 374 813 374 780 408 c 128,-1,35
 747 442 747 442 682 442 c 0,36,30
 616 442 616 442 581 407 c 128,-1,31
397 126 m 128,-1,38
 434 172 434 172 434 260 c 256,39,40
 434 348 434 348 397 394 c 128,-1,41
 360 440 360 440 289 440 c 256,42,43
 218 440 218 440 181 394 c 128,-1,44
 144 348 144 348 144 260 c 256,45,46
 144 172 144 172 181 126 c 128,-1,47
 218 80 218 80 289 80 c 256,48,37
 360 80 360 80 397 126 c 128,-1,38
EndSplineSet
EndChar

StartChar: p
Encoding: 112 112 338
Width: 591
Flags: W
LayerCount: 2
Fore
SplineSet
503 460 m 128,-1,1
 555 390 555 390 555 260 c 256,2,3
 555 130 555 130 503 60 c 128,-1,4
 451 -10 451 -10 353 -10 c 0,5,6
 300 -10 300 -10 255 11 c 128,-1,7
 210 32 210 32 182 71 c 1,8,-1
 180 71 l 1,9,-1
 180 -220 l 1,10,-1
 72 -220 l 1,11,-1
 72 520 l 1,12,-1
 175 520 l 1,13,-1
 176 449 l 1,14,-1
 178 449 l 1,15,16
 208 488 208 488 253.5 509 c 128,-1,17
 299 530 299 530 353 530 c 0,18,0
 451 530 451 530 503 460 c 128,-1,1
413.5 128.5 m 128,-1,20
 447 177 447 177 447 260 c 256,21,22
 447 343 447 343 413.5 391.5 c 128,-1,23
 380 440 380 440 322 440 c 0,24,25
 284 440 284 440 251 419 c 128,-1,26
 218 398 218 398 199 362 c 128,-1,27
 180 326 180 326 180 283 c 2,28,-1
 180 237 l 2,29,30
 180 194 180 194 199 158 c 128,-1,31
 218 122 218 122 251 101 c 128,-1,32
 284 80 284 80 322 80 c 0,33,19
 380 80 380 80 413.5 128.5 c 128,-1,20
EndSplineSet
EndChar

StartChar: thorn
Encoding: 254 254 339
Width: 595
Flags: W
LayerCount: 2
Fore
SplineSet
503 460 m 128,-1,1
 555 390 555 390 555 260 c 256,2,3
 555 130 555 130 503 60 c 128,-1,4
 451 -10 451 -10 353 -10 c 0,5,6
 300 -10 300 -10 255 11 c 128,-1,7
 210 32 210 32 182 71 c 1,8,-1
 180 71 l 1,9,-1
 180 -220 l 1,10,-1
 72 -220 l 1,11,-1
 72 750 l 1,12,-1
 180 750 l 1,13,-1
 180 449 l 1,14,-1
 182 449 l 1,15,16
 210 488 210 488 255 509 c 128,-1,17
 300 530 300 530 353 530 c 0,18,0
 451 530 451 530 503 460 c 128,-1,1
413.5 128.5 m 128,-1,20
 447 177 447 177 447 260 c 256,21,22
 447 343 447 343 413.5 391.5 c 128,-1,23
 380 440 380 440 322 440 c 0,24,25
 284 440 284 440 251 419 c 128,-1,26
 218 398 218 398 199 362 c 128,-1,27
 180 326 180 326 180 283 c 2,28,-1
 180 237 l 2,29,30
 180 194 180 194 199 158 c 128,-1,31
 218 122 218 122 251 101 c 128,-1,32
 284 80 284 80 322 80 c 0,33,19
 380 80 380 80 413.5 128.5 c 128,-1,20
EndSplineSet
EndChar

StartChar: q
Encoding: 113 113 340
Width: 591
Flags: W
LayerCount: 2
Fore
SplineSet
519 520 m 1,0,-1
 519 -220 l 1,1,-1
 411 -220 l 1,2,-1
 411 71 l 1,3,-1
 409 71 l 1,4,5
 381 32 381 32 336 11 c 128,-1,6
 291 -10 291 -10 238 -10 c 0,7,8
 140 -10 140 -10 88 60 c 128,-1,9
 36 130 36 130 36 260 c 256,10,11
 36 390 36 390 88 460 c 128,-1,12
 140 530 140 530 238 530 c 0,13,14
 292 530 292 530 337.5 509 c 128,-1,15
 383 488 383 488 413 449 c 1,16,-1
 415 449 l 1,17,-1
 416 520 l 1,18,-1
 519 520 l 1,0,-1
340 101 m 128,-1,20
 373 122 373 122 392 158 c 128,-1,21
 411 194 411 194 411 237 c 2,22,-1
 411 283 l 2,23,24
 411 326 411 326 392 362 c 128,-1,25
 373 398 373 398 340 419 c 128,-1,26
 307 440 307 440 269 440 c 0,27,28
 211 440 211 440 177.5 391.5 c 128,-1,29
 144 343 144 343 144 260 c 256,30,31
 144 177 144 177 177.5 128.5 c 128,-1,32
 211 80 211 80 269 80 c 0,33,19
 307 80 307 80 340 101 c 128,-1,20
EndSplineSet
EndChar

StartChar: r
Encoding: 114 114 341
Width: 435
GlyphClass: 2
Flags: W
AnchorPoint: "Anchor-6" 230 520 basechar 0
AnchorPoint: "Anchor-4" 230 0 basechar 0
LayerCount: 2
Fore
SplineSet
279.5 501 m 128,-1,1
 342 530 342 530 417 530 c 1,2,-1
 417 435 l 1,3,4
 353 435 353 435 298.5 410.5 c 128,-1,5
 244 386 244 386 212.5 343.5 c 128,-1,6
 181 301 181 301 181 250 c 2,7,-1
 181 0 l 1,8,-1
 72 0 l 1,9,-1
 72 520 l 1,10,-1
 176 520 l 1,11,-1
 177 419 l 1,12,-1
 179 419 l 1,13,0
 217 472 217 472 279.5 501 c 128,-1,1
EndSplineSet
EndChar

StartChar: s
Encoding: 115 115 347
Width: 496
GlyphClass: 2
Flags: W
AnchorPoint: "Anchor-6" 249 520 basechar 0
AnchorPoint: "Anchor-4" 249 0 basechar 0
LayerCount: 2
Fore
SplineSet
136.5 1 m 128,-1,1
 81 12 81 12 36 32 c 1,2,-1
 66 117 l 1,3,4
 152 80 152 80 234 80 c 0,5,6
 350 80 350 80 350 143 c 0,7,8
 350 162 350 162 340.5 174.5 c 128,-1,9
 331 187 331 187 306.5 197.5 c 128,-1,10
 282 208 282 208 236 220 c 0,11,12
 129 247 129 247 83.5 285 c 128,-1,13
 38 323 38 323 38 385 c 0,14,15
 38 456 38 456 91 493 c 128,-1,16
 144 530 144 530 245 530 c 0,17,18
 296 530 296 530 350.5 520.5 c 128,-1,19
 405 511 405 511 448 494 c 1,20,-1
 418 409 l 1,21,22
 339 441 339 441 259 441 c 0,23,24
 148 441 148 441 148 385 c 0,25,26
 148 358 148 358 171 342 c 128,-1,27
 194 326 194 326 258 311 c 0,28,29
 363 287 363 287 411.5 247 c 128,-1,30
 460 207 460 207 460 143 c 0,31,32
 460 69 460 69 405.5 29.5 c 128,-1,33
 351 -10 351 -10 248 -10 c 0,34,0
 192 -10 192 -10 136.5 1 c 128,-1,1
EndSplineSet
EndChar

StartChar: scedilla
Encoding: 351 351 350
Width: 496
GlyphClass: 2
Flags: W
AnchorPoint: "Anchor-6" 249 520 basechar 0
AnchorPoint: "Anchor-4" 249 0 basechar 0
LayerCount: 2
Fore
SplineSet
427 48.5 m 128,-1,1
 394 12 394 12 330 -2 c 1,2,3
 387 -55 387 -55 387 -112 c 0,4,5
 387 -162 387 -162 345 -189.5 c 128,-1,6
 303 -217 303 -217 226 -217 c 0,7,8
 162 -217 162 -217 111 -196 c 1,9,-1
 128 -111 l 1,10,11
 169 -130 169 -130 217 -130 c 0,12,13
 250 -130 250 -130 267.5 -120.5 c 128,-1,14
 285 -111 285 -111 285 -93 c 256,15,16
 285 -75 285 -75 266.5 -53 c 128,-1,17
 248 -31 248 -31 215 -9 c 1,18,19
 113 -3 113 -3 36 32 c 1,20,-1
 66 117 l 1,21,22
 152 80 152 80 234 80 c 0,23,24
 350 80 350 80 350 143 c 0,25,26
 350 162 350 162 340.5 174.5 c 128,-1,27
 331 187 331 187 306.5 197.5 c 128,-1,28
 282 208 282 208 236 220 c 0,29,30
 129 247 129 247 83.5 285 c 128,-1,31
 38 323 38 323 38 385 c 0,32,33
 38 456 38 456 91 493 c 128,-1,34
 144 530 144 530 245 530 c 0,35,36
 296 530 296 530 350.5 520.5 c 128,-1,37
 405 511 405 511 448 494 c 1,38,-1
 418 409 l 1,39,40
 339 441 339 441 259 441 c 0,41,42
 148 441 148 441 148 385 c 0,43,44
 148 358 148 358 171 342 c 128,-1,45
 194 326 194 326 258 311 c 0,46,47
 363 287 363 287 411.5 247 c 128,-1,48
 460 207 460 207 460 143 c 0,49,0
 460 85 460 85 427 48.5 c 128,-1,1
EndSplineSet
Substitution2: "'locl' Localized Forms in Latin lookup 4 subtable" uni0219
Substitution2: "'aalt' Access All Alternates in Latin lookup 0 subtable" uni0219
EndChar

StartChar: germandbls
Encoding: 223 223 353
Width: 604
Flags: W
LayerCount: 2
Fore
SplineSet
235 8 m 1,1,-1
 250 103 l 1,2,3
 309 85 309 85 353 85 c 0,4,5
 401 85 401 85 429.5 106.5 c 128,-1,6
 458 128 458 128 458 164 c 0,7,8
 458 186 458 186 440.5 210.5 c 128,-1,9
 423 235 423 235 361 300 c 0,10,11
 329 334 329 334 316 356.5 c 128,-1,12
 303 379 303 379 303 398 c 0,13,14
 303 414 303 414 313.5 433 c 128,-1,15
 324 452 324 452 353 489 c 0,16,17
 393 538 393 538 408 563.5 c 128,-1,18
 423 589 423 589 423 609 c 0,19,20
 423 638 423 638 395 651.5 c 128,-1,21
 367 665 367 665 308 665 c 0,22,23
 257 665 257 665 230 653.5 c 128,-1,24
 203 642 203 642 191.5 615 c 128,-1,25
 180 588 180 588 180 537 c 2,26,-1
 180 0 l 1,27,-1
 72 0 l 1,28,-1
 72 538 l 2,29,30
 72 653 72 653 127.5 706.5 c 128,-1,31
 183 760 183 760 303 760 c 0,32,33
 410 760 410 760 469.5 722 c 128,-1,34
 529 684 529 684 529 615 c 0,35,36
 529 584 529 584 514 553.5 c 128,-1,37
 499 523 499 523 458 469 c 0,38,39
 432 435 432 435 423 420 c 128,-1,40
 414 405 414 405 414 398 c 0,41,42
 414 389 414 389 424.5 375 c 128,-1,43
 435 361 435 361 470 324 c 0,44,45
 524 266 524 266 544 229.5 c 128,-1,46
 564 193 564 193 564 153 c 0,47,48
 564 77 564 77 512.5 33.5 c 128,-1,49
 461 -10 461 -10 370 -10 c 0,50,0
 307 -10 307 -10 235 8 c 1,1,-1
EndSplineSet
EndChar

StartChar: t
Encoding: 116 116 354
Width: 482
GlyphClass: 2
Flags: W
AnchorPoint: "Anchor-8" 234 0 basechar 0
AnchorPoint: "Anchor-7" 461 520 basechar 0
AnchorPoint: "Anchor-6" 241 520 basechar 0
AnchorPoint: "Anchor-4" 241 0 basechar 0
LayerCount: 2
Fore
SplineSet
177 29 m 128,-1,1
 140 68 140 68 140 160 c 2,2,-1
 140 430 l 1,3,-1
 18 430 l 1,4,-1
 18 520 l 1,5,-1
 140 520 l 1,6,-1
 140 710 l 1,7,-1
 249 710 l 1,8,-1
 249 520 l 1,9,-1
 427 520 l 1,10,-1
 427 430 l 1,11,-1
 249 430 l 1,12,-1
 249 180 l 2,13,14
 249 140 249 140 256 119 c 128,-1,15
 263 98 263 98 280 89 c 128,-1,16
 297 80 297 80 329 80 c 0,17,18
 370 80 370 80 414 94 c 1,19,-1
 429 8 l 1,20,21
 363 -10 363 -10 302 -10 c 0,22,0
 214 -10 214 -10 177 29 c 128,-1,1
EndSplineSet
EndChar

StartChar: tbar
Encoding: 359 359 355
Width: 473
GlyphClass: 2
Flags: W
AnchorPoint: "Anchor-8" 234 0 basechar 0
AnchorPoint: "Anchor-7" 461 520 basechar 0
AnchorPoint: "Anchor-6" 241 520 basechar 0
AnchorPoint: "Anchor-4" 241 0 basechar 0
LayerCount: 2
Fore
SplineSet
429 8 m 1,0,1
 363 -10 363 -10 302 -10 c 0,2,3
 214 -10 214 -10 177 29 c 128,-1,4
 140 68 140 68 140 160 c 2,5,-1
 140 205 l 1,6,-1
 18 205 l 1,7,-1
 18 295 l 1,8,-1
 140 295 l 1,9,-1
 140 430 l 1,10,-1
 18 430 l 1,11,-1
 18 520 l 1,12,-1
 140 520 l 1,13,-1
 140 710 l 1,14,-1
 249 710 l 1,15,-1
 249 520 l 1,16,-1
 427 520 l 1,17,-1
 427 430 l 1,18,-1
 249 430 l 1,19,-1
 249 295 l 1,20,-1
 418 295 l 1,21,-1
 418 205 l 1,22,-1
 249 205 l 1,23,-1
 249 180 l 2,24,25
 249 140 249 140 256 119 c 128,-1,26
 263 98 263 98 280 89 c 128,-1,27
 297 80 297 80 329 80 c 0,28,29
 370 80 370 80 414 94 c 1,30,-1
 429 8 l 1,0,1
EndSplineSet
EndChar

StartChar: uni0163
Encoding: 355 355 357
Width: 482
GlyphClass: 2
Flags: W
AnchorPoint: "Anchor-8" 234 0 basechar 0
AnchorPoint: "Anchor-7" 461 520 basechar 0
AnchorPoint: "Anchor-6" 241 520 basechar 0
AnchorPoint: "Anchor-4" 241 0 basechar 0
LayerCount: 2
Fore
SplineSet
421 -112 m 0,1,2
 421 -162 421 -162 379 -189.5 c 128,-1,3
 337 -217 337 -217 260 -217 c 0,4,5
 196 -217 196 -217 145 -196 c 1,6,-1
 162 -111 l 1,7,8
 203 -130 203 -130 251 -130 c 0,9,10
 284 -130 284 -130 301.5 -120.5 c 128,-1,11
 319 -111 319 -111 319 -93 c 0,12,13
 319 -73 319 -73 298.5 -50 c 128,-1,14
 278 -27 278 -27 241 -4 c 1,15,16
 187 7 187 7 163.5 46 c 128,-1,17
 140 85 140 85 140 160 c 2,18,-1
 140 430 l 1,19,-1
 18 430 l 1,20,-1
 18 520 l 1,21,-1
 140 520 l 1,22,-1
 140 710 l 1,23,-1
 249 710 l 1,24,-1
 249 520 l 1,25,-1
 427 520 l 1,26,-1
 427 430 l 1,27,-1
 249 430 l 1,28,-1
 249 180 l 2,29,30
 249 140 249 140 256 119 c 128,-1,31
 263 98 263 98 280 89 c 128,-1,32
 297 80 297 80 329 80 c 0,33,34
 370 80 370 80 414 94 c 1,35,-1
 429 8 l 1,36,37
 401 0 401 0 368 -5 c 1,38,0
 421 -56 421 -56 421 -112 c 0,1,2
EndSplineSet
Substitution2: "'locl' Localized Forms in Latin lookup 4 subtable" uni021B
Substitution2: "'aalt' Access All Alternates in Latin lookup 0 subtable" uni021B
EndChar

StartChar: u
Encoding: 117 117 359
Width: 587
GlyphClass: 2
Flags: W
AnchorPoint: "Anchor-7" 500 480 basechar 0
AnchorPoint: "Anchor-6" 294 520 basechar 0
AnchorPoint: "Anchor-5" 515 0 basechar 0
AnchorPoint: "Anchor-4" 294 0 basechar 0
LayerCount: 2
Fore
SplineSet
515 520 m 1,0,-1
 515 0 l 1,1,-1
 412 0 l 1,2,-1
 411 76 l 1,3,-1
 409 76 l 1,4,5
 376 35 376 35 328 12.5 c 128,-1,6
 280 -10 280 -10 225 -10 c 0,7,8
 143 -10 143 -10 104 41 c 128,-1,9
 65 92 65 92 65 200 c 2,10,-1
 65 520 l 1,11,-1
 173 520 l 1,12,-1
 173 220 l 2,13,14
 173 147 173 147 192.5 113.5 c 128,-1,15
 212 80 212 80 255 80 c 0,16,17
 294 80 294 80 329 104.5 c 128,-1,18
 364 129 364 129 385.5 169.5 c 128,-1,19
 407 210 407 210 407 255 c 2,20,-1
 407 520 l 1,21,-1
 515 520 l 1,0,-1
EndSplineSet
EndChar

StartChar: uhorn
Encoding: 432 432 368
Width: 672
GlyphClass: 2
Flags: W
AnchorPoint: "Anchor-7" 738 630 basechar 0
AnchorPoint: "Anchor-6" 294 520 basechar 0
AnchorPoint: "Anchor-5" 515 0 basechar 0
AnchorPoint: "Anchor-4" 294 0 basechar 0
LayerCount: 2
Fore
SplineSet
717 510 m 0,1,2
 717 442 717 442 683.5 403.5 c 128,-1,3
 650 365 650 365 589 365 c 0,4,5
 554 365 554 365 515 379 c 1,6,-1
 515 0 l 1,7,-1
 412 0 l 1,8,-1
 411 76 l 1,9,-1
 409 76 l 1,10,11
 376 35 376 35 328 12.5 c 128,-1,12
 280 -10 280 -10 225 -10 c 0,13,14
 143 -10 143 -10 104 41 c 128,-1,15
 65 92 65 92 65 200 c 2,16,-1
 65 520 l 1,17,-1
 173 520 l 1,18,-1
 173 220 l 2,19,20
 173 147 173 147 192.5 113.5 c 128,-1,21
 212 80 212 80 255 80 c 0,22,23
 294 80 294 80 329 104.5 c 128,-1,24
 364 129 364 129 385.5 169.5 c 128,-1,25
 407 210 407 210 407 255 c 2,26,-1
 407 520 l 1,27,-1
 515 520 l 1,28,-1
 515 467 l 1,29,30
 530 458 530 458 550 458 c 0,31,32
 576 458 576 458 590.5 475.5 c 128,-1,33
 605 493 605 493 605 524 c 0,34,35
 605 547 605 547 598.5 579 c 128,-1,36
 592 611 592 611 584 630 c 1,37,-1
 697 630 l 1,38,0
 717 568 717 568 717 510 c 0,1,2
EndSplineSet
EndChar

StartChar: uogonek
Encoding: 371 371 377
Width: 587
GlyphClass: 2
Flags: W
AnchorPoint: "Anchor-7" 500 480 basechar 0
AnchorPoint: "Anchor-6" 294 520 basechar 0
AnchorPoint: "Anchor-5" 515 0 basechar 0
AnchorPoint: "Anchor-4" 294 0 basechar 0
LayerCount: 2
Fore
SplineSet
604 -196 m 1,0,1
 553 -217 553 -217 489 -217 c 0,2,3
 412 -217 412 -217 370 -189.5 c 128,-1,4
 328 -162 328 -162 328 -112 c 0,5,6
 328 -41 328 -41 412 20 c 1,7,-1
 411 76 l 1,8,-1
 409 76 l 1,9,10
 376 35 376 35 328 12.5 c 128,-1,11
 280 -10 280 -10 225 -10 c 0,12,13
 143 -10 143 -10 104 41 c 128,-1,14
 65 92 65 92 65 200 c 2,15,-1
 65 520 l 1,16,-1
 173 520 l 1,17,-1
 173 220 l 2,18,19
 173 147 173 147 192.5 113.5 c 128,-1,20
 212 80 212 80 255 80 c 0,21,22
 294 80 294 80 329 104.5 c 128,-1,23
 364 129 364 129 385.5 169.5 c 128,-1,24
 407 210 407 210 407 255 c 2,25,-1
 407 520 l 1,26,-1
 515 520 l 1,27,-1
 515 0 l 1,28,29
 475 -24 475 -24 452.5 -48.5 c 128,-1,30
 430 -73 430 -73 430 -93 c 0,31,32
 430 -111 430 -111 447.5 -120.5 c 128,-1,33
 465 -130 465 -130 498 -130 c 0,34,35
 546 -130 546 -130 587 -111 c 1,36,-1
 604 -196 l 1,0,1
EndSplineSet
EndChar

StartChar: v
Encoding: 118 118 380
Width: 534
Flags: W
LayerCount: 2
Fore
SplineSet
10 520 m 1,0,-1
 128 520 l 1,1,-1
 266 78 l 1,2,-1
 268 78 l 1,3,-1
 406 520 l 1,4,-1
 524 520 l 1,5,-1
 343 0 l 1,6,-1
 191 0 l 1,7,-1
 10 520 l 1,0,-1
EndSplineSet
EndChar

StartChar: w
Encoding: 119 119 381
Width: 790
GlyphClass: 2
Flags: W
AnchorPoint: "Anchor-6" 395 520 basechar 0
AnchorPoint: "Anchor-4" 395 0 basechar 0
LayerCount: 2
Fore
SplineSet
24 520 m 1,0,-1
 142 520 l 1,1,-1
 231 105 l 1,2,-1
 233 105 l 1,3,-1
 322 520 l 1,4,-1
 468 520 l 1,5,-1
 557 105 l 1,6,-1
 559 105 l 1,7,-1
 648 520 l 1,8,-1
 766 520 l 1,9,-1
 625 0 l 1,10,-1
 485 0 l 1,11,-1
 396 405 l 1,12,-1
 394 405 l 1,13,-1
 305 0 l 1,14,-1
 165 0 l 1,15,-1
 24 520 l 1,0,-1
EndSplineSet
EndChar

StartChar: x
Encoding: 120 120 386
Width: 554
Flags: W
LayerCount: 2
Fore
SplineSet
199 262 m 1,0,-1
 39 520 l 1,1,-1
 163 520 l 1,2,-1
 276 320 l 1,3,-1
 278 320 l 1,4,-1
 391 520 l 1,5,-1
 515 520 l 1,6,-1
 355 262 l 1,7,-1
 519 0 l 1,8,-1
 395 0 l 1,9,-1
 278 204 l 1,10,-1
 276 204 l 1,11,-1
 159 0 l 1,12,-1
 35 0 l 1,13,-1
 199 262 l 1,0,-1
EndSplineSet
EndChar

StartChar: y
Encoding: 121 121 387
Width: 535
GlyphClass: 2
Flags: W
AnchorPoint: "Anchor-6" 268 520 basechar 0
AnchorPoint: "Anchor-4" 268 0 basechar 0
LayerCount: 2
Fore
SplineSet
409 520 m 1,0,-1
 529 520 l 1,1,-1
 233 -220 l 1,2,-1
 116 -220 l 1,3,-1
 214 -7 l 1,4,-1
 9 520 l 1,5,-1
 129 520 l 1,6,-1
 266 118 l 1,7,-1
 268 118 l 1,8,-1
 409 520 l 1,0,-1
EndSplineSet
EndChar

StartChar: z
Encoding: 122 122 396
Width: 528
GlyphClass: 2
Flags: W
AnchorPoint: "Anchor-6" 264 520 basechar 0
AnchorPoint: "Anchor-4" 264 0 basechar 0
LayerCount: 2
Fore
SplineSet
54 90 m 1,0,-1
 338 428 l 1,1,-1
 338 430 l 1,2,-1
 54 430 l 1,3,-1
 54 520 l 1,4,-1
 474 520 l 1,5,-1
 474 430 l 1,6,-1
 190 92 l 1,7,-1
 190 90 l 1,8,-1
 474 90 l 1,9,-1
 474 0 l 1,10,-1
 54 0 l 1,11,-1
 54 90 l 1,0,-1
EndSplineSet
EndChar

StartChar: f_f
Encoding: 1114114 -1 400
Width: 830
GlyphClass: 3
Flags: W
LayerCount: 2
Fore
SplineSet
639 520 m 1,0,-1
 801 520 l 1,1,-1
 801 430 l 1,2,-1
 639 430 l 1,3,-1
 639 0 l 1,4,-1
 529 0 l 1,5,-1
 529 430 l 1,6,-1
 269 430 l 1,7,-1
 269 0 l 1,8,-1
 159 0 l 1,9,-1
 159 430 l 1,10,-1
 22 430 l 1,11,-1
 22 520 l 1,12,-1
 159 520 l 1,13,-1
 159 575 l 2,14,15
 159 760 159 760 326 760 c 0,16,17
 378 760 378 760 438 745 c 1,18,-1
 422 657 l 1,19,20
 380 670 380 670 343 670 c 0,21,22
 301 670 301 670 285 649.5 c 128,-1,23
 269 629 269 629 269 575 c 2,24,-1
 269 520 l 1,25,-1
 529 520 l 1,26,-1
 529 575 l 2,27,28
 529 760 529 760 696 760 c 0,29,30
 748 760 748 760 808 745 c 1,31,-1
 792 657 l 1,32,33
 750 670 750 670 713 670 c 0,34,35
 671 670 671 670 655 649.5 c 128,-1,36
 639 629 639 629 639 575 c 2,37,-1
 639 520 l 1,0,-1
EndSplineSet
Ligature2: "'liga' Standard Ligatures in Latin lookup 14 subtable" f f
EndChar

StartChar: ordfeminine
Encoding: 170 170 405
Width: 447
Flags: W
LayerCount: 2
Fore
SplineSet
349 700 m 128,-1,1
 388 662 388 662 388 574 c 2,2,-1
 388 314 l 1,3,-1
 289 314 l 1,4,-1
 288 361 l 1,5,-1
 286 361 l 1,6,7
 267 336 267 336 233 321 c 128,-1,8
 199 306 199 306 161 306 c 0,9,10
 101 306 101 306 63.5 341.5 c 128,-1,11
 26 377 26 377 26 433 c 0,12,13
 26 505 26 505 88.5 544 c 128,-1,14
 151 583 151 583 266 583 c 2,15,-1
 285 583 l 1,16,17
 283 628 283 628 265.5 645 c 128,-1,18
 248 662 248 662 205 662 c 0,19,20
 131 662 131 662 59 625 c 1,21,-1
 44 700 l 1,22,23
 128 738 128 738 221 738 c 0,24,0
 310 738 310 738 349 700 c 128,-1,1
258 409.5 m 128,-1,26
 285 434 285 434 285 473 c 2,27,-1
 285 512 l 1,28,-1
 256 512 l 2,29,30
 117 512 117 512 117 442 c 0,31,32
 117 415 117 415 136 400 c 128,-1,33
 155 385 155 385 188 385 c 0,34,25
 231 385 231 385 258 409.5 c 128,-1,26
EndSplineSet
EndChar

StartChar: ordmasculine
Encoding: 186 186 406
Width: 468
Flags: W
LayerCount: 2
Fore
SplineSet
84.5 362.5 m 128,-1,1
 32 419 32 419 32 522 c 256,2,3
 32 625 32 625 84.5 681.5 c 128,-1,4
 137 738 137 738 234 738 c 256,5,6
 331 738 331 738 383.5 681.5 c 128,-1,7
 436 625 436 625 436 522 c 256,8,9
 436 419 436 419 383.5 362.5 c 128,-1,10
 331 306 331 306 234 306 c 256,11,0
 137 306 137 306 84.5 362.5 c 128,-1,1
308 421 m 128,-1,13
 333 455 333 455 333 522 c 256,14,15
 333 589 333 589 308 623 c 128,-1,16
 283 657 283 657 234 657 c 0,17,18
 186 657 186 657 161 623 c 128,-1,19
 136 589 136 589 136 522 c 256,20,21
 136 455 136 455 161 421 c 128,-1,22
 186 387 186 387 234 387 c 0,23,12
 283 387 283 387 308 421 c 128,-1,13
EndSplineSet
EndChar

StartChar: zero.lf
Encoding: 1114117 -1 417
Width: 630
Flags: W
LayerCount: 2
Fore
SplineSet
108 82.5 m 128,-1,1
 40 175 40 175 40 365 c 256,2,3
 40 555 40 555 108 647.5 c 128,-1,4
 176 740 176 740 315 740 c 256,5,6
 454 740 454 740 522 647.5 c 128,-1,7
 590 555 590 555 590 365 c 256,8,9
 590 175 590 175 522 82.5 c 128,-1,10
 454 -10 454 -10 315 -10 c 256,11,0
 176 -10 176 -10 108 82.5 c 128,-1,1
437.5 157 m 128,-1,13
 477 224 477 224 477 365 c 256,14,15
 477 506 477 506 437.5 573 c 128,-1,16
 398 640 398 640 315 640 c 256,17,18
 232 640 232 640 192.5 573 c 128,-1,19
 153 506 153 506 153 365 c 256,20,21
 153 224 153 224 192.5 157 c 128,-1,22
 232 90 232 90 315 90 c 256,23,12
 398 90 398 90 437.5 157 c 128,-1,13
EndSplineSet
Substitution2: "'tnum' Tabular Numbers in Latin lookup 11 subtable" zero
AlternateSubs2: "'aalt' Access All Alternates in Latin lookup 1 subtable" zero
EndChar

StartChar: one.lf
Encoding: 1114118 -1 418
Width: 630
Flags: W
LayerCount: 2
Fore
SplineSet
315 586 m 1,0,-1
 313 586 l 1,1,-1
 98 387 l 1,2,-1
 48 482 l 1,3,-1
 313 730 l 1,4,-1
 428 730 l 1,5,-1
 428 0 l 1,6,-1
 315 0 l 1,7,-1
 315 586 l 1,0,-1
EndSplineSet
Substitution2: "'tnum' Tabular Numbers in Latin lookup 11 subtable" one
AlternateSubs2: "'aalt' Access All Alternates in Latin lookup 1 subtable" one
EndChar

StartChar: two.lf
Encoding: 1114119 -1 419
Width: 630
Flags: W
LayerCount: 2
Fore
SplineSet
283 283 m 128,-1,1
 360 358 360 358 394 414 c 128,-1,2
 428 470 428 470 428 520 c 0,3,4
 428 575 428 575 391.5 607.5 c 128,-1,5
 355 640 355 640 293 640 c 0,6,7
 202 640 202 640 96 564 c 1,8,-1
 56 659 l 1,9,10
 104 696 104 696 172.5 718 c 128,-1,11
 241 740 241 740 308 740 c 0,12,13
 415 740 415 740 478 683 c 128,-1,14
 541 626 541 626 541 530 c 0,15,16
 541 436 541 436 471 337.5 c 128,-1,17
 401 239 401 239 239 102 c 1,18,-1
 239 100 l 1,19,-1
 548 100 l 1,20,-1
 548 0 l 1,21,-1
 73 0 l 1,22,-1
 73 100 l 1,23,0
 206 208 206 208 283 283 c 128,-1,1
EndSplineSet
Substitution2: "'tnum' Tabular Numbers in Latin lookup 11 subtable" two
AlternateSubs2: "'aalt' Access All Alternates in Latin lookup 1 subtable" two
EndChar

StartChar: three.lf
Encoding: 1114120 -1 420
Width: 630
Flags: W
LayerCount: 2
Fore
SplineSet
65 49 m 1,1,-1
 102 136 l 1,2,3
 186 88 186 88 273 88 c 0,4,5
 352 88 352 88 393.5 122.5 c 128,-1,6
 435 157 435 157 435 223 c 0,7,8
 435 286 435 286 390 313 c 128,-1,9
 345 340 345 340 237 340 c 2,10,-1
 177 340 l 1,11,-1
 177 436 l 1,12,-1
 389 630 l 1,13,-1
 389 632 l 1,14,-1
 78 632 l 1,15,-1
 78 730 l 1,16,-1
 538 730 l 1,17,-1
 538 631 l 1,18,-1
 325 437 l 1,19,-1
 325 435 l 1,20,-1
 332 435 l 2,21,22
 437 435 437 435 492.5 381.5 c 128,-1,23
 548 328 548 328 548 225 c 0,24,25
 548 112 548 112 479 51 c 128,-1,26
 410 -10 410 -10 283 -10 c 0,27,0
 163 -10 163 -10 65 49 c 1,1,-1
EndSplineSet
Substitution2: "'tnum' Tabular Numbers in Latin lookup 11 subtable" three
AlternateSubs2: "'aalt' Access All Alternates in Latin lookup 1 subtable" three
EndChar

StartChar: four.lf
Encoding: 1114121 -1 421
Width: 630
Flags: W
LayerCount: 2
Fore
SplineSet
365 153 m 1,0,-1
 15 153 l 1,1,-1
 15 253 l 1,2,-1
 365 730 l 1,3,-1
 475 730 l 1,4,-1
 475 253 l 1,5,-1
 590 253 l 1,6,-1
 590 153 l 1,7,-1
 475 153 l 1,8,-1
 475 0 l 1,9,-1
 365 0 l 1,10,-1
 365 153 l 1,0,-1
365 253 m 1,11,-1
 365 553 l 1,12,-1
 363 553 l 1,13,-1
 145 255 l 1,14,-1
 145 253 l 1,15,-1
 365 253 l 1,11,-1
EndSplineSet
Substitution2: "'tnum' Tabular Numbers in Latin lookup 11 subtable" four
AlternateSubs2: "'aalt' Access All Alternates in Latin lookup 1 subtable" four
EndChar

StartChar: five.lf
Encoding: 1114122 -1 422
Width: 630
Flags: W
LayerCount: 2
Fore
SplineSet
72 39 m 1,1,-1
 104 130 l 1,2,3
 188 88 188 88 272 88 c 0,4,5
 355 88 355 88 400.5 127.5 c 128,-1,6
 446 167 446 167 446 240 c 0,7,8
 446 305 446 305 410 339 c 128,-1,9
 374 373 374 373 307 373 c 0,10,11
 272 373 272 373 245 363 c 128,-1,12
 218 353 218 353 189 330 c 1,13,-1
 94 330 l 1,14,-1
 117 730 l 1,15,-1
 527 730 l 1,16,-1
 527 632 l 1,17,-1
 217 632 l 1,18,-1
 204 438 l 1,19,-1
 206 438 l 1,20,21
 234 454 234 454 260.5 461 c 128,-1,22
 287 468 287 468 322 468 c 0,23,24
 435 468 435 468 497 408.5 c 128,-1,25
 559 349 559 349 559 240 c 0,26,27
 559 122 559 122 484.5 56 c 128,-1,28
 410 -10 410 -10 277 -10 c 0,29,0
 166 -10 166 -10 72 39 c 1,1,-1
EndSplineSet
Substitution2: "'tnum' Tabular Numbers in Latin lookup 11 subtable" five
AlternateSubs2: "'aalt' Access All Alternates in Latin lookup 1 subtable" five
EndChar

StartChar: six.lf
Encoding: 1114123 -1 423
Width: 630
Flags: W
LayerCount: 2
Fore
SplineSet
117.5 60 m 128,-1,1
 48 130 48 130 48 258 c 0,2,3
 48 394 48 394 95 499 c 128,-1,4
 142 604 142 604 229.5 666 c 128,-1,5
 317 728 317 728 435 739 c 1,6,-1
 455 644 l 1,7,8
 239 620 239 620 177 438 c 1,9,-1
 179 437 l 1,10,11
 247 490 247 490 340 490 c 0,12,13
 453 490 453 490 518 424 c 128,-1,14
 583 358 583 358 583 243 c 0,15,16
 583 126 583 126 511 58 c 128,-1,17
 439 -10 439 -10 315 -10 c 0,18,0
 187 -10 187 -10 117.5 60 c 128,-1,1
431.5 129 m 128,-1,20
 473 170 473 170 473 242 c 0,21,22
 473 315 473 315 431.5 355 c 128,-1,23
 390 395 390 395 315 395 c 256,24,25
 240 395 240 395 199 355 c 128,-1,26
 158 315 158 315 158 242 c 0,27,28
 158 170 158 170 199.5 129 c 128,-1,29
 241 88 241 88 315 88 c 0,30,19
 390 88 390 88 431.5 129 c 128,-1,20
EndSplineSet
Substitution2: "'tnum' Tabular Numbers in Latin lookup 11 subtable" six
AlternateSubs2: "'aalt' Access All Alternates in Latin lookup 1 subtable" six
EndChar

StartChar: seven.lf
Encoding: 1114124 -1 424
Width: 630
Flags: W
LayerCount: 2
Fore
SplineSet
440 628 m 1,1,-1
 440 630 l 1,2,-1
 73 630 l 1,3,-1
 73 730 l 1,4,-1
 563 730 l 1,5,-1
 563 640 l 1,6,7
 481 502 481 502 415 349 c 128,-1,8
 349 196 349 196 285 0 c 1,9,-1
 160 0 l 1,10,0
 278 346 278 346 440 628 c 1,1,-1
EndSplineSet
Substitution2: "'tnum' Tabular Numbers in Latin lookup 11 subtable" seven
AlternateSubs2: "'aalt' Access All Alternates in Latin lookup 1 subtable" seven
EndChar

StartChar: eight.lf
Encoding: 1114125 -1 425
Width: 630
Flags: W
LayerCount: 2
Fore
SplineSet
169 15 m 128,-1,1
 107 40 107 40 73.5 86.5 c 128,-1,2
 40 133 40 133 40 195 c 0,3,4
 40 260 40 260 79 304.5 c 128,-1,5
 118 349 118 349 199 378 c 1,6,-1
 199 380 l 1,7,8
 136 409 136 409 100.5 457.5 c 128,-1,9
 65 506 65 506 65 563 c 0,10,11
 65 616 65 616 96 656.5 c 128,-1,12
 127 697 127 697 183.5 718.5 c 128,-1,13
 240 740 240 740 315 740 c 256,14,15
 390 740 390 740 447 718 c 128,-1,16
 504 696 504 696 535 656 c 128,-1,17
 566 616 566 616 566 563 c 0,18,19
 566 508 566 508 530.5 465 c 128,-1,20
 495 422 495 422 428 392 c 1,21,-1
 428 390 l 1,22,23
 590 334 590 334 590 195 c 0,24,25
 590 100 590 100 516.5 45 c 128,-1,26
 443 -10 443 -10 315 -10 c 0,27,0
 231 -10 231 -10 169 15 c 128,-1,1
418.5 482 m 128,-1,29
 455 512 455 512 455 553 c 0,30,31
 455 596 455 596 417.5 620.5 c 128,-1,32
 380 645 380 645 315 645 c 256,33,34
 250 645 250 645 212.5 620.5 c 128,-1,35
 175 596 175 596 175 553 c 0,36,37
 175 512 175 512 211.5 481.5 c 128,-1,38
 248 451 248 451 315 437 c 1,39,28
 382 452 382 452 418.5 482 c 128,-1,29
433 116 m 128,-1,41
 477 147 477 147 477 200 c 0,42,43
 477 249 477 249 436 280.5 c 128,-1,44
 395 312 395 312 308 330 c 1,45,46
 153 294 153 294 153 200 c 0,47,48
 153 147 153 147 197 116 c 128,-1,49
 241 85 241 85 315 85 c 256,50,40
 389 85 389 85 433 116 c 128,-1,41
EndSplineSet
Substitution2: "'tnum' Tabular Numbers in Latin lookup 11 subtable" eight
AlternateSubs2: "'aalt' Access All Alternates in Latin lookup 1 subtable" eight
EndChar

StartChar: nine.lf
Encoding: 1114126 -1 426
Width: 630
Flags: W
LayerCount: 2
Fore
SplineSet
512.5 670 m 128,-1,1
 582 600 582 600 582 472 c 0,2,3
 582 336 582 336 535 231 c 128,-1,4
 488 126 488 126 400.5 64 c 128,-1,5
 313 2 313 2 195 -9 c 1,6,-1
 175 86 l 1,7,8
 391 110 391 110 453 292 c 1,9,-1
 451 293 l 1,10,11
 383 240 383 240 290 240 c 0,12,13
 177 240 177 240 112 306 c 128,-1,14
 47 372 47 372 47 487 c 0,15,16
 47 604 47 604 119 672 c 128,-1,17
 191 740 191 740 315 740 c 0,18,0
 443 740 443 740 512.5 670 c 128,-1,1
198.5 601 m 128,-1,20
 157 560 157 560 157 488 c 0,21,22
 157 415 157 415 198.5 375 c 128,-1,23
 240 335 240 335 315 335 c 256,24,25
 390 335 390 335 431 375 c 128,-1,26
 472 415 472 415 472 488 c 0,27,28
 472 560 472 560 430.5 601 c 128,-1,29
 389 642 389 642 315 642 c 0,30,19
 240 642 240 642 198.5 601 c 128,-1,20
EndSplineSet
Substitution2: "'tnum' Tabular Numbers in Latin lookup 11 subtable" nine
AlternateSubs2: "'aalt' Access All Alternates in Latin lookup 1 subtable" nine
EndChar

StartChar: uni2070
Encoding: 8304 8304 427
Width: 380
Flags: W
LayerCount: 2
Fore
SplineSet
65.5 341.5 m 128,-1,1
 25 397 25 397 25 511 c 256,2,3
 25 625 25 625 65.5 680.5 c 128,-1,4
 106 736 106 736 190 736 c 256,5,6
 274 736 274 736 314.5 680.5 c 128,-1,7
 355 625 355 625 355 511 c 256,8,9
 355 397 355 397 314.5 341.5 c 128,-1,10
 274 286 274 286 190 286 c 256,11,0
 106 286 106 286 65.5 341.5 c 128,-1,1
238.5 408.5 m 128,-1,13
 254 440 254 440 254 511 c 256,14,15
 254 582 254 582 238.5 613.5 c 128,-1,16
 223 645 223 645 190 645 c 256,17,18
 157 645 157 645 141.5 613.5 c 128,-1,19
 126 582 126 582 126 511 c 256,20,21
 126 440 126 440 141.5 408.5 c 128,-1,22
 157 377 157 377 190 377 c 256,23,12
 223 377 223 377 238.5 408.5 c 128,-1,13
EndSplineSet
EndChar

StartChar: uni00B9
Encoding: 185 185 428
Width: 360
Flags: W
LayerCount: 2
Fore
SplineSet
168 601 m 1,0,-1
 166 601 l 1,1,-1
 58 498 l 1,2,-1
 9 581 l 1,3,-1
 168 730 l 1,4,-1
 271 730 l 1,5,-1
 271 292 l 1,6,-1
 168 292 l 1,7,-1
 168 601 l 1,0,-1
EndSplineSet
EndChar

StartChar: uni00B2
Encoding: 178 178 429
Width: 380
Flags: W
LayerCount: 2
Fore
SplineSet
185.5 505 m 128,-1,1
 224 548 224 548 224 583 c 0,2,3
 224 611 224 611 205.5 628 c 128,-1,4
 187 645 187 645 155 645 c 0,5,6
 107 645 107 645 54 602 c 1,7,-1
 32 692 l 1,8,9
 61 712 61 712 101.5 724 c 128,-1,10
 142 736 142 736 183 736 c 0,11,12
 252 736 252 736 288.5 702.5 c 128,-1,13
 325 669 325 669 325 607 c 0,14,15
 325 551 325 551 292.5 496.5 c 128,-1,16
 260 442 260 442 193 384 c 1,17,-1
 193 382 l 1,18,-1
 329 382 l 1,19,-1
 329 292 l 1,20,-1
 44 292 l 1,21,-1
 44 382 l 1,22,0
 147 462 147 462 185.5 505 c 128,-1,1
EndSplineSet
EndChar

StartChar: uni00B3
Encoding: 179 179 430
Width: 380
Flags: W
LayerCount: 2
Fore
SplineSet
37 315 m 1,1,-1
 56 398 l 1,2,3
 104 376 104 376 146 376 c 0,4,5
 184 376 184 376 204 389.5 c 128,-1,6
 224 403 224 403 224 429 c 0,7,8
 224 454 224 454 202.5 465.5 c 128,-1,9
 181 477 181 477 132 477 c 2,10,-1
 103 477 l 1,11,-1
 103 562 l 1,12,-1
 190 639 l 1,13,-1
 190 641 l 1,14,-1
 43 641 l 1,15,-1
 43 730 l 1,16,-1
 319 730 l 1,17,-1
 319 641 l 1,18,-1
 215 549 l 1,19,-1
 215 547 l 1,20,21
 268 545 268 545 296.5 513 c 128,-1,22
 325 481 325 481 325 426 c 0,23,24
 325 359 325 359 284 322.5 c 128,-1,25
 243 286 243 286 169 286 c 0,26,0
 96 286 96 286 37 315 c 1,1,-1
EndSplineSet
EndChar

StartChar: uni2074
Encoding: 8308 8308 431
Width: 380
Flags: W
LayerCount: 2
Fore
SplineSet
197 368 m 1,0,-1
 4 368 l 1,1,-1
 4 458 l 1,2,-1
 202 730 l 1,3,-1
 297 730 l 1,4,-1
 297 458 l 1,5,-1
 349 458 l 1,6,-1
 349 368 l 1,7,-1
 297 368 l 1,8,-1
 297 292 l 1,9,-1
 197 292 l 1,10,-1
 197 368 l 1,0,-1
202 453 m 1,11,-1
 202 593 l 1,12,-1
 200 593 l 1,13,-1
 100 455 l 1,14,-1
 100 453 l 1,15,-1
 202 453 l 1,11,-1
EndSplineSet
EndChar

StartChar: fraction
Encoding: 8260 8260 432
Width: 529
Flags: W
LayerCount: 2
Fore
SplineSet
412 730 m 1,0,-1
 517 730 l 1,1,-1
 117 0 l 1,2,-1
 12 0 l 1,3,-1
 412 730 l 1,0,-1
EndSplineSet
EndChar

StartChar: onehalf
Encoding: 189 189 433
Width: 884
Flags: W
LayerCount: 2
Fore
SplineSet
181 601 m 1,0,-1
 73 498 l 1,1,-1
 24 581 l 1,2,-1
 183 730 l 1,3,-1
 286 730 l 1,4,-1
 286 292 l 1,5,-1
 183 292 l 1,6,-1
 183 601 l 1,7,-1
 181 601 l 1,0,-1
588 730 m 1,8,-1
 693 730 l 1,9,-1
 293 0 l 1,10,-1
 188 0 l 1,11,-1
 588 730 l 1,8,-1
684.5 213 m 128,-1,13
 723 256 723 256 723 291 c 0,14,15
 723 319 723 319 704.5 336 c 128,-1,16
 686 353 686 353 654 353 c 0,17,18
 606 353 606 353 553 310 c 1,19,-1
 531 400 l 1,20,21
 560 420 560 420 600.5 432 c 128,-1,22
 641 444 641 444 682 444 c 0,23,24
 751 444 751 444 787.5 410.5 c 128,-1,25
 824 377 824 377 824 315 c 0,26,27
 824 259 824 259 791.5 204.5 c 128,-1,28
 759 150 759 150 692 92 c 1,29,-1
 692 90 l 1,30,-1
 828 90 l 1,31,-1
 828 0 l 1,32,-1
 543 0 l 1,33,-1
 543 90 l 1,34,12
 646 170 646 170 684.5 213 c 128,-1,13
EndSplineSet
Ligature2: "'frac' Diagonal Fractions in Latin lookup 7 subtable" one slash two
EndChar

StartChar: onequarter
Encoding: 188 188 434
Width: 848
Flags: W
LayerCount: 2
Fore
SplineSet
181 601 m 1,0,-1
 73 498 l 1,1,-1
 24 581 l 1,2,-1
 183 730 l 1,3,-1
 286 730 l 1,4,-1
 286 292 l 1,5,-1
 183 292 l 1,6,-1
 183 601 l 1,7,-1
 181 601 l 1,0,-1
588 730 m 1,8,-1
 693 730 l 1,9,-1
 293 0 l 1,10,-1
 188 0 l 1,11,-1
 588 730 l 1,8,-1
463 76 m 1,12,-1
 463 166 l 1,13,-1
 661 438 l 1,14,-1
 756 438 l 1,15,-1
 756 166 l 1,16,-1
 808 166 l 1,17,-1
 808 76 l 1,18,-1
 756 76 l 1,19,-1
 756 0 l 1,20,-1
 656 0 l 1,21,-1
 656 76 l 1,22,-1
 463 76 l 1,12,-1
661 301 m 1,23,-1
 659 301 l 1,24,-1
 559 163 l 1,25,-1
 559 161 l 1,26,-1
 661 161 l 1,27,-1
 661 301 l 1,23,-1
EndSplineSet
Ligature2: "'frac' Diagonal Fractions in Latin lookup 7 subtable" one slash four
EndChar

StartChar: threequarters
Encoding: 190 190 435
Width: 822
Flags: W
LayerCount: 2
Fore
SplineSet
40 315 m 1,1,-1
 59 398 l 1,2,3
 107 376 107 376 149 376 c 0,4,5
 187 376 187 376 207 389.5 c 128,-1,6
 227 403 227 403 227 429 c 0,7,8
 227 454 227 454 205.5 465.5 c 128,-1,9
 184 477 184 477 135 477 c 2,10,-1
 106 477 l 1,11,-1
 106 562 l 1,12,-1
 193 639 l 1,13,-1
 193 641 l 1,14,-1
 46 641 l 1,15,-1
 46 730 l 1,16,-1
 322 730 l 1,17,-1
 322 641 l 1,18,-1
 218 549 l 1,19,-1
 218 547 l 1,20,21
 270 545 270 545 299 513 c 128,-1,22
 328 481 328 481 328 426 c 0,23,24
 328 359 328 359 287 322.5 c 128,-1,25
 246 286 246 286 172 286 c 0,26,0
 99 286 99 286 40 315 c 1,1,-1
562 730 m 1,27,-1
 667 730 l 1,28,-1
 267 0 l 1,29,-1
 162 0 l 1,30,-1
 562 730 l 1,27,-1
437 76 m 1,31,-1
 437 166 l 1,32,-1
 635 438 l 1,33,-1
 730 438 l 1,34,-1
 730 166 l 1,35,-1
 782 166 l 1,36,-1
 782 76 l 1,37,-1
 730 76 l 1,38,-1
 730 0 l 1,39,-1
 630 0 l 1,40,-1
 630 76 l 1,41,-1
 437 76 l 1,31,-1
635 301 m 1,42,-1
 633 301 l 1,43,-1
 533 163 l 1,44,-1
 533 161 l 1,45,-1
 635 161 l 1,46,-1
 635 301 l 1,42,-1
EndSplineSet
Ligature2: "'frac' Diagonal Fractions in Latin lookup 7 subtable" three slash four
EndChar

StartChar: period
Encoding: 46 46 436
Width: 317
Flags: W
LayerCount: 2
Fore
SplineSet
88 130 m 1,0,-1
 218 130 l 1,1,-1
 218 0 l 1,2,-1
 88 0 l 1,3,-1
 88 130 l 1,0,-1
EndSplineSet
EndChar

StartChar: comma
Encoding: 44 44 437
Width: 317
Flags: W
LayerCount: 2
Fore
SplineSet
96 130 m 1,0,-1
 226 130 l 1,1,-1
 126 -170 l 1,2,-1
 26 -170 l 1,3,-1
 96 130 l 1,0,-1
EndSplineSet
EndChar

StartChar: colon
Encoding: 58 58 438
Width: 317
Flags: W
LayerCount: 2
Fore
SplineSet
88 520 m 1,0,-1
 218 520 l 1,1,-1
 218 390 l 1,2,-1
 88 390 l 1,3,-1
 88 520 l 1,0,-1
88 130 m 1,4,-1
 218 130 l 1,5,-1
 218 0 l 1,6,-1
 88 0 l 1,7,-1
 88 130 l 1,4,-1
EndSplineSet
Substitution2: "'aalt' Access All Alternates in Latin lookup 0 subtable" uniFF1A
EndChar

StartChar: semicolon
Encoding: 59 59 439
Width: 317
Flags: W
LayerCount: 2
Fore
SplineSet
107 520 m 1,0,-1
 237 520 l 1,1,-1
 237 390 l 1,2,-1
 107 390 l 1,3,-1
 107 520 l 1,0,-1
113 130 m 1,4,-1
 243 130 l 1,5,-1
 128 -170 l 1,6,-1
 28 -170 l 1,7,-1
 113 130 l 1,4,-1
EndSplineSet
EndChar

StartChar: exclam
Encoding: 33 33 441
Width: 306
Flags: W
LayerCount: 2
Fore
SplineSet
88 730 m 1,0,-1
 218 730 l 1,1,-1
 203 215 l 1,2,-1
 103 215 l 1,3,-1
 88 730 l 1,0,-1
88 130 m 1,4,-1
 218 130 l 1,5,-1
 218 0 l 1,6,-1
 88 0 l 1,7,-1
 88 130 l 1,4,-1
EndSplineSet
Substitution2: "'aalt' Access All Alternates in Latin lookup 0 subtable" uniFF01
EndChar

StartChar: exclamdown
Encoding: 161 161 442
Width: 306
Flags: W
LayerCount: 2
Fore
SplineSet
88 520 m 1,0,-1
 218 520 l 1,1,-1
 218 390 l 1,2,-1
 88 390 l 1,3,-1
 88 520 l 1,0,-1
103 305 m 1,4,-1
 203 305 l 1,5,-1
 218 -210 l 1,6,-1
 88 -210 l 1,7,-1
 103 305 l 1,4,-1
EndSplineSet
EndChar

StartChar: question
Encoding: 63 63 443
Width: 567
Flags: W
LayerCount: 2
Fore
SplineSet
208.5 328 m 128,-1,1
 241 377 241 377 320 432 c 0,2,3
 374 470 374 470 397.5 499.5 c 128,-1,4
 421 529 421 529 421 560 c 0,5,6
 421 601 421 601 383.5 620.5 c 128,-1,7
 346 640 346 640 266 640 c 0,8,9
 211 640 211 640 160 631.5 c 128,-1,10
 109 623 109 623 52 604 c 1,11,-1
 28 702 l 1,12,13
 147 740 147 740 281 740 c 0,14,15
 409 740 409 740 472.5 699 c 128,-1,16
 536 658 536 658 536 575 c 0,17,18
 536 520 536 520 506 475.5 c 128,-1,19
 476 431 476 431 405 383 c 0,20,21
 343 341 343 341 315.5 302 c 128,-1,22
 288 263 288 263 286 215 c 1,23,-1
 176 215 l 1,24,0
 176 279 176 279 208.5 328 c 128,-1,1
166 130 m 1,25,-1
 296 130 l 1,26,-1
 296 0 l 1,27,-1
 166 0 l 1,28,-1
 166 130 l 1,25,-1
EndSplineSet
Substitution2: "'aalt' Access All Alternates in Latin lookup 0 subtable" uniFF1F
EndChar

StartChar: questiondown
Encoding: 191 191 444
Width: 567
Flags: W
LayerCount: 2
Fore
SplineSet
271 390 m 1,0,-1
 271 520 l 1,1,-1
 401 520 l 1,2,-1
 401 390 l 1,3,-1
 271 390 l 1,0,-1
358.5 192 m 128,-1,5
 326 143 326 143 247 88 c 0,6,7
 193 50 193 50 169.5 20.5 c 128,-1,8
 146 -9 146 -9 146 -40 c 0,9,10
 146 -81 146 -81 183.5 -100.5 c 128,-1,11
 221 -120 221 -120 301 -120 c 0,12,13
 356 -120 356 -120 407 -111.5 c 128,-1,14
 458 -103 458 -103 515 -84 c 1,15,-1
 539 -182 l 1,16,17
 420 -220 420 -220 286 -220 c 0,18,19
 158 -220 158 -220 94.5 -179 c 128,-1,20
 31 -138 31 -138 31 -55 c 0,21,22
 31 0 31 0 61 44.5 c 128,-1,23
 91 89 91 89 162 137 c 0,24,25
 224 179 224 179 252 218 c 128,-1,26
 280 257 280 257 281 305 c 1,27,-1
 391 305 l 1,28,4
 391 241 391 241 358.5 192 c 128,-1,5
EndSplineSet
EndChar

StartChar: bullet
Encoding: 8226 8226 446
Width: 336
Flags: W
LayerCount: 2
Fore
SplineSet
99 221 m 128,-1,1
 70 250 70 250 70 290 c 0,2,3
 70 331 70 331 99 359.5 c 128,-1,4
 128 388 128 388 168 388 c 0,5,6
 209 388 209 388 237.5 359.5 c 128,-1,7
 266 331 266 331 266 290 c 0,8,9
 266 250 266 250 237.5 221 c 128,-1,10
 209 192 209 192 168 192 c 0,11,0
 128 192 128 192 99 221 c 128,-1,1
EndSplineSet
EndChar

StartChar: asterisk
Encoding: 42 42 447
Width: 519
Flags: W
LayerCount: 2
Fore
SplineSet
89 381 m 1,0,-1
 187 512 l 1,1,-1
 32 559 l 1,2,-1
 60 649 l 1,3,-1
 215 597 l 1,4,-1
 213 759 l 1,5,-1
 306 759 l 1,6,-1
 304 597 l 1,7,-1
 458 649 l 1,8,-1
 487 559 l 1,9,-1
 331 512 l 1,10,-1
 429 381 l 1,11,-1
 353 326 l 1,12,-1
 259 460 l 1,13,-1
 166 326 l 1,14,-1
 89 381 l 1,0,-1
EndSplineSet
EndChar

StartChar: numbersign
Encoding: 35 35 448
Width: 673
Flags: W
LayerCount: 2
Fore
SplineSet
633 475 m 1,0,-1
 520 475 l 1,1,-1
 485 275 l 1,2,-1
 580 275 l 1,3,-1
 580 180 l 1,4,-1
 467 180 l 1,5,-1
 436 0 l 1,6,-1
 335 0 l 1,7,-1
 367 180 l 1,8,-1
 237 180 l 1,9,-1
 206 0 l 1,10,-1
 105 0 l 1,11,-1
 137 180 l 1,12,-1
 40 180 l 1,13,-1
 40 275 l 1,14,-1
 154 275 l 1,15,-1
 189 475 l 1,16,-1
 93 475 l 1,17,-1
 93 570 l 1,18,-1
 206 570 l 1,19,-1
 234 730 l 1,20,-1
 335 730 l 1,21,-1
 307 570 l 1,22,-1
 436 570 l 1,23,-1
 464 730 l 1,24,-1
 565 730 l 1,25,-1
 537 570 l 1,26,-1
 633 570 l 1,27,-1
 633 475 l 1,0,-1
255 275 m 1,28,-1
 384 275 l 1,29,-1
 419 475 l 1,30,-1
 290 475 l 1,31,-1
 255 275 l 1,28,-1
EndSplineSet
EndChar

StartChar: slash
Encoding: 47 47 449
Width: 481
Flags: W
LayerCount: 2
Fore
SplineSet
358 750 m 1,0,-1
 469 750 l 1,1,-1
 123 -40 l 1,2,-1
 12 -40 l 1,3,-1
 358 750 l 1,0,-1
EndSplineSet
EndChar

StartChar: backslash
Encoding: 92 92 450
Width: 481
Flags: W
LayerCount: 2
Fore
SplineSet
469 -40 m 1,0,-1
 358 -40 l 1,1,-1
 12 750 l 1,2,-1
 123 750 l 1,3,-1
 469 -40 l 1,0,-1
EndSplineSet
EndChar

StartChar: parenleft
Encoding: 40 40 451
Width: 375
Flags: W
LayerCount: 2
Fore
SplineSet
117 93.5 m 128,-1,1
 80 206 80 206 80 330 c 0,2,3
 80 455 80 455 117 567 c 128,-1,4
 154 679 154 679 224 770 c 1,5,-1
 331 770 l 1,6,7
 260 671 260 671 226.5 563.5 c 128,-1,8
 193 456 193 456 193 330 c 256,9,10
 193 204 193 204 226.5 96.5 c 128,-1,11
 260 -11 260 -11 331 -110 c 1,12,-1
 224 -110 l 1,13,0
 154 -19 154 -19 117 93.5 c 128,-1,1
EndSplineSet
Substitution2: "'aalt' Access All Alternates in Latin lookup 0 subtable" uniFF08
EndChar

StartChar: parenright
Encoding: 41 41 452
Width: 375
Flags: W
LayerCount: 2
Fore
SplineSet
44 -110 m 1,0,1
 115 -11 115 -11 148.5 96.5 c 128,-1,2
 182 204 182 204 182 330 c 256,3,4
 182 456 182 456 148.5 563.5 c 128,-1,5
 115 671 115 671 44 770 c 1,6,-1
 151 770 l 1,7,8
 221 679 221 679 258 567 c 128,-1,9
 295 455 295 455 295 330 c 0,10,11
 295 206 295 206 258 93.5 c 128,-1,12
 221 -19 221 -19 151 -110 c 1,13,-1
 44 -110 l 1,0,1
EndSplineSet
Substitution2: "'aalt' Access All Alternates in Latin lookup 0 subtable" uniFF09
EndChar

StartChar: braceleft
Encoding: 123 123 453
Width: 489
Flags: W
LayerCount: 2
Fore
SplineSet
220 -73.5 m 128,-1,1
 186 -37 186 -37 186 45 c 2,2,-1
 186 160 l 2,3,4
 186 280 186 280 101 280 c 2,5,-1
 56 280 l 1,6,-1
 56 380 l 1,7,-1
 101 380 l 2,8,9
 186 380 186 380 186 500 c 2,10,-1
 186 615 l 2,11,12
 186 697 186 697 220 733.5 c 128,-1,13
 254 770 254 770 331 770 c 2,14,-1
 436 770 l 1,15,-1
 436 675 l 1,16,-1
 386 675 l 2,17,18
 346 675 346 675 326 666.5 c 128,-1,19
 306 658 306 658 298.5 636 c 128,-1,20
 291 614 291 614 291 570 c 2,21,-1
 291 488 l 2,22,23
 291 425 291 425 269 387.5 c 128,-1,24
 247 350 247 350 200 331 c 1,25,-1
 200 329 l 1,26,27
 247 310 247 310 269 272.5 c 128,-1,28
 291 235 291 235 291 172 c 2,29,-1
 291 90 l 2,30,31
 291 46 291 46 298.5 24 c 128,-1,32
 306 2 306 2 326 -6.5 c 128,-1,33
 346 -15 346 -15 386 -15 c 2,34,-1
 436 -15 l 1,35,-1
 436 -110 l 1,36,-1
 331 -110 l 2,37,0
 254 -110 254 -110 220 -73.5 c 128,-1,1
EndSplineSet
EndChar

StartChar: braceright
Encoding: 125 125 454
Width: 489
Flags: W
LayerCount: 2
Fore
SplineSet
53 -110 m 1,0,-1
 53 -15 l 1,1,-1
 103 -15 l 2,2,3
 143 -15 143 -15 163 -6.5 c 128,-1,4
 183 2 183 2 190.5 24 c 128,-1,5
 198 46 198 46 198 90 c 2,6,-1
 198 172 l 2,7,8
 198 235 198 235 220 272.5 c 128,-1,9
 242 310 242 310 289 329 c 1,10,-1
 289 331 l 1,11,12
 242 350 242 350 220 387.5 c 128,-1,13
 198 425 198 425 198 488 c 2,14,-1
 198 570 l 2,15,16
 198 614 198 614 190.5 636 c 128,-1,17
 183 658 183 658 163 666.5 c 128,-1,18
 143 675 143 675 103 675 c 2,19,-1
 53 675 l 1,20,-1
 53 770 l 1,21,-1
 158 770 l 2,22,23
 235 770 235 770 269 733.5 c 128,-1,24
 303 697 303 697 303 615 c 2,25,-1
 303 500 l 2,26,27
 303 380 303 380 388 380 c 2,28,-1
 433 380 l 1,29,-1
 433 280 l 1,30,-1
 388 280 l 2,31,32
 303 280 303 280 303 160 c 2,33,-1
 303 45 l 2,34,35
 303 -37 303 -37 269 -73.5 c 128,-1,36
 235 -110 235 -110 158 -110 c 2,37,-1
 53 -110 l 1,0,-1
EndSplineSet
EndChar

StartChar: bracketleft
Encoding: 91 91 455
Width: 427
Flags: W
LayerCount: 2
Fore
SplineSet
88 770 m 1,0,-1
 383 770 l 1,1,-1
 383 675 l 1,2,-1
 193 675 l 1,3,-1
 193 -15 l 1,4,-1
 383 -15 l 1,5,-1
 383 -110 l 1,6,-1
 88 -110 l 1,7,-1
 88 770 l 1,0,-1
EndSplineSet
EndChar

StartChar: bracketright
Encoding: 93 93 456
Width: 427
Flags: W
LayerCount: 2
Fore
SplineSet
339 -110 m 1,0,-1
 44 -110 l 1,1,-1
 44 -15 l 1,2,-1
 234 -15 l 1,3,-1
 234 675 l 1,4,-1
 44 675 l 1,5,-1
 44 770 l 1,6,-1
 339 770 l 1,7,-1
 339 -110 l 1,0,-1
EndSplineSet
EndChar

StartChar: hyphen
Encoding: 45 45 457
Width: 422
Flags: W
LayerCount: 2
Fore
SplineSet
56 340 m 1,0,-1
 366 340 l 1,1,-1
 366 240 l 1,2,-1
 56 240 l 1,3,-1
 56 340 l 1,0,-1
EndSplineSet
EndChar

StartChar: endash
Encoding: 8211 8211 459
Width: 500
Flags: W
LayerCount: 2
Fore
SplineSet
0 340 m 1,0,-1
 500 340 l 1,1,-1
 500 240 l 1,2,-1
 0 240 l 1,3,-1
 0 340 l 1,0,-1
EndSplineSet
EndChar

StartChar: emdash
Encoding: 8212 8212 460
Width: 1000
Flags: W
LayerCount: 2
Fore
SplineSet
0 340 m 1,0,-1
 1000 340 l 1,1,-1
 1000 240 l 1,2,-1
 0 240 l 1,3,-1
 0 340 l 1,0,-1
EndSplineSet
EndChar

StartChar: uni2015
Encoding: 8213 8213 461
Width: 1000
Flags: W
LayerCount: 2
Fore
SplineSet
50 410 m 1,0,-1
 950 410 l 1,1,-1
 950 310 l 1,2,-1
 50 310 l 1,3,-1
 50 410 l 1,0,-1
EndSplineSet
EndChar

StartChar: underscore
Encoding: 95 95 462
Width: 600
Flags: W
LayerCount: 2
Fore
SplineSet
0 -80 m 1,0,-1
 600 -80 l 1,1,-1
 600 -165 l 1,2,-1
 0 -165 l 1,3,-1
 0 -80 l 1,0,-1
EndSplineSet
EndChar

StartChar: quoteleft
Encoding: 8216 8216 467
Width: 279
Flags: W
LayerCount: 2
Fore
SplineSet
154 470 m 1,0,-1
 24 470 l 1,1,-1
 139 770 l 1,2,-1
 239 770 l 1,3,-1
 154 470 l 1,0,-1
EndSplineSet
EndChar

StartChar: quoteright
Encoding: 8217 8217 468
Width: 279
Flags: W
LayerCount: 2
Fore
SplineSet
125 770 m 1,0,-1
 255 770 l 1,1,-1
 140 470 l 1,2,-1
 40 470 l 1,3,-1
 125 770 l 1,0,-1
EndSplineSet
EndChar

StartChar: guillemotleft
Encoding: 171 171 469
Width: 503
Flags: W
LayerCount: 2
Fore
SplineSet
10 290 m 1,0,-1
 167 520 l 1,1,-1
 268 520 l 1,2,-1
 108 290 l 1,3,-1
 268 60 l 1,4,-1
 167 60 l 1,5,-1
 10 290 l 1,0,-1
210 290 m 1,6,-1
 367 520 l 1,7,-1
 468 520 l 1,8,-1
 308 290 l 1,9,-1
 468 60 l 1,10,-1
 367 60 l 1,11,-1
 210 290 l 1,6,-1
EndSplineSet
EndChar

StartChar: guillemotright
Encoding: 187 187 470
Width: 503
Flags: W
LayerCount: 2
Fore
SplineSet
136 60 m 1,0,-1
 35 60 l 1,1,-1
 195 290 l 1,2,-1
 35 520 l 1,3,-1
 136 520 l 1,4,-1
 293 290 l 1,5,-1
 136 60 l 1,0,-1
336 60 m 1,6,-1
 235 60 l 1,7,-1
 395 290 l 1,8,-1
 235 520 l 1,9,-1
 336 520 l 1,10,-1
 493 290 l 1,11,-1
 336 60 l 1,6,-1
EndSplineSet
EndChar

StartChar: guilsinglleft
Encoding: 8249 8249 471
Width: 308
Flags: W
LayerCount: 2
Fore
SplineSet
10 290 m 1,0,-1
 170 520 l 1,1,-1
 273 520 l 1,2,-1
 110 290 l 1,3,-1
 273 60 l 1,4,-1
 170 60 l 1,5,-1
 10 290 l 1,0,-1
EndSplineSet
EndChar

StartChar: guilsinglright
Encoding: 8250 8250 472
Width: 308
Flags: W
LayerCount: 2
Fore
SplineSet
138 60 m 1,0,-1
 35 60 l 1,1,-1
 198 290 l 1,2,-1
 35 520 l 1,3,-1
 138 520 l 1,4,-1
 298 290 l 1,5,-1
 138 60 l 1,0,-1
EndSplineSet
EndChar

StartChar: quotedbl
Encoding: 34 34 473
Width: 497
Flags: W
LayerCount: 2
Fore
SplineSet
80 770 m 1,0,-1
 205 770 l 1,1,-1
 190 470 l 1,2,-1
 94 470 l 1,3,-1
 80 770 l 1,0,-1
292 770 m 1,4,-1
 417 770 l 1,5,-1
 402 470 l 1,6,-1
 306 470 l 1,7,-1
 292 770 l 1,4,-1
EndSplineSet
EndChar

StartChar: quotesingle
Encoding: 39 39 474
Width: 290
Flags: W
LayerCount: 2
Fore
SplineSet
80 770 m 1,0,-1
 210 770 l 1,1,-1
 195 470 l 1,2,-1
 95 470 l 1,3,-1
 80 770 l 1,0,-1
EndSplineSet
EndChar

StartChar: uni20B5
Encoding: 8373 8373 476
Width: 711
Flags: W
LayerCount: 2
Fore
SplineSet
663 56 m 1,0,1
 574 1 574 1 463 -8 c 1,2,-1
 463 -105 l 1,3,-1
 368 -105 l 1,4,-1
 368 -8 l 1,5,6
 213 6 213 6 126.5 104 c 128,-1,7
 40 202 40 202 40 365 c 256,8,9
 40 528 40 528 126.5 626 c 128,-1,10
 213 724 213 724 368 738 c 1,11,-1
 368 835 l 1,12,-1
 463 835 l 1,13,-1
 463 738 l 1,14,15
 574 729 574 729 663 674 c 1,16,-1
 617 585 l 1,17,18
 543 628 543 628 463 637 c 1,19,-1
 463 93 l 1,20,21
 543 102 543 102 617 145 c 1,22,-1
 663 56 l 1,0,1
206 178.5 m 128,-1,24
 264 107 264 107 368 93 c 1,25,-1
 368 637 l 1,26,27
 264 623 264 623 206 551.5 c 128,-1,28
 148 480 148 480 148 365 c 256,29,23
 148 250 148 250 206 178.5 c 128,-1,24
EndSplineSet
EndChar

StartChar: cent
Encoding: 162 162 477
Width: 550
Flags: W
LayerCount: 2
Fore
SplineSet
491 28 m 1,0,1
 433 -1 433 -1 369 -7 c 1,2,-1
 369 -105 l 1,3,-1
 289 -105 l 1,4,-1
 289 -9 l 1,5,6
 168 -1 168 -1 102 69 c 128,-1,7
 36 139 36 139 36 260 c 256,8,9
 36 381 36 381 102 451 c 128,-1,10
 168 521 168 521 289 529 c 1,11,-1
 289 625 l 1,12,-1
 369 625 l 1,13,-1
 369 527 l 1,14,15
 433 521 433 521 491 492 c 1,16,-1
 466 407 l 1,17,18
 418 430 418 430 369 437 c 1,19,-1
 369 83 l 1,20,21
 418 90 418 90 466 113 c 1,22,-1
 491 28 l 1,0,1
179.5 136 m 128,-1,24
 218 90 218 90 289 82 c 1,25,-1
 289 438 l 1,26,27
 218 430 218 430 179.5 384 c 128,-1,28
 141 338 141 338 141 260 c 256,29,23
 141 182 141 182 179.5 136 c 128,-1,24
EndSplineSet
EndChar

StartChar: colonmonetary
Encoding: 8353 8353 478
Width: 711
Flags: W
LayerCount: 2
Fore
SplineSet
663 56 m 1,0,1
 590 10 590 10 497 -4 c 1,2,-1
 488 -105 l 1,3,-1
 398 -105 l 1,4,-1
 406 -10 l 1,5,6
 361 -8 361 -8 327 -3 c 1,7,-1
 318 -105 l 1,8,-1
 228 -105 l 1,9,-1
 239 23 l 1,10,11
 143 64 143 64 91.5 152 c 128,-1,12
 40 240 40 240 40 365 c 0,13,14
 40 508 40 508 108 602.5 c 128,-1,15
 176 697 176 697 299 727 c 1,16,-1
 308 835 l 1,17,-1
 398 835 l 1,18,-1
 390 739 l 1,19,20
 398 740 398 740 415 740 c 0,21,22
 443 740 443 740 470 737 c 1,23,-1
 478 835 l 1,24,-1
 568 835 l 1,25,-1
 558 721 l 1,26,27
 614 705 614 705 663 674 c 1,28,-1
 617 585 l 1,29,30
 581 606 581 606 549 617 c 1,31,-1
 505 100 l 1,32,33
 564 113 564 113 617 145 c 1,34,-1
 663 56 l 1,0,1
415 90 m 1,36,-1
 461 638 l 1,37,38
 433 640 433 640 417 640 c 0,39,40
 405 640 405 640 381 638 c 1,41,-1
 335 99 l 1,42,35
 372 90 372 90 415 90 c 1,36,-1
174 231.5 m 128,-1,44
 200 174 200 174 249 138 c 1,45,-1
 289 615 l 1,46,47
 221 585 221 585 184.5 520.5 c 128,-1,48
 148 456 148 456 148 365 c 0,49,43
 148 289 148 289 174 231.5 c 128,-1,44
EndSplineSet
EndChar

StartChar: currency
Encoding: 164 164 479
Width: 696
Flags: W
LayerCount: 2
Fore
SplineSet
546 235 m 1,1,-1
 636 144 l 1,2,-1
 568 76 l 1,3,-1
 477 167 l 1,4,5
 417 130 417 130 350 130 c 0,6,7
 279 130 279 130 221 169 c 1,8,-1
 128 76 l 1,9,-1
 59 144 l 1,10,-1
 152 238 l 1,11,12
 115 298 115 298 115 365 c 0,13,14
 115 436 115 436 152 491 c 1,15,-1
 59 585 l 1,16,-1
 128 653 l 1,17,-1
 219 560 l 1,18,19
 278 600 278 600 350 600 c 0,20,21
 419 600 419 600 477 563 c 1,22,-1
 568 654 l 1,23,-1
 637 585 l 1,24,-1
 546 494 l 1,25,26
 585 436 585 436 585 365 c 0,27,0
 585 293 585 293 546 235 c 1,1,-1
417 248.5 m 128,-1,29
 448 267 448 267 466.5 298 c 128,-1,30
 485 329 485 329 485 365 c 256,31,32
 485 401 485 401 466.5 432 c 128,-1,33
 448 463 448 463 417 481.5 c 128,-1,34
 386 500 386 500 350 500 c 0,35,36
 313 500 313 500 282 482 c 128,-1,37
 251 464 251 464 233 433 c 128,-1,38
 215 402 215 402 215 365 c 0,39,40
 215 329 215 329 233.5 298 c 128,-1,41
 252 267 252 267 283 248.5 c 128,-1,42
 314 230 314 230 350 230 c 256,43,28
 386 230 386 230 417 248.5 c 128,-1,29
EndSplineSet
EndChar

StartChar: dollar
Encoding: 36 36 480
Width: 640
Flags: W
LayerCount: 2
Fore
SplineSet
530.5 57.5 m 128,-1,1
 473 4 473 4 368 -7 c 1,2,-1
 368 -105 l 1,3,-1
 273 -105 l 1,4,-1
 273 -9 l 1,5,6
 209 -4 209 -4 152 14 c 128,-1,7
 95 32 95 32 52 62 c 1,8,-1
 82 160 l 1,9,10
 164 103 164 103 273 92 c 1,11,-1
 273 338 l 1,12,13
 159 380 159 380 110 430 c 128,-1,14
 61 480 61 480 61 553 c 0,15,16
 61 633 61 633 115.5 680 c 128,-1,17
 170 727 170 727 273 738 c 1,18,-1
 273 835 l 1,19,-1
 368 835 l 1,20,-1
 368 739 l 1,21,22
 488 731 488 731 575 685 c 1,23,-1
 552 586 l 1,24,25
 459 632 459 632 368 639 c 1,26,-1
 368 420 l 1,27,28
 488 375 488 375 538 324 c 128,-1,29
 588 273 588 273 588 198 c 0,30,0
 588 111 588 111 530.5 57.5 c 128,-1,1
199.5 499 m 128,-1,32
 222 476 222 476 273 454 c 1,33,-1
 273 636 l 1,34,35
 177 621 177 621 177 553 c 0,36,31
 177 522 177 522 199.5 499 c 128,-1,32
449.5 128 m 128,-1,38
 478 154 478 154 478 195 c 0,39,40
 478 231 478 231 453 256.5 c 128,-1,41
 428 282 428 282 368 305 c 1,42,-1
 368 94 l 1,43,37
 421 102 421 102 449.5 128 c 128,-1,38
EndSplineSet
EndChar

StartChar: dong
Encoding: 8363 8363 481
Width: 711
Flags: W
LayerCount: 2
Fore
SplineSet
653 690 m 1,0,-1
 653 610 l 1,1,-1
 543 610 l 1,2,-1
 543 150 l 1,3,-1
 440 150 l 1,4,-1
 439 197 l 1,5,-1
 437 197 l 1,6,7
 409 172 409 172 361 157 c 128,-1,8
 313 142 313 142 262 142 c 0,9,10
 166 142 166 142 113 198.5 c 128,-1,11
 60 255 60 255 60 358 c 256,12,13
 60 461 60 461 113 517.5 c 128,-1,14
 166 574 166 574 262 574 c 0,15,16
 312 574 312 574 359 559 c 128,-1,17
 406 544 406 544 433 519 c 1,18,-1
 435 519 l 1,19,-1
 435 610 l 1,20,-1
 233 610 l 1,21,-1
 233 690 l 1,22,-1
 435 690 l 1,23,-1
 435 750 l 1,24,-1
 543 750 l 1,25,-1
 543 690 l 1,26,-1
 653 690 l 1,0,-1
364 239 m 128,-1,28
 397 255 397 255 416 282 c 128,-1,29
 435 309 435 309 435 341 c 2,30,-1
 435 375 l 2,31,32
 435 407 435 407 416 434 c 128,-1,33
 397 461 397 461 364.5 477 c 128,-1,34
 332 493 332 493 293 493 c 0,35,36
 235 493 235 493 201.5 456.5 c 128,-1,37
 168 420 168 420 168 358 c 256,38,39
 168 296 168 296 201.5 259.5 c 128,-1,40
 235 223 235 223 293 223 c 0,41,27
 331 223 331 223 364 239 c 128,-1,28
65 0 m 1,42,-1
 65 80 l 1,43,-1
 653 80 l 1,44,-1
 653 0 l 1,45,-1
 65 0 l 1,42,-1
EndSplineSet
EndChar

StartChar: Euro
Encoding: 8364 8364 482
Width: 784
GlyphClass: 2
Flags: W
AnchorPoint: "Anchor-1" 473 730 basechar 0
AnchorPoint: "Anchor-0" 473 0 basechar 0
LayerCount: 2
Fore
SplineSet
690 145 m 1,1,-1
 736 56 l 1,2,3
 634 -10 634 -10 496 -10 c 0,4,5
 361 -10 361 -10 271 54 c 128,-1,6
 181 118 181 118 149 235 c 1,7,-1
 32 235 l 1,8,-1
 32 325 l 1,9,-1
 134 325 l 1,10,11
 133 338 133 338 133 365 c 256,12,13
 133 392 133 392 134 405 c 1,14,-1
 32 405 l 1,15,-1
 32 495 l 1,16,-1
 149 495 l 1,17,18
 181 612 181 612 271 676 c 128,-1,19
 361 740 361 740 496 740 c 0,20,21
 634 740 634 740 736 674 c 1,22,-1
 690 585 l 1,23,24
 601 640 601 640 501 640 c 0,25,26
 417 640 417 640 357 602 c 128,-1,27
 297 564 297 564 269 495 c 1,28,-1
 632 495 l 1,29,-1
 632 405 l 1,30,-1
 248 405 l 1,31,32
 246 379 246 379 246 365 c 256,33,34
 246 351 246 351 248 325 c 1,35,-1
 632 325 l 1,36,-1
 632 235 l 1,37,-1
 269 235 l 1,38,39
 297 166 297 166 357 128 c 128,-1,40
 417 90 417 90 501 90 c 0,41,0
 601 90 601 90 690 145 c 1,1,-1
EndSplineSet
EndChar

StartChar: florin
Encoding: 402 402 483
Width: 492
Flags: W
LayerCount: 2
Fore
SplineSet
22 -105 m 1,1,-1
 38 -17 l 1,2,3
 80 -30 80 -30 117 -30 c 0,4,5
 159 -30 159 -30 175 -9.5 c 128,-1,6
 191 11 191 11 191 65 c 2,7,-1
 191 321 l 1,8,-1
 55 321 l 1,9,-1
 55 411 l 1,10,-1
 191 411 l 1,11,-1
 191 555 l 2,12,13
 191 740 191 740 358 740 c 0,14,15
 410 740 410 740 470 725 c 1,16,-1
 454 637 l 1,17,18
 412 650 412 650 375 650 c 0,19,20
 333 650 333 650 317 629.5 c 128,-1,21
 301 609 301 609 301 555 c 2,22,-1
 301 411 l 1,23,-1
 465 411 l 1,24,-1
 465 321 l 1,25,-1
 301 321 l 1,26,-1
 301 65 l 2,27,28
 301 -120 301 -120 134 -120 c 0,29,0
 82 -120 82 -120 22 -105 c 1,1,-1
EndSplineSet
EndChar

StartChar: franc
Encoding: 8355 8355 484
Width: 641
Flags: W
LayerCount: 2
Fore
SplineSet
589 630 m 1,0,-1
 244 630 l 1,1,-1
 244 440 l 1,2,-1
 569 440 l 1,3,-1
 569 342 l 1,4,-1
 244 342 l 1,5,-1
 244 190 l 1,6,-1
 486 190 l 1,7,-1
 486 100 l 1,8,-1
 244 100 l 1,9,-1
 244 0 l 1,10,-1
 134 0 l 1,11,-1
 134 100 l 1,12,-1
 26 100 l 1,13,-1
 26 190 l 1,14,-1
 134 190 l 1,15,-1
 134 730 l 1,16,-1
 589 730 l 1,17,-1
 589 630 l 1,0,-1
EndSplineSet
EndChar

StartChar: uni20B2
Encoding: 8370 8370 485
Width: 793
Flags: W
LayerCount: 2
Fore
SplineSet
725 427 m 1,0,-1
 725 47 l 1,1,2
 669 20 669 20 595 5 c 128,-1,3
 521 -10 521 -10 444 -10 c 2,4,-1
 435 -10 l 1,5,-1
 435 -105 l 1,6,-1
 340 -105 l 1,7,-1
 340 -1 l 1,8,9
 197 25 197 25 118.5 120 c 128,-1,10
 40 215 40 215 40 365 c 256,11,12
 40 515 40 515 118.5 610 c 128,-1,13
 197 705 197 705 340 731 c 1,14,-1
 340 835 l 1,15,-1
 435 835 l 1,16,-1
 435 740 l 1,17,-1
 444 740 l 2,18,19
 596 740 596 740 698 677 c 1,20,-1
 655 591 l 1,21,22
 559 642 559 642 441 642 c 2,23,-1
 435 642 l 1,24,-1
 435 427 l 1,25,-1
 725 427 l 1,0,-1
197.5 190 m 128,-1,27
 247 122 247 122 340 99 c 1,28,-1
 340 631 l 1,29,30
 247 608 247 608 197.5 540 c 128,-1,31
 148 472 148 472 148 365 c 256,32,26
 148 258 148 258 197.5 190 c 128,-1,27
615 117 m 1,34,-1
 615 332 l 1,35,-1
 435 332 l 1,36,-1
 435 88 l 1,37,-1
 441 88 l 2,38,33
 534 88 534 88 615 117 c 1,34,-1
EndSplineSet
EndChar

StartChar: uni20AD
Encoding: 8365 8365 486
Width: 753
GlyphClass: 2
Flags: W
AnchorPoint: "Anchor-1" 364 730 basechar 0
AnchorPoint: "Anchor-0" 364 0 basechar 0
LayerCount: 2
Fore
SplineSet
689 430 m 1,0,-1
 689 340 l 1,1,-1
 387 340 l 1,2,-1
 689 0 l 1,3,-1
 553 0 l 1,4,-1
 255 340 l 1,5,-1
 244 340 l 1,6,-1
 244 0 l 1,7,-1
 134 0 l 1,8,-1
 134 340 l 1,9,-1
 26 340 l 1,10,-1
 26 430 l 1,11,-1
 134 430 l 1,12,-1
 134 730 l 1,13,-1
 244 730 l 1,14,-1
 244 430 l 1,15,-1
 255 430 l 1,16,-1
 543 730 l 1,17,-1
 679 730 l 1,18,-1
 390 430 l 1,19,-1
 689 430 l 1,0,-1
EndSplineSet
EndChar

StartChar: lira
Encoding: 8356 8356 487
Width: 662
Flags: W
LayerCount: 2
Fore
SplineSet
598 98 m 1,0,-1
 598 0 l 1,1,-1
 88 0 l 1,2,-1
 88 98 l 1,3,4
 135 101 135 101 163.5 143.5 c 128,-1,5
 192 186 192 186 193 253 c 1,6,-1
 88 253 l 1,7,-1
 88 343 l 1,8,-1
 193 343 l 1,9,-1
 193 423 l 1,10,-1
 88 423 l 1,11,-1
 88 513 l 1,12,-1
 193 513 l 1,13,-1
 193 535 l 2,14,15
 193 633 193 633 254 686.5 c 128,-1,16
 315 740 315 740 428 740 c 0,17,18
 501 740 501 740 572 714 c 1,19,-1
 550 618 l 1,20,21
 498 642 498 642 440 642 c 0,22,23
 369 642 369 642 336 612 c 128,-1,24
 303 582 303 582 303 517 c 2,25,-1
 303 513 l 1,26,-1
 535 513 l 1,27,-1
 535 423 l 1,28,-1
 303 423 l 1,29,-1
 303 343 l 1,30,-1
 535 343 l 1,31,-1
 535 253 l 1,32,-1
 303 253 l 1,33,34
 302 201 302 201 282.5 160.5 c 128,-1,35
 263 120 263 120 230 100 c 1,36,-1
 230 98 l 1,37,-1
 598 98 l 1,0,-1
EndSplineSet
EndChar

StartChar: uni20BA
Encoding: 8378 8378 488
Width: 679
Flags: W
LayerCount: 2
Fore
SplineSet
643 340 m 1,0,1
 643 217 643 217 594 140 c 128,-1,2
 545 63 545 63 441.5 26.5 c 128,-1,3
 338 -10 338 -10 173 -10 c 2,4,-1
 133 -10 l 1,5,-1
 133 342 l 1,6,-1
 26 323 l 1,7,-1
 26 413 l 1,8,-1
 133 432 l 1,9,-1
 133 512 l 1,10,-1
 26 493 l 1,11,-1
 26 583 l 1,12,-1
 133 602 l 1,13,-1
 133 730 l 1,14,-1
 246 730 l 1,15,-1
 246 622 l 1,16,-1
 473 663 l 1,17,-1
 473 573 l 1,18,-1
 246 532 l 1,19,-1
 246 452 l 1,20,-1
 473 493 l 1,21,-1
 473 403 l 1,22,-1
 246 362 l 1,23,-1
 246 96 l 1,24,-1
 256 96 l 2,25,26
 406 96 406 96 474.5 154 c 128,-1,27
 543 212 543 212 543 340 c 1,28,-1
 643 340 l 1,0,1
EndSplineSet
EndChar

StartChar: uni20BC
Encoding: 8380 8380 489
Width: 779
Flags: W
LayerCount: 2
Fore
SplineSet
638.5 666 m 128,-1,1
 707 595 707 595 707 460 c 2,2,-1
 707 0 l 1,3,-1
 597 0 l 1,4,-1
 597 447 l 2,5,6
 597 545 597 545 558.5 591.5 c 128,-1,7
 520 638 520 638 437 640 c 1,8,-1
 437 0 l 1,9,-1
 342 0 l 1,10,-1
 342 640 l 1,11,12
 259 638 259 638 220.5 591.5 c 128,-1,13
 182 545 182 545 182 447 c 2,14,-1
 182 0 l 1,15,-1
 72 0 l 1,16,-1
 72 460 l 2,17,18
 72 595 72 595 140.5 666 c 128,-1,19
 209 737 209 737 342 740 c 1,20,-1
 342 835 l 1,21,-1
 437 835 l 1,22,-1
 437 740 l 1,23,0
 570 737 570 737 638.5 666 c 128,-1,1
EndSplineSet
EndChar

StartChar: uni20A6
Encoding: 8358 8358 490
Width: 833
GlyphClass: 2
Flags: W
AnchorPoint: "Anchor-1" 417 730 basechar 0
AnchorPoint: "Anchor-0" 417 0 basechar 0
LayerCount: 2
Fore
SplineSet
807 405 m 1,0,-1
 699 405 l 1,1,-1
 699 325 l 1,2,-1
 807 325 l 1,3,-1
 807 235 l 1,4,-1
 699 235 l 1,5,-1
 699 0 l 1,6,-1
 578 0 l 1,7,-1
 246 550 l 1,8,-1
 244 550 l 1,9,-1
 244 0 l 1,10,-1
 134 0 l 1,11,-1
 134 235 l 1,12,-1
 26 235 l 1,13,-1
 26 325 l 1,14,-1
 134 325 l 1,15,-1
 134 405 l 1,16,-1
 26 405 l 1,17,-1
 26 495 l 1,18,-1
 134 495 l 1,19,-1
 134 730 l 1,20,-1
 255 730 l 1,21,-1
 587 180 l 1,22,-1
 589 180 l 1,23,-1
 589 730 l 1,24,-1
 699 730 l 1,25,-1
 699 495 l 1,26,-1
 807 495 l 1,27,-1
 807 405 l 1,0,-1
EndSplineSet
EndChar

StartChar: peseta
Encoding: 8359 8359 491
Width: 738
Flags: W
LayerCount: 2
Fore
SplineSet
727 441 m 1,0,-1
 636 441 l 1,1,2
 623 342 623 342 550.5 293 c 128,-1,3
 478 244 478 244 344 244 c 2,4,-1
 244 244 l 1,5,-1
 244 0 l 1,6,-1
 134 0 l 1,7,-1
 134 441 l 1,8,-1
 26 441 l 1,9,-1
 26 531 l 1,10,-1
 134 531 l 1,11,-1
 134 730 l 1,12,-1
 324 730 l 2,13,14
 470 730 470 730 546.5 681.5 c 128,-1,15
 623 633 623 633 636 531 c 1,16,-1
 727 531 l 1,17,-1
 727 441 l 1,0,-1
244 531 m 1,18,-1
 522 531 l 1,19,20
 510 585 510 585 463 610 c 128,-1,21
 416 635 416 635 329 635 c 2,22,-1
 244 635 l 1,23,-1
 244 531 l 1,18,-1
463 362 m 128,-1,25
 510 387 510 387 522 441 c 1,26,-1
 244 441 l 1,27,-1
 244 337 l 1,28,-1
 329 337 l 2,29,24
 416 337 416 337 463 362 c 128,-1,25
EndSplineSet
EndChar

StartChar: uni20B1
Encoding: 8369 8369 492
Width: 738
Flags: W
LayerCount: 2
Fore
SplineSet
727 526 m 1,0,-1
 637 526 l 1,1,2
 639 502 639 502 639 487 c 256,3,4
 639 472 639 472 637 446 c 1,5,-1
 727 446 l 1,6,-1
 727 356 l 1,7,-1
 609 356 l 1,8,9
 546 244 546 244 344 244 c 2,10,-1
 244 244 l 1,11,-1
 244 0 l 1,12,-1
 134 0 l 1,13,-1
 134 356 l 1,14,-1
 26 356 l 1,15,-1
 26 446 l 1,16,-1
 134 446 l 1,17,-1
 134 526 l 1,18,-1
 26 526 l 1,19,-1
 26 616 l 1,20,-1
 134 616 l 1,21,-1
 134 730 l 1,22,-1
 324 730 l 2,23,24
 435 730 435 730 506 702 c 128,-1,25
 577 674 577 674 610 616 c 1,26,-1
 727 616 l 1,27,-1
 727 526 l 1,0,-1
479.5 373 m 128,-1,29
 527 409 527 409 527 486 c 256,30,31
 527 563 527 563 479.5 599 c 128,-1,32
 432 635 432 635 329 635 c 2,33,-1
 244 635 l 1,34,-1
 244 337 l 1,35,-1
 329 337 l 2,36,28
 432 337 432 337 479.5 373 c 128,-1,29
EndSplineSet
EndChar

StartChar: uni20BD
Encoding: 8381 8381 493
Width: 667
Flags: W
LayerCount: 2
Fore
SplineSet
244 272 m 1,0,-1
 244 192 l 1,1,-1
 486 192 l 1,2,-1
 486 102 l 1,3,-1
 244 102 l 1,4,-1
 244 0 l 1,5,-1
 134 0 l 1,6,-1
 134 102 l 1,7,-1
 26 102 l 1,8,-1
 26 192 l 1,9,-1
 134 192 l 1,10,-1
 134 272 l 1,11,-1
 26 272 l 1,12,-1
 26 362 l 1,13,-1
 134 362 l 1,14,-1
 134 730 l 1,15,-1
 324 730 l 2,16,17
 485 730 485 730 562 673 c 128,-1,18
 639 616 639 616 639 497 c 0,19,20
 639 383 639 383 566 327.5 c 128,-1,21
 493 272 493 272 344 272 c 2,22,-1
 244 272 l 1,0,-1
244 362 m 1,23,-1
 329 362 l 2,24,25
 432 362 432 362 479.5 394 c 128,-1,26
 527 426 527 426 527 496 c 256,27,28
 527 566 527 566 479.5 598 c 128,-1,29
 432 630 432 630 329 630 c 2,30,-1
 244 630 l 1,31,-1
 244 362 l 1,23,-1
EndSplineSet
EndChar

StartChar: uni20B9
Encoding: 8377 8377 494
Width: 634
Flags: W
LayerCount: 2
Fore
SplineSet
467 640 m 1,0,1
 492 606 492 606 499 560 c 1,2,-1
 590 560 l 1,3,-1
 590 470 l 1,4,-1
 498 470 l 1,5,6
 485 397 485 397 430 356 c 128,-1,7
 375 315 375 315 276 305 c 1,8,-1
 527 0 l 1,9,-1
 383 0 l 1,10,-1
 135 302 l 1,11,-1
 52 302 l 1,12,-1
 52 400 l 1,13,-1
 207 400 l 2,14,15
 283 400 283 400 325.5 417 c 128,-1,16
 368 434 368 434 382 470 c 1,17,-1
 52 470 l 1,18,-1
 52 560 l 1,19,-1
 382 560 l 1,20,21
 368 596 368 596 325.5 613 c 128,-1,22
 283 630 283 630 207 630 c 2,23,-1
 52 630 l 1,24,-1
 52 730 l 1,25,-1
 590 730 l 1,26,-1
 590 640 l 1,27,-1
 467 640 l 1,0,1
EndSplineSet
EndChar

StartChar: sterling
Encoding: 163 163 495
Width: 662
Flags: W
LayerCount: 2
Fore
SplineSet
598 98 m 1,0,-1
 598 0 l 1,1,-1
 88 0 l 1,2,-1
 88 98 l 1,3,4
 135 101 135 101 164 145 c 128,-1,5
 193 189 193 189 193 257 c 2,6,-1
 193 338 l 1,7,-1
 88 338 l 1,8,-1
 88 428 l 1,9,-1
 193 428 l 1,10,-1
 193 535 l 2,11,12
 193 633 193 633 254 686.5 c 128,-1,13
 315 740 315 740 428 740 c 0,14,15
 501 740 501 740 572 714 c 1,16,-1
 550 618 l 1,17,18
 498 642 498 642 440 642 c 0,19,20
 369 642 369 642 336 612 c 128,-1,21
 303 582 303 582 303 517 c 2,22,-1
 303 428 l 1,23,-1
 535 428 l 1,24,-1
 535 338 l 1,25,-1
 303 338 l 1,26,-1
 303 257 l 2,27,28
 303 204 303 204 283.5 162 c 128,-1,29
 264 120 264 120 230 100 c 1,30,-1
 230 98 l 1,31,-1
 598 98 l 1,0,-1
EndSplineSet
EndChar

StartChar: uni20A9
Encoding: 8361 8361 496
Width: 1012
GlyphClass: 2
Flags: W
AnchorPoint: "Anchor-1" 508 730 basechar 0
AnchorPoint: "Anchor-0" 508 0 basechar 0
LayerCount: 2
Fore
SplineSet
986 405 m 1,0,-1
 870 405 l 1,1,-1
 852 325 l 1,2,-1
 986 325 l 1,3,-1
 986 235 l 1,4,-1
 831 235 l 1,5,-1
 776 0 l 1,6,-1
 640 0 l 1,7,-1
 578 235 l 1,8,-1
 438 235 l 1,9,-1
 376 0 l 1,10,-1
 240 0 l 1,11,-1
 186 235 l 1,12,-1
 26 235 l 1,13,-1
 26 325 l 1,14,-1
 165 325 l 1,15,-1
 146 405 l 1,16,-1
 26 405 l 1,17,-1
 26 495 l 1,18,-1
 125 495 l 1,19,-1
 71 730 l 1,20,-1
 184 730 l 1,21,-1
 234 495 l 1,22,-1
 405 495 l 1,23,-1
 440 630 l 1,24,-1
 576 630 l 1,25,-1
 611 495 l 1,26,-1
 783 495 l 1,27,-1
 833 730 l 1,28,-1
 946 730 l 1,29,-1
 891 495 l 1,30,-1
 986 495 l 1,31,-1
 986 405 l 1,0,-1
554 325 m 1,32,-1
 509 497 l 1,33,-1
 507 497 l 1,34,-1
 462 325 l 1,35,-1
 554 325 l 1,32,-1
253 405 m 1,36,-1
 270 325 l 1,37,-1
 361 325 l 1,38,-1
 382 405 l 1,39,-1
 253 405 l 1,36,-1
747 325 m 1,40,-1
 764 405 l 1,41,-1
 635 405 l 1,42,-1
 655 325 l 1,43,-1
 747 325 l 1,40,-1
312 134 m 1,44,-1
 338 235 l 1,45,-1
 289 235 l 1,46,-1
 310 134 l 1,47,-1
 312 134 l 1,44,-1
707 134 m 1,48,-1
 728 235 l 1,49,-1
 679 235 l 1,50,-1
 705 134 l 1,51,-1
 707 134 l 1,48,-1
EndSplineSet
EndChar

StartChar: yen
Encoding: 165 165 497
Width: 654
Flags: W
LayerCount: 2
Fore
SplineSet
647 730 m 1,0,-1
 433 380 l 1,1,-1
 592 380 l 1,2,-1
 592 290 l 1,3,-1
 384 290 l 1,4,-1
 384 210 l 1,5,-1
 592 210 l 1,6,-1
 592 120 l 1,7,-1
 384 120 l 1,8,-1
 384 0 l 1,9,-1
 270 0 l 1,10,-1
 270 120 l 1,11,-1
 62 120 l 1,12,-1
 62 210 l 1,13,-1
 270 210 l 1,14,-1
 270 290 l 1,15,-1
 62 290 l 1,16,-1
 62 380 l 1,17,-1
 221 380 l 1,18,-1
 7 730 l 1,19,-1
 133 730 l 1,20,-1
 326 401 l 1,21,-1
 328 401 l 1,22,-1
 521 730 l 1,23,-1
 647 730 l 1,0,-1
EndSplineSet
EndChar

StartChar: uni2215
Encoding: 8725 8725 499
Width: 455
Flags: W
LayerCount: 2
Fore
SplineSet
332 730 m 1,0,-1
 443 730 l 1,1,-1
 123 0 l 1,2,-1
 12 0 l 1,3,-1
 332 730 l 1,0,-1
EndSplineSet
EndChar

StartChar: plus
Encoding: 43 43 500
Width: 692
Flags: W
LayerCount: 2
Fore
SplineSet
296 240 m 1,0,-1
 56 240 l 1,1,-1
 56 340 l 1,2,-1
 296 340 l 1,3,-1
 296 580 l 1,4,-1
 396 580 l 1,5,-1
 396 340 l 1,6,-1
 636 340 l 1,7,-1
 636 240 l 1,8,-1
 396 240 l 1,9,-1
 396 0 l 1,10,-1
 296 0 l 1,11,-1
 296 240 l 1,0,-1
EndSplineSet
EndChar

StartChar: minus
Encoding: 8722 8722 501
Width: 692
Flags: W
LayerCount: 2
Fore
SplineSet
56 340 m 1,0,-1
 636 340 l 1,1,-1
 636 240 l 1,2,-1
 56 240 l 1,3,-1
 56 340 l 1,0,-1
EndSplineSet
EndChar

StartChar: multiply
Encoding: 215 215 502
Width: 614
Flags: W
LayerCount: 2
Fore
SplineSet
236 290 m 1,0,-1
 35 492 l 1,1,-1
 105 562 l 1,2,-1
 307 361 l 1,3,-1
 509 562 l 1,4,-1
 579 492 l 1,5,-1
 378 290 l 1,6,-1
 579 88 l 1,7,-1
 509 18 l 1,8,-1
 307 219 l 1,9,-1
 105 18 l 1,10,-1
 35 88 l 1,11,-1
 236 290 l 1,0,-1
EndSplineSet
EndChar

StartChar: divide
Encoding: 247 247 503
Width: 692
Flags: W
LayerCount: 2
Fore
SplineSet
298 465 m 128,-1,1
 278 485 278 485 278 513 c 256,2,3
 278 541 278 541 298 560.5 c 128,-1,4
 318 580 318 580 346 580 c 256,5,6
 374 580 374 580 393.5 560.5 c 128,-1,7
 413 541 413 541 413 513 c 256,8,9
 413 485 413 485 393.5 465 c 128,-1,10
 374 445 374 445 346 445 c 256,11,0
 318 445 318 445 298 465 c 128,-1,1
56 340 m 1,12,-1
 636 340 l 1,13,-1
 636 240 l 1,14,-1
 56 240 l 1,15,-1
 56 340 l 1,12,-1
298 20 m 128,-1,17
 278 40 278 40 278 68 c 256,18,19
 278 96 278 96 298 115.5 c 128,-1,20
 318 135 318 135 346 135 c 256,21,22
 374 135 374 135 393.5 115.5 c 128,-1,23
 413 96 413 96 413 68 c 256,24,25
 413 40 413 40 393.5 20 c 128,-1,26
 374 0 374 0 346 0 c 256,27,16
 318 0 318 0 298 20 c 128,-1,17
EndSplineSet
EndChar

StartChar: equal
Encoding: 61 61 504
Width: 756
Flags: W
LayerCount: 2
Fore
SplineSet
88 455 m 1,0,-1
 668 455 l 1,1,-1
 668 358 l 1,2,-1
 88 358 l 1,3,-1
 88 455 l 1,0,-1
88 222 m 1,4,-1
 668 222 l 1,5,-1
 668 125 l 1,6,-1
 88 125 l 1,7,-1
 88 222 l 1,4,-1
EndSplineSet
EndChar

StartChar: notequal
Encoding: 8800 8800 505
Width: 756
Flags: W
LayerCount: 2
Fore
SplineSet
668 358 m 1,0,-1
 454 358 l 1,1,-1
 410 222 l 1,2,-1
 668 222 l 1,3,-1
 668 125 l 1,4,-1
 379 125 l 1,5,-1
 327 -35 l 1,6,-1
 229 -5 l 1,7,-1
 271 125 l 1,8,-1
 88 125 l 1,9,-1
 88 222 l 1,10,-1
 302 222 l 1,11,-1
 346 358 l 1,12,-1
 88 358 l 1,13,-1
 88 455 l 1,14,-1
 377 455 l 1,15,-1
 429 615 l 1,16,-1
 527 585 l 1,17,-1
 485 455 l 1,18,-1
 668 455 l 1,19,-1
 668 358 l 1,0,-1
EndSplineSet
EndChar

StartChar: greater
Encoding: 62 62 506
Width: 716
Flags: W
LayerCount: 2
Fore
SplineSet
80 119 m 1,0,-1
 576 289 l 1,1,-1
 576 291 l 1,2,-1
 80 461 l 1,3,-1
 80 571 l 1,4,-1
 660 352 l 1,5,-1
 660 228 l 1,6,-1
 80 9 l 1,7,-1
 80 119 l 1,0,-1
EndSplineSet
EndChar

StartChar: less
Encoding: 60 60 507
Width: 716
Flags: W
LayerCount: 2
Fore
SplineSet
56 228 m 1,0,-1
 56 352 l 1,1,-1
 636 571 l 1,2,-1
 636 461 l 1,3,-1
 140 291 l 1,4,-1
 140 289 l 1,5,-1
 636 119 l 1,6,-1
 636 9 l 1,7,-1
 56 228 l 1,0,-1
EndSplineSet
EndChar

StartChar: greaterequal
Encoding: 8805 8805 508
Width: 706
Flags: W
LayerCount: 2
Fore
SplineSet
72 178 m 1,0,-1
 72 288 l 1,1,-1
 568 458 l 1,2,-1
 568 460 l 1,3,-1
 72 630 l 1,4,-1
 72 740 l 1,5,-1
 652 521 l 1,6,-1
 652 397 l 1,7,-1
 72 178 l 1,0,-1
72 0 m 1,8,-1
 72 97 l 1,9,-1
 652 97 l 1,10,-1
 652 0 l 1,11,-1
 72 0 l 1,8,-1
EndSplineSet
EndChar

StartChar: lessequal
Encoding: 8804 8804 509
Width: 706
Flags: W
LayerCount: 2
Fore
SplineSet
54 521 m 1,0,-1
 634 740 l 1,1,-1
 634 630 l 1,2,-1
 138 460 l 1,3,-1
 138 458 l 1,4,-1
 634 288 l 1,5,-1
 634 178 l 1,6,-1
 54 397 l 1,7,-1
 54 521 l 1,0,-1
54 97 m 1,8,-1
 634 97 l 1,9,-1
 634 0 l 1,10,-1
 54 0 l 1,11,-1
 54 97 l 1,8,-1
EndSplineSet
EndChar

StartChar: plusminus
Encoding: 177 177 510
Width: 756
Flags: W
LayerCount: 2
Fore
SplineSet
328 410 m 1,0,-1
 88 410 l 1,1,-1
 88 507 l 1,2,-1
 328 507 l 1,3,-1
 328 730 l 1,4,-1
 428 730 l 1,5,-1
 428 507 l 1,6,-1
 668 507 l 1,7,-1
 668 410 l 1,8,-1
 428 410 l 1,9,-1
 428 187 l 1,10,-1
 328 187 l 1,11,-1
 328 410 l 1,0,-1
88 97 m 1,12,-1
 668 97 l 1,13,-1
 668 0 l 1,14,-1
 88 0 l 1,15,-1
 88 97 l 1,12,-1
EndSplineSet
EndChar

StartChar: approxequal
Encoding: 8776 8776 511
Width: 740
Flags: W
LayerCount: 2
Fore
SplineSet
102.5 459.5 m 128,-1,1
 135 504 135 504 202 504 c 0,2,3
 272 504 272 504 397 452 c 0,4,5
 442 433 442 433 471 425 c 128,-1,6
 500 417 500 417 522 417 c 0,7,8
 552 417 552 417 563 433 c 128,-1,9
 574 449 574 449 574 494 c 1,10,-1
 670 494 l 1,11,12
 670 402 670 402 637.5 357.5 c 128,-1,13
 605 313 605 313 538 313 c 0,14,15
 468 313 468 313 343 365 c 0,16,17
 298 384 298 384 269 392 c 128,-1,18
 240 400 240 400 218 400 c 0,19,20
 188 400 188 400 177 384 c 128,-1,21
 166 368 166 368 166 323 c 1,22,-1
 70 323 l 1,23,0
 70 415 70 415 102.5 459.5 c 128,-1,1
102.5 214.5 m 128,-1,25
 135 259 135 259 202 259 c 0,26,27
 272 259 272 259 397 207 c 0,28,29
 442 188 442 188 471 180 c 128,-1,30
 500 172 500 172 522 172 c 0,31,32
 552 172 552 172 563 188 c 128,-1,33
 574 204 574 204 574 249 c 1,34,-1
 670 249 l 1,35,36
 670 157 670 157 637.5 112.5 c 128,-1,37
 605 68 605 68 538 68 c 0,38,39
 468 68 468 68 343 120 c 0,40,41
 298 139 298 139 269 147 c 128,-1,42
 240 155 240 155 218 155 c 0,43,44
 188 155 188 155 177 139 c 128,-1,45
 166 123 166 123 166 78 c 1,46,-1
 70 78 l 1,47,24
 70 170 70 170 102.5 214.5 c 128,-1,25
EndSplineSet
EndChar

StartChar: asciitilde
Encoding: 126 126 512
Width: 712
Flags: W
LayerCount: 2
Fore
SplineSet
88.5 352.5 m 128,-1,1
 121 398 121 398 188 398 c 0,2,3
 259 398 259 398 383 345 c 0,4,5
 428 326 428 326 456.5 317.5 c 128,-1,6
 485 309 485 309 508 309 c 0,7,8
 538 309 538 309 549 325.5 c 128,-1,9
 560 342 560 342 560 388 c 1,10,-1
 656 388 l 1,11,12
 656 294 656 294 623.5 248.5 c 128,-1,13
 591 203 591 203 524 203 c 0,14,15
 453 203 453 203 329 256 c 0,16,17
 284 275 284 275 255.5 283.5 c 128,-1,18
 227 292 227 292 204 292 c 0,19,20
 174 292 174 292 163 275.5 c 128,-1,21
 152 259 152 259 152 213 c 1,22,-1
 56 213 l 1,23,0
 56 307 56 307 88.5 352.5 c 128,-1,1
EndSplineSet
EndChar

StartChar: logicalnot
Encoding: 172 172 513
Width: 724
Flags: W
LayerCount: 2
Fore
SplineSet
536 355 m 1,0,-1
 56 355 l 1,1,-1
 56 455 l 1,2,-1
 636 455 l 1,3,-1
 636 125 l 1,4,-1
 536 125 l 1,5,-1
 536 355 l 1,0,-1
EndSplineSet
EndChar

StartChar: asciicircum
Encoding: 94 94 514
Width: 624
Flags: W
LayerCount: 2
Fore
SplineSet
240 730 m 1,0,-1
 385 730 l 1,1,-1
 612 280 l 1,2,-1
 491 280 l 1,3,-1
 313 653 l 1,4,-1
 311 653 l 1,5,-1
 134 280 l 1,6,-1
 12 280 l 1,7,-1
 240 730 l 1,0,-1
EndSplineSet
EndChar

StartChar: uni00B5
Encoding: 181 181 515
Width: 587
GlyphClass: 2
Flags: W
AnchorPoint: "Anchor-3" 500 480 basechar 0
AnchorPoint: "Anchor-2" 515 0 basechar 0
AnchorPoint: "Anchor-1" 294 520 basechar 0
AnchorPoint: "Anchor-0" 294 0 basechar 0
LayerCount: 2
Fore
SplineSet
515 520 m 1,0,-1
 515 0 l 1,1,-1
 412 0 l 1,2,-1
 411 76 l 1,3,-1
 409 76 l 1,4,5
 376 35 376 35 328 12.5 c 128,-1,6
 280 -10 280 -10 225 -10 c 0,7,8
 197 -10 197 -10 173 -4 c 1,9,-1
 173 -220 l 1,10,-1
 65 -220 l 1,11,-1
 65 520 l 1,12,-1
 173 520 l 1,13,-1
 173 220 l 2,14,15
 173 147 173 147 192.5 113.5 c 128,-1,16
 212 80 212 80 255 80 c 0,17,18
 294 80 294 80 329 104.5 c 128,-1,19
 364 129 364 129 385.5 169.5 c 128,-1,20
 407 210 407 210 407 255 c 2,21,-1
 407 520 l 1,22,-1
 515 520 l 1,0,-1
EndSplineSet
EndChar

StartChar: percent
Encoding: 37 37 516
Width: 879
Flags: W
LayerCount: 2
Fore
SplineSet
80.5 341.5 m 128,-1,1
 40 397 40 397 40 511 c 256,2,3
 40 625 40 625 80.5 680.5 c 128,-1,4
 121 736 121 736 205 736 c 256,5,6
 289 736 289 736 329.5 680.5 c 128,-1,7
 370 625 370 625 370 511 c 256,8,9
 370 397 370 397 329.5 341.5 c 128,-1,10
 289 286 289 286 205 286 c 256,11,0
 121 286 121 286 80.5 341.5 c 128,-1,1
587 730 m 1,12,-1
 692 730 l 1,13,-1
 292 0 l 1,14,-1
 187 0 l 1,15,-1
 587 730 l 1,12,-1
253.5 408.5 m 128,-1,17
 269 440 269 440 269 511 c 256,18,19
 269 582 269 582 253.5 613.5 c 128,-1,20
 238 645 238 645 205 645 c 256,21,22
 172 645 172 645 156.5 613.5 c 128,-1,23
 141 582 141 582 141 511 c 256,24,25
 141 440 141 440 156.5 408.5 c 128,-1,26
 172 377 172 377 205 377 c 256,27,16
 238 377 238 377 253.5 408.5 c 128,-1,17
549.5 49.5 m 128,-1,29
 509 105 509 105 509 219 c 256,30,31
 509 333 509 333 549.5 388.5 c 128,-1,32
 590 444 590 444 674 444 c 256,33,34
 758 444 758 444 798.5 388.5 c 128,-1,35
 839 333 839 333 839 219 c 256,36,37
 839 105 839 105 798.5 49.5 c 128,-1,38
 758 -6 758 -6 674 -6 c 256,39,28
 590 -6 590 -6 549.5 49.5 c 128,-1,29
722.5 116.5 m 128,-1,41
 738 148 738 148 738 219 c 256,42,43
 738 290 738 290 722.5 321.5 c 128,-1,44
 707 353 707 353 674 353 c 256,45,46
 641 353 641 353 625.5 321.5 c 128,-1,47
 610 290 610 290 610 219 c 256,48,49
 610 148 610 148 625.5 116.5 c 128,-1,50
 641 85 641 85 674 85 c 256,51,40
 707 85 707 85 722.5 116.5 c 128,-1,41
EndSplineSet
EndChar

StartChar: filledbox
Encoding: 9632 9632 518
Width: 1000
Flags: W
LayerCount: 2
Fore
SplineSet
120 740 m 1,0,-1
 880 740 l 1,1,-1
 880 -20 l 1,2,-1
 120 -20 l 1,3,-1
 120 740 l 1,0,-1
EndSplineSet
EndChar

StartChar: at
Encoding: 64 64 519
Width: 825
Flags: W
LayerCount: 2
Fore
SplineSet
595 457 m 1,0,-1
 595 143 l 1,1,-1
 682 143 l 1,2,3
 705 195 705 195 705 260 c 0,4,5
 705 346 705 346 668 412.5 c 128,-1,6
 631 479 631 479 564.5 516 c 128,-1,7
 498 553 498 553 413 553 c 256,8,9
 328 553 328 553 261 515.5 c 128,-1,10
 194 478 194 478 157 411.5 c 128,-1,11
 120 345 120 345 120 260 c 256,12,13
 120 175 120 175 157 108.5 c 128,-1,14
 194 42 194 42 261 4.5 c 128,-1,15
 328 -33 328 -33 413 -33 c 0,16,17
 521 -33 521 -33 599 28 c 1,18,-1
 646 -36 l 1,19,20
 598 -73 598 -73 539 -93 c 128,-1,21
 480 -113 480 -113 413 -113 c 0,22,23
 306 -113 306 -113 221 -65 c 128,-1,24
 136 -17 136 -17 88 68 c 128,-1,25
 40 153 40 153 40 260 c 256,26,27
 40 367 40 367 88 452 c 128,-1,28
 136 537 136 537 221 585 c 128,-1,29
 306 633 306 633 413 633 c 256,30,31
 520 633 520 633 605 585.5 c 128,-1,32
 690 538 690 538 737.5 453 c 128,-1,33
 785 368 785 368 785 260 c 0,34,35
 785 147 785 147 734 63 c 1,36,-1
 491 63 l 1,37,-1
 490 123 l 1,38,-1
 488 123 l 1,39,40
 443 55 443 55 366 55 c 0,41,42
 295 55 295 55 252 109.5 c 128,-1,43
 209 164 209 164 209 260 c 256,44,45
 209 356 209 356 252 410.5 c 128,-1,46
 295 465 295 465 366 465 c 0,47,48
 405 465 405 465 435 448.5 c 128,-1,49
 465 432 465 432 488 398 c 1,50,-1
 490 398 l 1,51,-1
 491 457 l 1,52,-1
 595 457 l 1,0,-1
487 268 m 2,53,54
 487 322 487 322 464.5 351 c 128,-1,55
 442 380 442 380 402 380 c 0,56,57
 363 380 363 380 340 348.5 c 128,-1,58
 317 317 317 317 317 260 c 256,59,60
 317 203 317 203 340 171.5 c 128,-1,61
 363 140 363 140 402 140 c 0,62,63
 442 140 442 140 464.5 169 c 128,-1,64
 487 198 487 198 487 252 c 2,65,-1
 487 268 l 2,53,54
EndSplineSet
EndChar

StartChar: ampersand
Encoding: 38 38 520
Width: 702
Flags: W
LayerCount: 2
Fore
SplineSet
622 -12 m 1,0,-1
 543 66 l 1,1,2
 481 27 481 27 420 8.5 c 128,-1,3
 359 -10 359 -10 292 -10 c 0,4,5
 175 -10 175 -10 107.5 39.5 c 128,-1,6
 40 89 40 89 40 175 c 0,7,8
 40 235 40 235 77.5 283.5 c 128,-1,9
 115 332 115 332 210 395 c 1,10,-1
 206 399 l 2,11,12
 148 456 148 456 125 499 c 128,-1,13
 102 542 102 542 102 588 c 0,14,15
 102 660 102 660 156.5 700 c 128,-1,16
 211 740 211 740 310 740 c 0,17,18
 408 740 408 740 464 699.5 c 128,-1,19
 520 659 520 659 520 588 c 0,20,21
 520 534 520 534 483.5 487 c 128,-1,22
 447 440 447 440 361 382 c 1,23,-1
 514 228 l 1,24,-1
 515 405 l 1,25,-1
 615 405 l 1,26,-1
 614 128 l 1,27,-1
 700 42 l 1,28,-1
 622 -12 l 1,0,-1
234.5 639 m 128,-1,30
 207 620 207 620 207 585 c 0,31,32
 207 557 207 557 226.5 528 c 128,-1,33
 246 499 246 499 295 448 c 1,34,35
 362 492 362 492 388.5 522.5 c 128,-1,36
 415 553 415 553 415 585 c 0,37,38
 415 621 415 621 388.5 639.5 c 128,-1,39
 362 658 362 658 312 658 c 256,40,29
 262 658 262 658 234.5 639 c 128,-1,30
471 138 m 1,42,-1
 277 329 l 1,43,44
 207 284 207 284 179.5 251.5 c 128,-1,45
 152 219 152 219 152 183 c 0,46,47
 152 135 152 135 190.5 107.5 c 128,-1,48
 229 80 229 80 297 80 c 0,49,41
 393 80 393 80 471 138 c 1,42,-1
EndSplineSet
EndChar

StartChar: paragraph
Encoding: 182 182 521
Width: 631
Flags: W
LayerCount: 2
Fore
SplineSet
126 301 m 128,-1,1
 73 332 73 332 42 385 c 128,-1,2
 11 438 11 438 11 500 c 256,3,4
 11 562 11 562 42 615 c 128,-1,5
 73 668 73 668 126 699 c 128,-1,6
 179 730 179 730 241 730 c 2,7,-1
 551 730 l 1,8,-1
 551 -110 l 1,9,-1
 456 -110 l 1,10,-1
 456 645 l 1,11,-1
 336 645 l 1,12,-1
 336 -110 l 1,13,-1
 241 -110 l 1,14,-1
 241 270 l 1,15,0
 179 270 179 270 126 301 c 128,-1,1
EndSplineSet
EndChar

StartChar: section
Encoding: 167 167 522
Width: 557
Flags: W
LayerCount: 2
Fore
SplineSet
491 50 m 0,1,2
 491 -32 491 -32 436 -76 c 128,-1,3
 381 -120 381 -120 279 -120 c 0,4,5
 175 -120 175 -120 74 -75 c 1,6,-1
 101 10 l 1,7,8
 146 -11 146 -11 186 -20.5 c 128,-1,9
 226 -30 226 -30 269 -30 c 0,10,11
 330 -30 330 -30 359.5 -10 c 128,-1,12
 389 10 389 10 389 50 c 0,13,14
 389 88 389 88 362.5 110 c 128,-1,15
 336 132 336 132 275 143 c 0,16,17
 64 182 64 182 64 325 c 0,18,19
 64 403 64 403 122 449 c 1,20,21
 66 493 66 493 66 570 c 0,22,23
 66 652 66 652 121 696 c 128,-1,24
 176 740 176 740 278 740 c 0,25,26
 382 740 382 740 483 695 c 1,27,-1
 456 610 l 1,28,29
 411 631 411 631 371 640.5 c 128,-1,30
 331 650 331 650 288 650 c 0,31,32
 227 650 227 650 197.5 630.5 c 128,-1,33
 168 611 168 611 168 570 c 0,34,35
 168 532 168 532 194.5 510 c 128,-1,36
 221 488 221 488 282 477 c 0,37,38
 493 438 493 438 493 295 c 0,39,40
 493 217 493 217 435 171 c 1,41,0
 491 127 491 127 491 50 c 0,1,2
183 266.5 m 128,-1,43
 212 246 212 246 287 230 c 0,44,45
 334 220 334 220 359 210 c 1,46,47
 380 225 380 225 391.5 247 c 128,-1,48
 403 269 403 269 403 295 c 0,49,50
 403 333 403 333 374 353.5 c 128,-1,51
 345 374 345 374 270 390 c 0,52,53
 223 400 223 400 198 410 c 1,54,55
 177 395 177 395 165.5 373 c 128,-1,56
 154 351 154 351 154 325 c 0,57,42
 154 287 154 287 183 266.5 c 128,-1,43
EndSplineSet
EndChar

StartChar: copyright
Encoding: 169 169 523
Width: 820
Flags: W
LayerCount: 2
Fore
SplineSet
224 45 m 128,-1,1
 139 95 139 95 89.5 180 c 128,-1,2
 40 265 40 265 40 365 c 0,3,4
 40 466 40 466 89.5 551 c 128,-1,5
 139 636 139 636 224 685.5 c 128,-1,6
 309 735 309 735 410 735 c 0,7,8
 510 735 510 735 595 685.5 c 128,-1,9
 680 636 680 636 730 551 c 128,-1,10
 780 466 780 466 780 365 c 0,11,12
 780 265 780 265 730 180 c 128,-1,13
 680 95 680 95 595 45 c 128,-1,14
 510 -5 510 -5 410 -5 c 0,15,0
 309 -5 309 -5 224 45 c 128,-1,1
560.5 105.5 m 128,-1,17
 629 146 629 146 669.5 214.5 c 128,-1,18
 710 283 710 283 710 365 c 256,19,20
 710 447 710 447 669.5 515.5 c 128,-1,21
 629 584 629 584 560.5 624.5 c 128,-1,22
 492 665 492 665 410 665 c 256,23,24
 328 665 328 665 259.5 624.5 c 128,-1,25
 191 584 191 584 150.5 515.5 c 128,-1,26
 110 447 110 447 110 365 c 256,27,28
 110 283 110 283 150.5 214.5 c 128,-1,29
 191 146 191 146 259.5 105.5 c 128,-1,30
 328 65 328 65 410 65 c 256,31,16
 492 65 492 65 560.5 105.5 c 128,-1,17
262 200 m 128,-1,33
 204 260 204 260 204 365 c 256,34,35
 204 470 204 470 262.5 530 c 128,-1,36
 321 590 321 590 422 590 c 0,37,38
 505 590 505 590 566 551 c 1,39,-1
 520 470 l 1,40,41
 475 499 475 499 425 499 c 0,42,43
 368 499 368 499 337 464 c 128,-1,44
 306 429 306 429 306 365 c 256,45,46
 306 301 306 301 337 266 c 128,-1,47
 368 231 368 231 425 231 c 0,48,49
 475 231 475 231 520 260 c 1,50,-1
 566 179 l 1,51,52
 505 140 505 140 422 140 c 0,53,32
 320 140 320 140 262 200 c 128,-1,33
EndSplineSet
EndChar

StartChar: registered
Encoding: 174 174 524
Width: 820
Flags: W
LayerCount: 2
Fore
SplineSet
595 685.5 m 128,-1,1
 680 636 680 636 730 551 c 128,-1,2
 780 466 780 466 780 365 c 0,3,4
 780 265 780 265 730 180 c 128,-1,5
 680 95 680 95 595 45 c 128,-1,6
 510 -5 510 -5 410 -5 c 0,7,8
 309 -5 309 -5 224 45 c 128,-1,9
 139 95 139 95 89.5 180 c 128,-1,10
 40 265 40 265 40 365 c 0,11,12
 40 466 40 466 89.5 551 c 128,-1,13
 139 636 139 636 224 685.5 c 128,-1,14
 309 735 309 735 410 735 c 0,15,0
 510 735 510 735 595 685.5 c 128,-1,1
560.5 105.5 m 128,-1,17
 629 146 629 146 669.5 214.5 c 128,-1,18
 710 283 710 283 710 365 c 256,19,20
 710 447 710 447 669.5 515.5 c 128,-1,21
 629 584 629 584 560.5 624.5 c 128,-1,22
 492 665 492 665 410 665 c 256,23,24
 328 665 328 665 259.5 624.5 c 128,-1,25
 191 584 191 584 150.5 515.5 c 128,-1,26
 110 447 110 447 110 365 c 256,27,28
 110 283 110 283 150.5 214.5 c 128,-1,29
 191 146 191 146 259.5 105.5 c 128,-1,30
 328 65 328 65 410 65 c 256,31,16
 492 65 492 65 560.5 105.5 c 128,-1,17
469 319 m 1,33,-1
 604 146 l 1,34,-1
 485 146 l 1,35,-1
 369 309 l 1,36,-1
 369 146 l 1,37,-1
 269 146 l 1,38,-1
 269 584 l 1,39,-1
 388 584 l 2,40,41
 485 584 485 584 531 551 c 128,-1,42
 577 518 577 518 577 449 c 0,43,32
 577 343 577 343 469 319 c 1,33,-1
369 504 m 1,44,-1
 369 389 l 1,45,-1
 391 389 l 2,46,47
 436 389 436 389 455.5 402.5 c 128,-1,48
 475 416 475 416 475 446 c 256,49,50
 475 476 475 476 455.5 490 c 128,-1,51
 436 504 436 504 391 504 c 2,52,-1
 369 504 l 1,44,-1
EndSplineSet
EndChar

StartChar: trademark
Encoding: 8482 8482 525
Width: 766
Flags: W
LayerCount: 2
Fore
SplineSet
127 653 m 1,0,-1
 28 653 l 1,1,-1
 28 730 l 1,2,-1
 318 730 l 1,3,-1
 318 653 l 1,4,-1
 219 653 l 1,5,-1
 219 365 l 1,6,-1
 127 365 l 1,7,-1
 127 653 l 1,0,-1
372 730 m 1,8,-1
 484 730 l 1,9,-1
 550 568 l 1,10,-1
 551 568 l 1,11,-1
 617 730 l 1,12,-1
 729 730 l 1,13,-1
 729 365 l 1,14,-1
 639 365 l 1,15,-1
 639 564 l 1,16,-1
 638 564 l 1,17,-1
 590 443 l 1,18,-1
 511 443 l 1,19,-1
 463 564 l 1,20,-1
 462 564 l 1,21,-1
 462 365 l 1,22,-1
 372 365 l 1,23,-1
 372 730 l 1,8,-1
EndSplineSet
EndChar

StartChar: degree
Encoding: 176 176 526
Width: 417
Flags: W
LayerCount: 2
Fore
SplineSet
122 413.5 m 128,-1,1
 82 437 82 437 59 476.5 c 128,-1,2
 36 516 36 516 36 563 c 256,3,4
 36 610 36 610 59 649.5 c 128,-1,5
 82 689 82 689 122 712 c 128,-1,6
 162 735 162 735 209 735 c 0,7,8
 255 735 255 735 294.5 712 c 128,-1,9
 334 689 334 689 357.5 649.5 c 128,-1,10
 381 610 381 610 381 563 c 256,11,12
 381 516 381 516 357.5 476.5 c 128,-1,13
 334 437 334 437 294.5 413.5 c 128,-1,14
 255 390 255 390 209 390 c 0,15,0
 162 390 162 390 122 413.5 c 128,-1,1
274 497 m 128,-1,17
 301 524 301 524 301 563 c 0,18,19
 301 601 301 601 274 628 c 128,-1,20
 247 655 247 655 209 655 c 0,21,22
 170 655 170 655 143 628 c 128,-1,23
 116 601 116 601 116 563 c 0,24,25
 116 524 116 524 143 497 c 128,-1,26
 170 470 170 470 209 470 c 0,27,16
 247 470 247 470 274 497 c 128,-1,17
EndSplineSet
EndChar

StartChar: bar
Encoding: 124 124 527
Width: 281
Flags: W
LayerCount: 2
Fore
SplineSet
88 810 m 1,0,-1
 193 810 l 1,1,-1
 193 -220 l 1,2,-1
 88 -220 l 1,3,-1
 88 810 l 1,0,-1
EndSplineSet
EndChar

StartChar: brokenbar
Encoding: 166 166 528
Width: 281
Flags: W
LayerCount: 2
Fore
SplineSet
88 810 m 1,0,-1
 193 810 l 1,1,-1
 193 370 l 1,2,-1
 88 370 l 1,3,-1
 88 810 l 1,0,-1
88 220 m 1,4,-1
 193 220 l 1,5,-1
 193 -220 l 1,6,-1
 88 -220 l 1,7,-1
 88 220 l 1,4,-1
EndSplineSet
EndChar

StartChar: dagger
Encoding: 8224 8224 529
Width: 515
Flags: W
LayerCount: 2
Fore
SplineSet
205 430 m 1,0,-1
 28 430 l 1,1,-1
 28 520 l 1,2,-1
 205 520 l 1,3,-1
 205 730 l 1,4,-1
 310 730 l 1,5,-1
 310 520 l 1,6,-1
 487 520 l 1,7,-1
 487 430 l 1,8,-1
 310 430 l 1,9,-1
 310 -110 l 1,10,-1
 205 -110 l 1,11,-1
 205 430 l 1,0,-1
EndSplineSet
EndChar

StartChar: daggerdbl
Encoding: 8225 8225 530
Width: 537
Flags: W
LayerCount: 2
Fore
SplineSet
216 100 m 1,0,-1
 39 100 l 1,1,-1
 39 190 l 1,2,-1
 216 190 l 1,3,-1
 216 430 l 1,4,-1
 39 430 l 1,5,-1
 39 520 l 1,6,-1
 216 520 l 1,7,-1
 216 730 l 1,8,-1
 321 730 l 1,9,-1
 321 520 l 1,10,-1
 498 520 l 1,11,-1
 498 430 l 1,12,-1
 321 430 l 1,13,-1
 321 190 l 1,14,-1
 498 190 l 1,15,-1
 498 100 l 1,16,-1
 321 100 l 1,17,-1
 321 -110 l 1,18,-1
 216 -110 l 1,19,-1
 216 100 l 1,0,-1
EndSplineSet
EndChar

StartChar: uni2116
Encoding: 8470 8470 531
Width: 1194
GlyphClass: 2
Flags: W
AnchorPoint: "Anchor-1" 363 730 basechar 0
AnchorPoint: "Anchor-0" 363 0 basechar 0
LayerCount: 2
Fore
SplineSet
786.5 364.5 m 128,-1,1
 734 421 734 421 734 524 c 256,2,3
 734 627 734 627 786.5 683.5 c 128,-1,4
 839 740 839 740 936 740 c 256,5,6
 1033 740 1033 740 1085.5 683.5 c 128,-1,7
 1138 627 1138 627 1138 524 c 256,8,9
 1138 421 1138 421 1085.5 364.5 c 128,-1,10
 1033 308 1033 308 936 308 c 256,11,0
 839 308 839 308 786.5 364.5 c 128,-1,1
201 730 m 1,12,-1
 533 180 l 1,13,-1
 535 180 l 1,14,-1
 535 730 l 1,15,-1
 645 730 l 1,16,-1
 645 0 l 1,17,-1
 524 0 l 1,18,-1
 192 550 l 1,19,-1
 190 550 l 1,20,-1
 190 0 l 1,21,-1
 80 0 l 1,22,-1
 80 730 l 1,23,-1
 201 730 l 1,12,-1
1009.5 423.5 m 128,-1,25
 1035 458 1035 458 1035 524 c 256,26,27
 1035 590 1035 590 1009.5 624.5 c 128,-1,28
 984 659 984 659 936 659 c 256,29,30
 888 659 888 659 863 624.5 c 128,-1,31
 838 590 838 590 838 524 c 256,32,33
 838 458 838 458 863 423.5 c 128,-1,34
 888 389 888 389 936 389 c 256,35,24
 984 389 984 389 1009.5 423.5 c 128,-1,25
744 250 m 1,36,-1
 1128 250 l 1,37,-1
 1128 165 l 1,38,-1
 744 165 l 1,39,-1
 744 250 l 1,36,-1
EndSplineSet
Ligature2: "'ordn' Ordinals in Latin lookup 9 subtable" N o period
EndChar

StartChar: uni0308
Encoding: 776 776 534
Width: 0
GlyphClass: 4
Flags: W
AnchorPoint: "Anchor-10" -218 728 basemark 0
AnchorPoint: "Anchor-10" -218 520 mark 0
AnchorPoint: "Anchor-6" -218 520 mark 0
AnchorPoint: "Anchor-1" -218 520 mark 0
LayerCount: 2
Fore
SplineSet
-408 728 m 1,0,-1
 -282 728 l 1,1,-1
 -282 602 l 1,2,-1
 -408 602 l 1,3,-1
 -408 728 l 1,0,-1
-154 728 m 1,4,-1
 -28 728 l 1,5,-1
 -28 602 l 1,6,-1
 -154 602 l 1,7,-1
 -154 728 l 1,4,-1
EndSplineSet
EndChar

StartChar: uni0307
Encoding: 775 775 535
Width: 0
GlyphClass: 4
Flags: W
AnchorPoint: "Anchor-10" -91 728 basemark 0
AnchorPoint: "Anchor-10" -91 520 mark 0
AnchorPoint: "Anchor-6" -91 520 mark 0
AnchorPoint: "Anchor-1" -91 520 mark 0
LayerCount: 2
Fore
SplineSet
-154 728 m 1,0,-1
 -28 728 l 1,1,-1
 -28 602 l 1,2,-1
 -154 602 l 1,3,-1
 -154 728 l 1,0,-1
EndSplineSet
EndChar

StartChar: gravecomb
Encoding: 768 768 536
Width: 0
GlyphClass: 4
Flags: W
AnchorPoint: "Anchor-10" -140 520 mark 0
AnchorPoint: "Anchor-6" -140 520 mark 0
AnchorPoint: "Anchor-1" -140 520 mark 0
LayerCount: 2
Fore
SplineSet
-275 770 m 1,0,-1
 -135 770 l 1,1,-1
 -40 560 l 1,2,-1
 -150 560 l 1,3,-1
 -275 770 l 1,0,-1
EndSplineSet
EndChar

StartChar: acutecomb
Encoding: 769 769 537
Width: 0
GlyphClass: 4
Flags: W
AnchorPoint: "Anchor-10" -159 520 mark 0
AnchorPoint: "Anchor-6" -159 520 mark 0
AnchorPoint: "Anchor-1" -159 520 mark 0
LayerCount: 2
Fore
SplineSet
-149 560 m 1,0,-1
 -259 560 l 1,1,-1
 -164 770 l 1,2,-1
 -24 770 l 1,3,-1
 -149 560 l 1,0,-1
EndSplineSet
EndChar

StartChar: uni0302
Encoding: 770 770 539
Width: 0
GlyphClass: 4
Flags: W
AnchorPoint: "Anchor-10" -245 520 mark 0
AnchorPoint: "Anchor-6" -245 520 mark 0
AnchorPoint: "Anchor-1" -245 520 mark 0
LayerCount: 2
Fore
SplineSet
-342 770 m 1,0,-1
 -149 770 l 1,1,-1
 -24 560 l 1,2,-1
 -154 560 l 1,3,-1
 -244 720 l 1,4,-1
 -246 720 l 1,5,-1
 -336 560 l 1,6,-1
 -466 560 l 1,7,-1
 -342 770 l 1,0,-1
EndSplineSet
EndChar

StartChar: uni030C
Encoding: 780 780 540
Width: 0
GlyphClass: 4
Flags: W
AnchorPoint: "Anchor-10" -245 770 basemark 0
AnchorPoint: "Anchor-10" -245 520 mark 0
AnchorPoint: "Anchor-6" -245 520 mark 0
AnchorPoint: "Anchor-1" -245 520 mark 0
LayerCount: 2
Fore
SplineSet
-466 770 m 1,0,-1
 -336 770 l 1,1,-1
 -246 610 l 1,2,-1
 -244 610 l 1,3,-1
 -154 770 l 1,4,-1
 -24 770 l 1,5,-1
 -149 560 l 1,6,-1
 -342 560 l 1,7,-1
 -466 770 l 1,0,-1
EndSplineSet
EndChar

StartChar: uni0306
Encoding: 774 774 541
Width: 0
GlyphClass: 4
Flags: W
AnchorPoint: "Anchor-10" -222 520 mark 0
AnchorPoint: "Anchor-6" -222 520 mark 0
AnchorPoint: "Anchor-1" -222 520 mark 0
LayerCount: 2
Fore
SplineSet
-324.5 594.5 m 128,-1,1
 -370 616 -370 616 -397 655 c 128,-1,2
 -424 694 -424 694 -427 743 c 1,3,-1
 -310 743 l 1,4,5
 -305 702 -305 702 -282.5 680.5 c 128,-1,6
 -260 659 -260 659 -222 659 c 256,7,8
 -184 659 -184 659 -161.5 680.5 c 128,-1,9
 -139 702 -139 702 -134 743 c 1,10,-1
 -17 743 l 1,11,12
 -20 694 -20 694 -47 655 c 128,-1,13
 -74 616 -74 616 -119.5 594.5 c 128,-1,14
 -165 573 -165 573 -222 573 c 256,15,0
 -279 573 -279 573 -324.5 594.5 c 128,-1,1
EndSplineSet
EndChar

StartChar: uni030A
Encoding: 778 778 542
Width: 0
GlyphClass: 4
Flags: W
AnchorPoint: "Anchor-10" -173 730 basemark 0
AnchorPoint: "Anchor-10" -173 520 mark 0
AnchorPoint: "Anchor-6" -173 520 mark 0
AnchorPoint: "Anchor-1" -173 520 mark 0
LayerCount: 2
Fore
SplineSet
-247.5 535 m 128,-1,1
 -282 555 -282 555 -302 589.5 c 128,-1,2
 -322 624 -322 624 -322 665 c 256,3,4
 -322 706 -322 706 -302 740.5 c 128,-1,5
 -282 775 -282 775 -247.5 795 c 128,-1,6
 -213 815 -213 815 -172 815 c 256,7,8
 -131 815 -131 815 -96.5 795 c 128,-1,9
 -62 775 -62 775 -42 740.5 c 128,-1,10
 -22 706 -22 706 -22 665 c 256,11,12
 -22 624 -22 624 -42 589.5 c 128,-1,13
 -62 555 -62 555 -96.5 535 c 128,-1,14
 -131 515 -131 515 -172 515 c 256,15,0
 -213 515 -213 515 -247.5 535 c 128,-1,1
-122.5 615.5 m 128,-1,17
 -102 636 -102 636 -102 665 c 256,18,19
 -102 694 -102 694 -122.5 714.5 c 128,-1,20
 -143 735 -143 735 -172 735 c 256,21,22
 -201 735 -201 735 -221.5 714.5 c 128,-1,23
 -242 694 -242 694 -242 665 c 256,24,25
 -242 636 -242 636 -221.5 615.5 c 128,-1,26
 -201 595 -201 595 -172 595 c 256,27,16
 -143 595 -143 595 -122.5 615.5 c 128,-1,17
EndSplineSet
EndChar

StartChar: tildecomb
Encoding: 771 771 543
Width: 0
GlyphClass: 4
Flags: W
AnchorPoint: "Anchor-10" -233 753 basemark 0
AnchorPoint: "Anchor-10" -233 520 mark 0
AnchorPoint: "Anchor-6" -233 520 mark 0
AnchorPoint: "Anchor-1" -233 520 mark 0
LayerCount: 2
Fore
SplineSet
-173.5 586.5 m 128,-1,1
 -200 596 -200 596 -241 619 c 0,2,3
 -288 647 -288 647 -309 647 c 0,4,5
 -324 647 -324 647 -331 633.5 c 128,-1,6
 -338 620 -338 620 -338 587 c 1,7,-1
 -438 587 l 1,8,9
 -438 673 -438 673 -414.5 713 c 128,-1,10
 -391 753 -391 753 -342 753 c 0,11,12
 -318 753 -318 753 -291 743.5 c 128,-1,13
 -264 734 -264 734 -225 711 c 0,14,15
 -178 683 -178 683 -157 683 c 0,16,17
 -142 683 -142 683 -135 697 c 128,-1,18
 -128 711 -128 711 -128 743 c 1,19,-1
 -28 743 l 1,20,21
 -28 657 -28 657 -51.5 617 c 128,-1,22
 -75 577 -75 577 -124 577 c 0,23,0
 -147 577 -147 577 -173.5 586.5 c 128,-1,1
EndSplineSet
EndChar

StartChar: uni0304
Encoding: 772 772 544
Width: 0
GlyphClass: 4
Flags: W
AnchorPoint: "Anchor-10" -217 708 basemark 0
AnchorPoint: "Anchor-10" -217 520 mark 0
AnchorPoint: "Anchor-6" -217 520 mark 0
AnchorPoint: "Anchor-1" -217 520 mark 0
LayerCount: 2
Fore
SplineSet
-406 708 m 1,0,-1
 -28 708 l 1,1,-1
 -28 622 l 1,2,-1
 -406 622 l 1,3,-1
 -406 708 l 1,0,-1
EndSplineSet
EndChar

StartChar: uni0305
Encoding: 773 773 545
Width: 0
GlyphClass: 4
Flags: W
LayerCount: 2
Fore
SplineSet
-600 885 m 1,0,-1
 0 885 l 1,1,-1
 0 800 l 1,2,-1
 -600 800 l 1,3,-1
 -600 885 l 1,0,-1
EndSplineSet
EndChar

StartChar: hookabovecomb
Encoding: 777 777 546
Width: 0
GlyphClass: 4
Flags: W
AnchorPoint: "Anchor-10" -188 773 basemark 0
AnchorPoint: "Anchor-10" -188 520 mark 0
AnchorPoint: "Anchor-6" -188 520 mark 0
AnchorPoint: "Anchor-1" -188 520 mark 0
LayerCount: 2
Fore
SplineSet
-149 616.5 m 128,-1,1
 -145 636 -145 636 -145 649 c 0,2,3
 -145 671 -145 671 -159.5 678.5 c 128,-1,4
 -174 686 -174 686 -213 686 c 0,5,6
 -277 686 -277 686 -337 668 c 1,7,-1
 -347 755 l 1,8,9
 -272 773 -272 773 -187 773 c 0,10,11
 -125 773 -125 773 -91 765.5 c 128,-1,12
 -57 758 -57 758 -42.5 740.5 c 128,-1,13
 -28 723 -28 723 -28 690 c 0,14,15
 -28 666 -28 666 -33.5 636 c 128,-1,16
 -39 606 -39 606 -48 583 c 1,17,-1
 -158 583 l 1,18,0
 -153 597 -153 597 -149 616.5 c 128,-1,1
EndSplineSet
EndChar

StartChar: uni030F
Encoding: 783 783 547
Width: 0
GlyphClass: 4
Flags: W
AnchorPoint: "Anchor-10" -254 770 basemark 0
AnchorPoint: "Anchor-10" -254 520 mark 0
AnchorPoint: "Anchor-6" -254 520 mark 0
AnchorPoint: "Anchor-1" -254 520 mark 0
LayerCount: 2
Fore
SplineSet
-500 770 m 1,0,-1
 -360 770 l 1,1,-1
 -265 560 l 1,2,-1
 -375 560 l 1,3,-1
 -500 770 l 1,0,-1
-275 770 m 1,4,-1
 -135 770 l 1,5,-1
 -40 560 l 1,6,-1
 -150 560 l 1,7,-1
 -275 770 l 1,4,-1
EndSplineSet
EndChar

StartChar: uni0311
Encoding: 785 785 548
Width: 0
GlyphClass: 4
Flags: W
AnchorPoint: "Anchor-10" -222 757 basemark 0
AnchorPoint: "Anchor-10" -222 520 mark 0
AnchorPoint: "Anchor-6" -222 520 mark 0
AnchorPoint: "Anchor-1" -222 520 mark 0
LayerCount: 2
Fore
SplineSet
-119.5 735.5 m 128,-1,1
 -74 714 -74 714 -47 675 c 128,-1,2
 -20 636 -20 636 -17 587 c 1,3,-1
 -134 587 l 1,4,5
 -139 628 -139 628 -161.5 649.5 c 128,-1,6
 -184 671 -184 671 -222 671 c 256,7,8
 -260 671 -260 671 -282.5 649.5 c 128,-1,9
 -305 628 -305 628 -310 587 c 1,10,-1
 -427 587 l 1,11,12
 -424 636 -424 636 -397 675 c 128,-1,13
 -370 714 -370 714 -324.5 735.5 c 128,-1,14
 -279 757 -279 757 -222 757 c 256,15,0
 -165 757 -165 757 -119.5 735.5 c 128,-1,1
EndSplineSet
EndChar

StartChar: uni0312
Encoding: 786 786 549
Width: 0
GlyphClass: 4
Flags: W
AnchorPoint: "Anchor-10" -158 770 basemark 0
AnchorPoint: "Anchor-10" -158 520 mark 0
AnchorPoint: "Anchor-6" -158 520 mark 0
AnchorPoint: "Anchor-1" -158 520 mark 0
LayerCount: 2
Fore
SplineSet
-150 770 m 1,0,-1
 -40 770 l 1,1,-1
 -135 560 l 1,2,-1
 -275 560 l 1,3,-1
 -150 770 l 1,0,-1
EndSplineSet
EndChar

StartChar: uni031B
Encoding: 795 795 550
Width: 0
GlyphClass: 4
Flags: W
AnchorPoint: "Anchor-11" -59 770 basemark 0
AnchorPoint: "Anchor-11" -297 620 mark 0
AnchorPoint: "Anchor-7" -297 620 mark 0
AnchorPoint: "Anchor-3" -297 620 mark 0
LayerCount: 2
Fore
SplineSet
-315 533 m 1,1,-1
 -297 620 l 1,2,3
 -290 610 -290 610 -276.5 604 c 128,-1,4
 -263 598 -263 598 -247 598 c 0,5,6
 -221 598 -221 598 -206.5 615.5 c 128,-1,7
 -192 633 -192 633 -192 664 c 0,8,9
 -192 687 -192 687 -198.5 719 c 128,-1,10
 -205 751 -205 751 -213 770 c 1,11,-1
 -100 770 l 1,12,13
 -80 708 -80 708 -80 650 c 0,14,15
 -80 582 -80 582 -113.5 543.5 c 128,-1,16
 -147 505 -147 505 -208 505 c 0,17,0
 -259 505 -259 505 -315 533 c 1,1,-1
EndSplineSet
EndChar

StartChar: uni0326
Encoding: 806 806 553
Width: 0
GlyphClass: 4
Flags: W
AnchorPoint: "Anchor-10" -159 -290 mark 0
AnchorPoint: "Anchor-9" -141 -210 basemark 0
AnchorPoint: "Anchor-6" -159 -290 mark 0
AnchorPoint: "Anchor-1" -159 -290 mark 0
LayerCount: 2
Fore
SplineSet
-149 -250 m 1,0,-1
 -259 -250 l 1,1,-1
 -164 -40 l 1,2,-1
 -24 -40 l 1,3,-1
 -149 -250 l 1,0,-1
EndSplineSet
EndChar

StartChar: uni0327
Encoding: 807 807 554
Width: 0
GlyphClass: 4
Flags: W
AnchorPoint: "Anchor-8" -243 0 mark 0
LayerCount: 2
Fore
SplineSet
-332 -196 m 1,1,-1
 -315 -111 l 1,2,3
 -274 -130 -274 -130 -226 -130 c 0,4,5
 -193 -130 -193 -130 -175.5 -120.5 c 128,-1,6
 -158 -111 -158 -111 -158 -93 c 0,7,8
 -158 -73 -158 -73 -180.5 -48.5 c 128,-1,9
 -203 -24 -203 -24 -243 0 c 1,10,-1
 -145 24 l 1,11,12
 -56 -39 -56 -39 -56 -112 c 0,13,14
 -56 -162 -56 -162 -98 -189.5 c 128,-1,15
 -140 -217 -140 -217 -217 -217 c 0,16,0
 -281 -217 -281 -217 -332 -196 c 1,1,-1
EndSplineSet
EndChar

StartChar: uni0328
Encoding: 808 808 555
Width: 0
GlyphClass: 4
Flags: W
AnchorPoint: "Anchor-5" -145 0 mark 0
AnchorPoint: "Anchor-2" -145 0 mark 0
LayerCount: 2
Fore
SplineSet
-290 -189.5 m 128,-1,1
 -332 -162 -332 -162 -332 -112 c 0,2,3
 -332 -39 -332 -39 -243 24 c 1,4,-1
 -145 0 l 1,5,6
 -185 -24 -185 -24 -207.5 -48.5 c 128,-1,7
 -230 -73 -230 -73 -230 -93 c 0,8,9
 -230 -111 -230 -111 -212.5 -120.5 c 128,-1,10
 -195 -130 -195 -130 -162 -130 c 0,11,12
 -114 -130 -114 -130 -73 -111 c 1,13,-1
 -56 -196 l 1,14,15
 -107 -217 -107 -217 -171 -217 c 0,16,0
 -248 -217 -248 -217 -290 -189.5 c 128,-1,1
EndSplineSet
EndChar

StartChar: uni0370
Encoding: 880 880 571
Width: 584
Flags: W
LayerCount: 2
Fore
SplineSet
542 432 m 1,0,-1
 542 346 l 1,1,-1
 192 346 l 1,2,-1
 192 0 l 1,3,-1
 82 0 l 1,4,-1
 82 730 l 1,5,-1
 192 730 l 1,6,-1
 192 432 l 1,7,-1
 542 432 l 1,0,-1
EndSplineSet
EndChar

StartChar: uni0371
Encoding: 881 881 572
Width: 454
Flags: W
LayerCount: 2
Fore
SplineSet
412 317 m 1,0,-1
 412 237 l 1,1,-1
 172 237 l 1,2,-1
 172 0 l 1,3,-1
 72 0 l 1,4,-1
 72 520 l 1,5,-1
 172 520 l 1,6,-1
 172 317 l 1,7,-1
 412 317 l 1,0,-1
EndSplineSet
EndChar

StartChar: uni0372
Encoding: 882 882 573
Width: 714
Flags: W
LayerCount: 2
Fore
SplineSet
302 638 m 1,0,-1
 167 638 l 1,1,-1
 167 350 l 1,2,-1
 62 350 l 1,3,-1
 62 730 l 1,4,-1
 652 730 l 1,5,-1
 652 350 l 1,6,-1
 547 350 l 1,7,-1
 547 638 l 1,8,-1
 412 638 l 1,9,-1
 412 0 l 1,10,-1
 302 0 l 1,11,-1
 302 638 l 1,0,-1
EndSplineSet
EndChar

StartChar: uni0373
Encoding: 883 883 574
Width: 594
Flags: W
LayerCount: 2
Fore
SplineSet
247 650 m 1,0,-1
 147 650 l 1,1,-1
 147 450 l 1,2,-1
 57 450 l 1,3,-1
 57 730 l 1,4,-1
 537 730 l 1,5,-1
 537 450 l 1,6,-1
 447 450 l 1,7,-1
 447 650 l 1,8,-1
 347 650 l 1,9,-1
 347 0 l 1,10,-1
 247 0 l 1,11,-1
 247 650 l 1,0,-1
EndSplineSet
EndChar

StartChar: uni0374
Encoding: 884 884 575
Width: 319
Flags: W
LayerCount: 2
Fore
SplineSet
137 770 m 1,0,-1
 277 770 l 1,1,-1
 167 510 l 1,2,-1
 67 510 l 1,3,-1
 137 770 l 1,0,-1
EndSplineSet
EndChar

StartChar: uni0375
Encoding: 885 885 576
Width: 319
Flags: W
LayerCount: 2
Fore
SplineSet
182 -110 m 1,0,-1
 42 -110 l 1,1,-1
 152 150 l 1,2,-1
 252 150 l 1,3,-1
 182 -110 l 1,0,-1
EndSplineSet
EndChar

